<?xml version="1.0" encoding="utf-8"?>
<!-- Generator: Adobe Illustrator 24.0.1, SVG Export Plug-In . SVG Version: 6.00 Build 0)  -->
<svg version="1.1" id="Layer_1" xmlns="http://www.w3.org/2000/svg" xmlns:xlink="http://www.w3.org/1999/xlink" x="0px" y="0px"
	 viewBox="0 0 2295 1890" style="enable-background:new 0 0 2295 1890;" xml:space="preserve">
<style type="text/css">
	.st0{clip-path:url(#SVGID_2_);}
	.st1{fill:none;stroke:#26FF00;stroke-width:0.4267;stroke-miterlimit:10;}
	.st2{fill:#9C97FC;}
	.st3{clip-path:url(#SVGID_4_);}
	.st4{fill:none;stroke:#837DFA;stroke-width:38.4039;stroke-miterlimit:10;}
	.st5{fill:#837DFA;}
	.st6{fill:#5651B9;}
	.st7{clip-path:url(#SVGID_6_);}
	.st8{fill:none;stroke:#9C97FC;stroke-width:4.0696;stroke-linecap:round;stroke-miterlimit:10;}
	.st9{clip-path:url(#SVGID_8_);}
	.st10{fill:none;stroke:#635BC2;stroke-width:4.0696;stroke-linecap:round;stroke-miterlimit:10;}
	.st11{fill:#230E15;}
	.st12{fill:none;stroke:#000000;stroke-width:3.3217;stroke-miterlimit:10;}
	.st13{fill:#43222F;}
	.st14{fill:url(#SVGID_9_);}
	.st15{fill:#5F5AC0;}
	.st16{fill:url(#SVGID_10_);}
	.st17{fill:#FFFFFF;stroke:#E6E7FF;stroke-width:1.6609;stroke-miterlimit:10;}
	.st18{fill:url(#SVGID_11_);}
	.st19{fill:url(#SVGID_12_);}
	.st20{fill:#FF9DA0;}
	.st21{fill:url(#SVGID_13_);}
	.st22{fill:#FF5665;}
	.st23{fill:none;stroke:#230E15;stroke-width:4.2671;stroke-miterlimit:10;}
	.st24{fill:none;stroke:#230E15;stroke-width:2.5603;stroke-miterlimit:10;}
	.st25{fill:none;stroke:#FFFFFF;stroke-width:2.9111;stroke-linecap:round;stroke-miterlimit:10;}
	.st26{fill:#EE3030;}
	.st27{fill:#920809;}
	.st28{fill:url(#SVGID_14_);}
	.st29{fill:url(#SVGID_15_);}
	.st30{fill:none;stroke:#FFFFFF;stroke-width:0.6643;stroke-miterlimit:10;}
	.st31{fill:none;stroke:#FFFFFF;stroke-width:0.7712;stroke-miterlimit:10;}
	.st32{fill:#FFFFFF;}
	.st33{fill:#E27F86;}
	.st34{fill:#2B0055;}
	.st35{fill:url(#SVGID_16_);}
	.st36{clip-path:url(#SVGID_18_);fill:none;stroke:#000000;stroke-width:3.3217;stroke-miterlimit:10;}
	.st37{fill:none;stroke:#FFFFFF;stroke-width:1.6609;stroke-linecap:round;stroke-miterlimit:10;}
	.st38{clip-path:url(#SVGID_20_);fill:none;stroke:#230E15;stroke-width:3.3217;stroke-miterlimit:10;}
	.st39{fill:none;stroke:#E6E7FF;stroke-width:1.993;stroke-miterlimit:10;}
	.st40{fill:none;stroke:#E6E7FF;stroke-width:1.993;stroke-linejoin:round;stroke-miterlimit:10;}
	.st41{fill:none;stroke:#E6E7FF;stroke-width:1.993;stroke-linecap:round;stroke-linejoin:round;stroke-miterlimit:10;}
	.st42{fill:#E6E7FF;}
	.st43{fill:none;stroke:#E6E7FF;stroke-width:1.6609;stroke-miterlimit:10;}
	.st44{clip-path:url(#SVGID_22_);fill:none;stroke:#E6E7FF;stroke-width:1.993;stroke-miterlimit:10;}
	.st45{fill:url(#SVGID_23_);}
	.st46{fill:url(#SVGID_24_);}
	.st47{opacity:0.5;fill:none;stroke:#FFFFFF;stroke-width:4;stroke-miterlimit:10;}
	.st48{opacity:0.7;fill:none;stroke:#FFFFFF;stroke-width:5;stroke-miterlimit:10;}
	.st49{fill:none;stroke:#FFFFFF;stroke-width:3;stroke-miterlimit:10;}
	.st50{fill:none;stroke:#230E15;stroke-width:1.4952;stroke-miterlimit:10;}
	.st51{clip-path:url(#SVGID_26_);}
	.st52{fill:none;stroke:#43222F;stroke-width:3.2653;stroke-linecap:round;stroke-miterlimit:10;}
	.st53{clip-path:url(#SVGID_28_);}
	.st54{fill:#FF989B;}
	.st55{fill:url(#SVGID_29_);}
	.st56{fill:url(#SVGID_30_);}
	.st57{fill:url(#SVGID_31_);}
	.st58{fill:url(#SVGID_32_);}
	.st59{fill:url(#SVGID_33_);}
	.st60{fill:#FFFFFF;stroke:#E6E7FF;stroke-width:0.7476;stroke-miterlimit:10;}
	.st61{fill:url(#SVGID_34_);}
	.st62{fill:#353596;}
	.st63{fill:url(#SVGID_35_);}
	.st64{fill:none;stroke:#E6E7FF;stroke-width:1.9204;stroke-miterlimit:10;}
	.st65{fill:url(#SVGID_36_);}
	.st66{fill:none;stroke:#230E15;stroke-width:4.6175;stroke-linecap:round;stroke-miterlimit:10;}
	.st67{fill:none;stroke:#230E15;stroke-width:2.9163;stroke-miterlimit:10;}
	.st68{fill:none;stroke:#230E15;stroke-width:1.7012;stroke-miterlimit:10;}
	.st69{fill:url(#SVGID_37_);}
	.st70{clip-path:url(#SVGID_39_);}
	.st71{fill:none;stroke:#FFBB00;stroke-width:2.987;stroke-miterlimit:10;}
	.st72{fill:none;stroke:#920809;stroke-width:8.5342;stroke-miterlimit:10;}
	.st73{fill:#01325B;}
	.st74{fill:#0053B6;}
	.st75{fill:#0080FF;}
	.st76{fill:none;stroke:#1D1146;stroke-width:6.4007;stroke-miterlimit:10;}
	.st77{fill:none;stroke:#1D1146;stroke-width:6.4007;stroke-linecap:round;stroke-miterlimit:10;}
	.st78{fill:url(#SVGID_40_);}
	.st79{fill:url(#SVGID_41_);}
	.st80{fill:none;stroke:#920809;stroke-width:14;stroke-miterlimit:10;}
	.st81{clip-path:url(#SVGID_43_);}
	.st82{fill:#D6182B;}
	.st83{fill:none;}
	.st84{fill:none;stroke:#920809;stroke-width:6.8225;stroke-miterlimit:10;}
	.st85{fill:none;stroke:#920809;stroke-width:4.7757;stroke-miterlimit:10;}
	.st86{fill:#FFB400;}
	.st87{clip-path:url(#SVGID_45_);}
	.st88{fill:none;stroke:#920809;stroke-width:2.0467;stroke-linejoin:round;stroke-miterlimit:10;}
	.st89{clip-path:url(#SVGID_47_);}
	.st90{fill:none;stroke:#EE3030;stroke-width:2.0467;stroke-linejoin:round;stroke-miterlimit:10;}
	.st91{clip-path:url(#SVGID_49_);}
	.st92{fill:none;stroke:#EE3030;stroke-width:3.4112;stroke-linejoin:round;stroke-miterlimit:10;}
	.st93{fill:none;stroke:#920809;stroke-width:3.7068;stroke-miterlimit:10;}
	.st94{fill:url(#SVGID_50_);}
	.st95{clip-path:url(#SVGID_52_);fill:#FFFFFF;}
	.st96{clip-path:url(#SVGID_54_);}
	.st97{fill:none;stroke:url(#SVGID_55_);stroke-width:7;stroke-miterlimit:10;}
	.st98{fill:none;stroke:url(#SVGID_56_);stroke-width:7;stroke-miterlimit:10;}
	.st99{fill:none;stroke:url(#SVGID_57_);stroke-width:7;stroke-miterlimit:10;}
	.st100{fill:url(#SVGID_58_);}
	.st101{fill:url(#SVGID_59_);}
	.st102{fill:url(#SVGID_60_);}
	.st103{fill:none;stroke:#920809;stroke-width:2.968;stroke-miterlimit:10;}
	.st104{clip-path:url(#SVGID_62_);}
	.st105{clip-path:url(#SVGID_64_);}
</style>
<g>
	<defs>
		<path id="SVGID_1_" d="M3012.2,1661.5c-171.9,53.7-196.1-105.2-376.2-105.2c-180.1,0-180.1,107.6-360.2,107.6
			c-180.1,0-180.1-107.6-360.2-107.6c-180.1,0-180.1,107.6-360.2,107.6c-180.1,0-180.1-107.6-360.2-107.6
			c-180.1,0-180.1,107.6-360.2,107.6s-180.1-107.6-360.2-107.6c-180.1,0-180.1,107.6-360.2,107.6c-180.1,0-180.1-107.6-360.2-107.6
			c-180.1,0-180.1,107.6-360.2,107.6c-180.1,0-180.1-107.6-360.2-107.6s-180.1,107.6-360.2,107.6c-180.1,0-180.1-107.6-360.2-107.6
			s-204.4,158.9-376.2,105.2c-53.7-16.8,69.9-107.7,69.9-164c0-56.3-107.6-56.3-107.6-112.6c0-56.3,107.6-56.3,107.6-112.6
			c0-56.3-107.6-56.3-107.6-112.6c0-56.3,107.6-56.3,107.6-112.6c0-56.3-107.6-56.3-107.6-112.6s107.6-56.3,107.6-112.6
			c0-56.3-107.6-56.3-107.6-112.6s107.6-56.3,107.6-112.6c0-56.3-107.6-56.3-107.6-112.6c0-56.3,107.6-56.3,107.6-112.6
			c0-56.3-107.6-56.3-107.6-112.6c0-56.3,107.6-56.3,107.6-112.6s-123.6-147.2-69.9-164c171.9-53.7,196.2,105.2,376.2,105.2
			c180.1,0,180.1-107.6,360.2-107.6S-1146,87.6-965.9,87.6S-785.8-20.1-605.7-20.1c180.1,0,180.1,107.6,360.2,107.6
			c180.1,0,180.1-107.6,360.2-107.6S294.7,87.6,474.8,87.6S654.9-20.1,835-20.1c180.1,0,180.1,107.6,360.2,107.6
			c180.1,0,180.1-107.6,360.2-107.6c180.1,0,180.1,107.6,360.2,107.6s180.1-107.6,360.2-107.6c180.1,0,180.1,107.6,360.2,107.6
			s204.4-158.9,376.2-105.2c53.7,16.8-69.9,107.7-69.9,164c0,56.3,107.6,56.3,107.6,112.6c0,56.3-107.6,56.3-107.6,112.6
			c0,56.3,107.6,56.3,107.6,112.6c0,56.3-107.6,56.3-107.6,112.6c0,56.3,107.6,56.3,107.6,112.6c0,56.3-107.6,56.3-107.6,112.6
			c0,56.3,107.6,56.3,107.6,112.6c0,56.3-107.6,56.3-107.6,112.6c0,56.3,107.6,56.3,107.6,112.6c0,56.3-107.6,56.3-107.6,112.6
			c0,56.3,107.6,56.3,107.6,112.6c0,56.3-120.4,72.2-105.8,126.6C2967.3,1597.6,3065.9,1644.7,3012.2,1661.5z"/>
	</defs>
	<clipPath id="SVGID_2_">
		<use xlink:href="#SVGID_1_"  style="overflow:visible;"/>
	</clipPath>
	<g class="st0">
		<g>
			<path class="st2" d="M508.2,1669c0,0-137.9-178.5-97.9-240.7s58.7-98.5,37.4-156.4c-21.3-57.9-76-92.6-68.9-122.8
				c5.7-24.6,40-15.3,57-34.9c17-19.6,34.1-40.9,17-63s-36.6-40-22.1-57c14.5-17,33.5,7.9,43.7-4c10.2-11.9-1.7-23.8-6.8-33.5
				c-5.1-9.6,1.1-28.9,18.2-31.2s26.1,11.9,27.8,22.1c1.7,10.2,6.8,25,18.2,26.1s61.9,2.3,68.7,49.9c6.8,47.7-10.8,76.1,2.8,95.4
				c13.6,19.3,86.3,48.8,109,74.4c22.7,25.5,56.8,97.1,59,135.7c2.3,38.6,39.2,48.8,72.1,50.5s63.6,1.7,84.6,22.1
				c21,20.4,26.7,46,70.9,68.7s119.8,55.6,153.3,42c33.5-13.6,62.4-56.8,98.8-57.9c36.3-1.1,90.8,4,126-25.5
				c35.2-29.5,59-58.5,77.2-82.9c18.2-24.4,34.6-44.8,72.1-51.7c37.5-6.8,67-10.2,68.1-41.4c1.1-31.2-7.4-66.4,15.9-84.6
				s83.4-18.2,109-34.6c25.5-16.5,29.5-55.1,33.5-76.1s17.6-50.5,41.4-57.9c23.8-7.4,74.9-6.2,84.6-27.8
				c9.6-21.6,13.1-53.9,38.6-58.5c25.5-4.5,34.5,38.4,35.8,71.5c1.7,46.1-44.3,57.9-43.1,81.7c1.1,23.8,53.4,35.2,55.6,79.5
				c2.3,44.3-30.7,123.7-46,160.6c-15.3,36.9,40.9,75.5,54.5,103.3c13.6,27.8,32.4,86.8-23.8,140.8c-56.2,53.9-109,86.3-109,118.1
				C1811.6,1668.4,508.2,1669,508.2,1669z"/>
			<g>
				<path class="st2" d="M1873,860.8c-0.2,2.2-0.4,4.3-0.6,6.3c-0.2,2.1-0.3,4.1-0.4,6c-0.2,3.9-0.1,7.7,0.2,11.3
					c0.2,1.8,0.5,3.6,0.8,5.3l0.5,2.8c0.2,1.1,0.4,2.1,0.5,3.3c0.3,2.3,0.4,5-0.1,8c-0.5,3-1.8,6-3.3,8.3c-1.6,2.4-3.4,4.3-5.1,5.9
					c-1.8,1.6-3.6,3-5.4,4.3c-2.9,2-5.6,4-7.8,6.5c-2.3,2.4-4.2,5.3-5.6,8.7c-0.7,1.7-1.2,3.5-1.7,5.4c-0.4,1.9-0.7,4-0.9,6.1l0,0
					c0,0.1-0.1,0.2-0.3,0.2c-0.1,0-0.1,0-0.2-0.1c-1.3-1.8-2.2-3.8-3-6c-0.7-2.1-1.1-4.4-1.2-6.8c-0.2-4.7,0.9-9.7,3.2-14
					c2.2-4.3,5.4-8.2,9-11.2l2-1.9c0.6-0.6,1.3-1.2,1.9-1.8c1.2-1.2,2.1-2.4,2.8-3.5c0.7-1.1,1-1.9,1.3-3c0.2-1,0.4-2.5,0.3-4.3
					c0-0.9,0-1.8-0.1-2.8l0-1.5l0-1.8c0-2.3,0.2-4.7,0.6-6.9c0.8-4.5,2.2-8.9,4.3-12.8c2.1-3.9,4.7-7.5,7.9-10.5
					c0.1-0.1,0.3-0.1,0.4,0C1873,860.7,1873,860.8,1873,860.8z"/>
			</g>
			<g>
				<defs>
					<path id="SVGID_3_" d="M508.2,1669c0,0-137.9-178.5-97.9-240.7s58.7-98.5,37.4-156.4c-21.3-57.9-76-92.6-68.9-122.8
						c5.7-24.6,40-15.3,57-34.9c17-19.6,34.1-40.9,17-63s-36.6-40-22.1-57c14.5-17,33.5,7.9,43.7-4c10.2-11.9-1.7-23.8-6.8-33.5
						c-5.1-9.6,1.1-28.9,18.2-31.2s26.1,11.9,27.8,22.1c1.7,10.2,6.8,25,18.2,26.1s61.9,2.3,68.7,49.9c6.8,47.7-10.8,76.1,2.8,95.4
						c13.6,19.3,86.3,48.8,109,74.4c22.7,25.5,56.8,97.1,59,135.7c2.3,38.6,39.2,48.8,72.1,50.5s63.6,1.7,84.6,22.1
						c21,20.4,26.7,46,70.9,68.7s119.8,55.6,153.3,42c33.5-13.6,62.4-56.8,98.8-57.9c36.3-1.1,90.8,4,126-25.5
						c35.2-29.5,59-58.5,77.2-82.9c18.2-24.4,34.6-44.8,72.1-51.7c37.5-6.8,67-10.2,68.1-41.4c1.1-31.2-7.4-66.4,15.9-84.6
						s83.4-18.2,109-34.6c25.5-16.5,29.5-55.1,33.5-76.1s17.6-50.5,41.4-57.9c23.8-7.4,74.9-6.2,84.6-27.8
						c9.6-21.6,13.1-53.9,38.6-58.5c25.5-4.5,34.5,38.4,35.8,71.5c1.7,46.1-44.3,57.9-43.1,81.7c1.1,23.8,53.4,35.2,55.6,79.5
						c2.3,44.3-30.7,123.7-46,160.6c-15.3,36.9,40.9,75.5,54.5,103.3c13.6,27.8,32.4,86.8-23.8,140.8c-56.2,53.9-109,86.3-109,118.1
						C1811.6,1668.4,508.2,1669,508.2,1669z"/>
				</defs>
				<clipPath id="SVGID_4_">
					<use xlink:href="#SVGID_3_"  style="overflow:visible;"/>
				</clipPath>
				<g class="st3">
					<g>
						<path class="st4" d="M358.9,1018.4c77.9,7,167.3,23,254.1-103.4"/>
						<path class="st4" d="M403.6,1113.5c34.5,4.5,145.6,13.4,228-74.1"/>
						<path class="st4" d="M986.6,1395.1c-31.5,71.5-72.4,137.1-160.9,160.9s-267.3,54.5-295.4,150.7"/>
						<path class="st4" d="M915,1243.6c-21.3,57-97.4,126.9-167.7,158.4c-121.7,54.5-286.1,17.9-384.8,183"/>
						<path class="st4" d="M311.5,1197.6c126,28.1,302.2,66.4,419.7-78.3"/>
						<path class="st4" d="M817,1187.5c-46.8,71.5-142.2,206.9-507.4,118.3"/>
					</g>
					<g>
						<g>
							<path class="st5" d="M1917.2,941.2c0.8,8.9,2.9,17.8,3,27.3c0,4.7-0.5,9.5-1.8,14.2c-1.3,4.6-3.5,9.1-6.3,13
								c-5.6,7.9-13.3,13.8-21.3,18.7c-4,2.4-8.1,4.6-12.3,6.6l-12.4,5.7c-8.1,3.8-16.1,7.9-23.6,12.5c-7.4,4.7-14.1,10.1-18.6,16.7
								c-4.6,6.7-7,14.6-8.1,23.1c-1.1,8.5-1.3,17.4-1.1,26.3l0.1,6.8l0,6.9c0,4.6-0.1,9.3-0.3,13.9c-0.5,9.3-1.4,18.8-3.6,28.3
								c-1.1,4.7-2.5,9.4-4.3,14c-1.8,4.6-4,9.1-6.5,13.4c-2.5,4.3-5.4,8.4-8.6,12.2c-3.2,3.8-6.6,7.3-10.2,10.7
								c-3.6,3.3-7.4,6.3-11.3,9.2c-3.9,2.8-7.9,5.5-11.9,8c-2,1.3-4.1,2.5-6.1,3.6l-5.8,3.4c-1.9,1.1-3.7,2.3-5.5,3.4
								c-1.8,1.2-3.6,2.3-5.4,3.6c-14.2,9.7-26.4,21.4-34.8,35.4c-2.1,3.5-3.9,7.1-5.7,10.9l-1.2,2.8l-0.6,1.4l-0.5,1.4l-1.1,2.9
								l-1,3c-2.5,7.9-4.2,16.2-5.3,24.6c-2.3,16.9-2.3,34.5-1.4,52c1,17.5,3.2,35.3,5.2,53.5c2,18.1,3.9,36.5,4.8,55.2
								c0.9,18.6,0.9,37.6-0.7,56.5c-1.6,19-4.6,38-9.6,56.6c-4.9,18.6-11.7,36.9-20.2,54.3c-8.5,17.4-18.6,34-30.1,49.5l0,0.1
								c-6.5,8.7-18.8,10.6-27.5,4.1c-8.7-6.5-10.6-18.8-4.1-27.5c0.1-0.2,0.3-0.4,0.5-0.6c21.3-26.6,37.8-56.8,47.8-89.4
								c5-16.3,8.5-33.1,10.6-50.3c2.1-17.2,2.8-34.6,2.7-52.3c-0.2-17.6-1.2-35.5-2.5-53.5c-1.3-18-2.8-36.3-3.2-55.1
								c-0.1-9.4,0.1-18.8,0.7-28.2c0.6-9.4,1.6-18.9,3.3-28.4c1.7-9.5,4-19,7.5-28.3l1.3-3.5l1.4-3.4l0.7-1.7l0.8-1.7l1.6-3.4
								c2.3-4.4,4.7-8.8,7.5-13c2.8-4.2,5.8-8.2,9-11.9c1.6-1.9,3.3-3.7,5-5.5c1.8-1.7,3.5-3.5,5.3-5.1c3.6-3.4,7.4-6.4,11.3-9.4
								c2-1.4,3.9-2.9,5.9-4.2l3-2l3-1.9c2-1.3,4.1-2.5,6.1-3.7c2.1-1.2,4.1-2.3,6.2-3.5l6.1-3.2c1.9-1,3.9-2,5.7-3.1
								c3.8-2.1,7.4-4.4,11-6.7c3.5-2.4,6.9-4.9,10.1-7.6c3.2-2.7,6.2-5.6,9-8.6c2.8-3.1,5.3-6.3,7.5-9.7c4.5-6.8,7.8-14.5,10-22.6
								c2.3-8.1,3.5-16.8,4.4-25.5c0.4-4.4,0.7-8.8,0.9-13.3l0.2-6.7l0.2-6.8c0.3-9.2,0.8-18.5,2.4-28c0.8-4.7,2-9.5,3.8-14.1
								c1.8-4.6,4.2-9.2,7.2-13.2c3-4.1,6.6-7.6,10.4-10.6c3.8-3,7.8-5.6,11.9-8c8.2-4.7,16.6-8.4,25-12l6.3-2.6l6.3-2.6
								c4.1-1.7,8.1-3.6,11.9-5.7c7.7-4.2,14.9-9.4,20.1-16.1c2.6-3.4,4.7-7.1,6-11.1c1.4-4,2-8.3,2.2-12.7c0.3-8.8-1.4-17.7-1.8-27
								c0-0.9,0.7-1.7,1.6-1.8C1916.3,939.6,1917.1,940.3,1917.2,941.2L1917.2,941.2z"/>
						</g>
						<g>
							<path class="st5" d="M1340.4,1468.8c-0.5-6.4,1.7-16.6,10.6-20c8.9-3.4,17.4-2.1,21.7,2.6c6.4,6.8,5.1,11.5,5.5,14.9
								c0.4,3.4-8.9,14-14.9,15.8C1357.4,1483.7,1341.7,1486.6,1340.4,1468.8z"/>
							<ellipse class="st5" cx="1884" cy="1109" rx="19.2" ry="21.7"/>
							
								<ellipse transform="matrix(0.2688 -0.9632 0.9632 0.2688 320.0679 2695.4692)" class="st5" cx="1935.3" cy="1136.9" rx="10" ry="6.6"/>
							<ellipse class="st5" cx="1765.7" cy="1112" rx="8.9" ry="6"/>
							
								<ellipse transform="matrix(0.9742 -0.2257 0.2257 0.9742 -219.9843 421.0935)" class="st5" cx="1731.9" cy="1172.8" rx="27.1" ry="17"/>
						</g>
					</g>
				</g>
			</g>
		</g>
		<g>
			<path class="st6" d="M1503,1661.5c0,0,10.6-90.2,89.6-154.5c1.4-1.1,3.3-1,4.6,0.2c12.7,12.4,24.5,24.4,29.7,29.7
				c0.4,0.4,1-0.1,0.7-0.5l-20.8-33.9c-1.2-1.9-0.7-4.4,1.1-5.8c8.9-6.8,35.1-25.9,57.9-30.9c2.2-0.5,4.4,0.8,5,2.9
				c6.7,22.2,19.6,62.6,23.9,76.2c0.2,0.7,1.3,0.5,1.3-0.2l-3.4-84.7c-0.1-2.1,1.4-3.9,3.4-4.4c30.9-6.4,253.3-43.3,307.7,205.4
				C1940.9,1659.9,1503,1661.5,1503,1661.5z"/>
			<g>
				<defs>
					<path id="SVGID_5_" d="M1503,1661.5c0,0,10.6-90.2,89.6-154.5c1.4-1.1,3.3-1,4.6,0.2c12.7,12.4,24.5,24.4,29.7,29.7
						c0.4,0.4,1-0.1,0.7-0.5l-20.8-33.9c-1.2-1.9-0.7-4.4,1.1-5.8c8.9-6.8,35.1-25.9,57.9-30.9c2.2-0.5,4.4,0.8,5,2.9
						c6.7,22.2,19.6,62.6,23.9,76.2c0.2,0.7,1.3,0.5,1.3-0.2l-3.4-84.7c-0.1-2.1,1.4-3.9,3.4-4.4c30.9-6.4,253.3-43.3,307.7,205.4
						C1940.9,1659.9,1503,1661.5,1503,1661.5z"/>
				</defs>
				<clipPath id="SVGID_6_">
					<use xlink:href="#SVGID_5_"  style="overflow:visible;"/>
				</clipPath>
				<g class="st7">
					<line class="st8" x1="1654" y1="1572.7" x2="1634.5" y2="1685.3"/>
					<line class="st8" x1="1684.8" y1="1579.2" x2="1667" y2="1681.6"/>
					<line class="st8" x1="1708.1" y1="1583" x2="1689.7" y2="1684.3"/>
					<line class="st8" x1="1733.6" y1="1587.9" x2="1717.9" y2="1682.1"/>
					<line class="st8" x1="1749.3" y1="1598.2" x2="1735.2" y2="1675.6"/>
					<line class="st8" x1="1768.2" y1="1629" x2="1761.2" y2="1672.3"/>
					<line class="st8" x1="1789.3" y1="1632.3" x2="1783.4" y2="1675.1"/>
					<line class="st8" x1="1807.7" y1="1635.5" x2="1798.5" y2="1675.6"/>
					<line class="st8" x1="1825.6" y1="1647.4" x2="1824" y2="1674"/>
					<line class="st8" x1="1837.5" y1="1651.2" x2="1836.4" y2="1672.3"/>
					<line class="st8" x1="1816.4" y1="1583.6" x2="1911.7" y2="1643.7"/>
					<line class="st8" x1="1829.4" y1="1563" x2="2011.8" y2="1678.8"/>
					<line class="st8" x1="2050.2" y1="1672.9" x2="1842.9" y2="1542.4"/>
					<path class="st8" d="M1853.7,1528.4c2.2,0.5,186.8,117.5,186.8,117.5"/>
					<line class="st8" x1="1865.1" y1="1507.8" x2="2017.8" y2="1604.1"/>
					<line class="st8" x1="1875.9" y1="1491" x2="2011.3" y2="1567.3"/>
					<line class="st8" x1="1827.2" y1="1547.8" x2="1807.7" y2="1425"/>
					<line class="st8" x1="1798" y1="1555.4" x2="1776.3" y2="1412.5"/>
					<line class="st8" x1="1773.6" y1="1556.5" x2="1753.6" y2="1423.9"/>
					<line class="st8" x1="1748.7" y1="1560.3" x2="1727.6" y2="1428.8"/>
					<line class="st8" x1="1730.3" y1="1565.2" x2="1711.4" y2="1424.4"/>
					<line class="st8" x1="1707.6" y1="1566.2" x2="1684.8" y2="1420.6"/>
					<line class="st8" x1="1685.4" y1="1553.8" x2="1674" y2="1433.1"/>
					<line class="st8" x1="1629.1" y1="1569.5" x2="1536" y2="1527.3"/>
					<line class="st8" x1="1621" y1="1584.7" x2="1519.7" y2="1538.1"/>
					<line class="st8" x1="1613.4" y1="1604.1" x2="1508.9" y2="1556.5"/>
					<line class="st8" x1="1602" y1="1625.3" x2="1499.2" y2="1579.8"/>
					<line class="st8" x1="1593.4" y1="1642" x2="1494.8" y2="1595.5"/>
					<line class="st8" x1="1588.5" y1="1666.9" x2="1486.7" y2="1619.3"/>
					<line class="st8" x1="1534.9" y1="1669.6" x2="1471.6" y2="1637.2"/>
				</g>
			</g>
			<g>
				<path class="st6" d="M2239.2,1661.3h-338.5c4.6-11.7,10.3-22.7,17.1-33.1c2.3-3.5,37.6,15.2,40.1,11.8
					c2.8-3.7-27.2-29.3-24.1-32.8c31.5-35.5,76.7-58.7,127.4-61.1c2.9-0.1-3.7,58.4-0.7,58.4c4.3,0,18.1-58.5,22.4-58.2
					C2154.1,1551.4,2214.1,1597.6,2239.2,1661.3z"/>
				<g>
					<defs>
						<path id="SVGID_7_" d="M2239.2,1661.3h-338.5c25.5-64.9,87.4-111.6,160.5-115.1c2.9-0.1-3.7,58.4-0.7,58.4
							c4.3,0,18.1-58.5,22.4-58.2C2154.1,1551.4,2214.1,1597.6,2239.2,1661.3z"/>
					</defs>
					<clipPath id="SVGID_8_">
						<use xlink:href="#SVGID_7_"  style="overflow:visible;"/>
					</clipPath>
					<g class="st9">
						<path class="st10" d="M2010.4,1549.2c0,0,18.9,78.5,24.9,137"/>
						<path class="st10" d="M2122.5,1546.5c0,0-42.8,129.4-52.5,151.6"/>
						<path class="st10" d="M2177.2,1568.2c0,0-44.9,105.6-61.7,133.2"/>
						<path class="st10" d="M2221,1596.9c0,0-37.9,58.5-62.8,90.9"/>
						<path class="st10" d="M1959,1562.2c0,0,48.2,118,52.5,142.4"/>
						<path class="st10" d="M1901.1,1627.7c0,0,55.2,34.6,86.6,60.1"/>
					</g>
				</g>
			</g>
		</g>
	</g>
</g>
<g>
	<path class="st11" d="M1427.6,936.2c0,0-13.4,77.8-6.7,237.4c6.7,159.7,43.5,508.3,43.5,508.3l69.1-2.2c0,0,5.6-187.2-1.1-240.7
		c-6.7-53.5,0.3-109.2,1.1-135.1c0.8-25.9,42.1-365.3,42.1-365.3L1427.6,936.2z"/>
	<path class="st12" d="M1490.3,987.2c0,0-5.8,218.1,0.1,405.3c5.9,187.3,8.2,286.6,8.2,286.6"/>
	<path class="st13" d="M1427.6,936.2c0,0,28.4,78.6,70.2,109.5c64.1,296.9,175.9,663.4,175.9,663.4l54.5,0.4
		c0,0-12.3-127.3-15.5-170.5c-3-40.9-12-97.8-29.3-141.3c-18.2-46-16.4-93.9-19.4-148.2c-3.4-62.4-11.4-240.7-29.5-308.8
		C1610.3,940.7,1427.6,936.2,1427.6,936.2z"/>
	<path class="st12" d="M1610.7,1021.5c0,0,21.7,240.8,27.6,301.8s58.5,191.5,71.1,357.8"/>
	
		<linearGradient id="SVGID_9_" gradientUnits="userSpaceOnUse" x1="1437.4546" y1="818.4432" x2="1549.3485" y2="818.4432" gradientTransform="matrix(0.9974 -7.143901e-02 7.143901e-02 0.9974 -193.4589 98.2167)">
		<stop  offset="0" style="stop-color:#FF9DA0"/>
		<stop  offset="0.8904" style="stop-color:#FF5665"/>
	</linearGradient>
	<path class="st14" d="M1411.2,815c0,0-25.3,63-53.7,113.2c-6.4,11.3-28.3,8.1-39.6,1.6c-0.2-0.1-0.3-0.2-0.4-0.3
		c-8.9-5.2-13.4-15.6-11-25.7c10.5-43.8,38.4-166.3,73.4-224.7C1391.7,723.5,1411.2,815,1411.2,815z"/>
	<path class="st15" d="M1492.7,610.1c-1.8,0-40.2,20.1-38.4,21s37.1,204.9,37.1,204.9s78.6-97.2,80-98.1c1.3-0.9,1.3-94.7,1.3-94.7
		L1492.7,610.1z"/>
	<linearGradient id="SVGID_10_" gradientUnits="userSpaceOnUse" x1="1541.7694" y1="663.9011" x2="1497.2208" y2="590.2027">
		<stop  offset="0" style="stop-color:#FF9DA0"/>
		<stop  offset="1" style="stop-color:#FF5665"/>
	</linearGradient>
	<path class="st16" d="M1570.7,609.4c0.5,18.9-2.3,38.5-17.1,58.1c-14.7,19.6-33.6,39.5-41.1,50.4c-2.3-18.1-4.1-56.6-27.9-76
		c15-24.6,68-58.7,68-58.7L1570.7,609.4z"/>
	<path class="st17" d="M1468.2,615.4c-17.5,5.8-50.8,17.6-73.5,39.4c4,11.5,8.4,17.6,6.8,32.8c-1.7,15.2-4.4,43.4-0.6,62.5
		c3.8,19.2,12.3,27.7,12.3,49.4c0,21.7,0.6,40,1.7,55.5c1,15.4,1.2,44.9-3.7,76.4c-4.8,31.5-12.8,154.7-15,198.4
		c24.2,20.8,60.1,28.2,97.1,32c8.7,0.9,16.3-6,16.2-14.8c-0.8-72.5-14.2-313-14.5-341.7C1494.6,763.8,1468.2,615.4,1468.2,615.4z"/>
	<path class="st17" d="M1494.4,857.2c1.1-20,2.1-82.9,1-102.5c-2.4-41.6-21.9-130.5-22.1-139.5c-0.1-9.1,14.2-10.9,14.2-10.9
		s-4.3-5.8-15.2,0.4c-10.3,5.8-15.5,10.9-23.5,14c-0.9,0.3-1.5,1.1-1.7,2c-2.4,13.4-2.1,57.1-7.5,77.1c-0.3,1.2,0.5,2.5,1.8,2.6
		c9.6,1.2,23.9,2.8,27.9,3.3c0.3,0,0.4,0.4,0.2,0.6l-15.1,11c0,0,15.3,40.9,21.6,71.5C1478.7,800,1493,845.9,1494.4,857.2z"/>
	<path class="st17" d="M1574.7,617.3c28.8,20.9,50.2,27.2,78.5,69.1c30.7,45.5,8,208.4,4.6,278.2c-2.9,59.1,4.4,167.7,6.7,199.7
		c0.4,5.2-3.6,11.1-8.7,12.4c-21.9,5.4-65.3,8.8-103.9-2.1c-10.2-2.9-36.4-17.1-37.5-27.7c-9.4-92.4-23-281.7-20-310.9
		C1497.9,803.7,1582.8,657.8,1574.7,617.3z"/>
	<linearGradient id="SVGID_11_" gradientUnits="userSpaceOnUse" x1="1367.1488" y1="776.259" x2="1421.9324" y2="726.1273">
		<stop  offset="0" style="stop-color:#FFFFFF"/>
		<stop  offset="1" style="stop-color:#E6E7FF"/>
	</linearGradient>
	<path class="st18" d="M1395,653.2c0,0-11.4,8.9-26.7,45.4c-15.2,36.2-31.2,80.3-31.8,87.4c5,13.1,47.7,54.3,63,58.2
		c6.8-9.6,8.2-11.9,14.2-22.1c-0.8-5,0.4-22.9-1.1-32.1c-2.5-14.2-8.3-30.4-12.8-46.3c-2.5-8.8-2-22.4-0.6-36
		c1.4-13.6,4-24.4,2-33.5C1399.2,665.2,1395,653.2,1395,653.2z"/>
	
		<linearGradient id="SVGID_12_" gradientUnits="userSpaceOnUse" x1="1451.7638" y1="939.7211" x2="1442.2437" y2="801.8522" gradientTransform="matrix(0.9974 -7.143901e-02 7.143901e-02 0.9974 -193.4589 98.2167)">
		<stop  offset="0" style="stop-color:#FF9DA0"/>
		<stop  offset="0.6457" style="stop-color:#FF6C77"/>
		<stop  offset="1" style="stop-color:#FF5665"/>
	</linearGradient>
	<path class="st19" d="M1330,941.9c17.3,2.2,31.1-11.9,31-22c-0.4-24.8-20.6-23.5-44-40.5c0-9.9,0.2-18.5-1.3-23.9
		c-1.5-5.7-2.2-9.6-8.7-15.1s-15.6-8.3-17.5-17.6c-1.3-6-2.4-14.7-3.1-20.1c-0.3-2.6-2.6-10.8-5.2-10.5l0,0
		c-2.2,0.3-4.1,8.3-4.4,10.4c-0.8,5.9-1.9,17.7,0.7,28.3c-1.5,7.3-10.2,28.3-4.8,41c5.3,12.7,10.1,15.3,15.8,19.9
		C1293,909.2,1299.7,938.1,1330,941.9z"/>
	<path class="st20" d="M1300.4,837.5c-4.6-2.6-8.6-5.3-10.7-2.6c-2.6,3.3-1.2,10.6,6.3,17.2c7.4,6.6,14.5,9.5,17.5,7.7
		s1.7-11.4-3-15.4C1305.7,840.3,1304.8,840,1300.4,837.5z"/>
	
		<linearGradient id="SVGID_13_" gradientUnits="userSpaceOnUse" x1="1409.9874" y1="876.7247" x2="1408.0455" y2="830.8423" gradientTransform="matrix(0.9974 -7.143901e-02 7.143901e-02 0.9974 -193.4589 98.2167)">
		<stop  offset="0" style="stop-color:#FF9DA0"/>
		<stop  offset="0.6457" style="stop-color:#FF6C77"/>
		<stop  offset="1" style="stop-color:#FF5665"/>
	</linearGradient>
	<path class="st21" d="M1278.8,830.3c-3.3-0.8-4.5-0.7-8-0.6s-12.5,2.1-7.8,13c-4.2,3.6-8.6,4.5-6.5,13.1c-4.2,3.1-7.8,5.6-2.7,13.1
		c8.4,12.3,26.1,22.1,33.9,13.1c3.3,1.4,10.9,1.7,8-7.1c2.4-0.7,4.5-3,1.4-7.7c-3.3-4.9-14.3-18.4-20.3-27.9
		C1276.3,834.8,1278.8,830.3,1278.8,830.3z"/>
	<g>
		<path class="st22" d="M1266.3,850.2c2.1,2.4,4.4,4.6,6.8,6.8c2.4,2.1,4.8,4.2,7.4,6.2c2.5,2,5.1,3.9,7.6,5.8
			c1.3,1,2.6,1.9,3.9,2.9c1.3,1,2.6,1.9,3.9,2.9c0.1,0.1,0.1,0.2,0,0.3c-0.1,0.1-0.2,0.1-0.3,0.1c-2.8-1.6-5.5-3.3-8.2-5.1
			c-2.7-1.8-5.3-3.7-7.8-5.8c-2.5-2.1-5-4.1-7.3-6.4c-2.3-2.3-4.5-4.6-6.4-7.3c-0.1-0.1,0-0.2,0.1-0.3
			C1266.1,850.1,1266.2,850.2,1266.3,850.2z"/>
	</g>
	<g>
		<path class="st22" d="M1258.8,860.5c2.2,2.2,4.4,4.2,6.7,6.1c2.3,1.9,4.7,3.7,7.2,5.4c2.5,1.7,5,3.4,7.5,5l3.8,2.4
			c1.3,0.8,2.6,1.6,3.8,2.4l0,0c0.1,0.1,0.1,0.2,0.1,0.3c-0.1,0.1-0.2,0.1-0.3,0.1c-1.4-0.7-2.7-1.3-4.1-2c-1.3-0.7-2.7-1.5-4-2.2
			c-2.6-1.6-5.2-3.2-7.6-5c-2.5-1.8-4.9-3.6-7.2-5.6c-1.1-1-2.3-2-3.3-3.1c-1-1.1-2.1-2.3-3-3.4l-0.1-0.1c-0.1-0.1-0.1-0.2,0-0.3
			C1258.6,860.5,1258.7,860.5,1258.8,860.5z"/>
	</g>
	<path class="st17" d="M1513,747.7c13.2-39.5,55.2-120.3,57.7-129c2.5-8.7-10.9-14.2-10.9-14.2s5.7-4.5,14.6,4.3
		c8.4,8.3,12.1,14.6,19,19.6c0.8,0.6,1.2,1.5,1.1,2.4c-1.2,13.5-13.8,54.4-13.8,75.1c0,1.3-1.1,2.3-2.4,2.1
		c-9.6-1.4-22.9-2.2-26.8-2.9c-0.3,0-0.5,0.3-0.4,0.5l7.9,10.9c0,0-24.5,38.2-35.1,58.6c-13.7,26.6-27.7,84.5-29.5,89.4
		C1491.4,814.8,1509,759.6,1513,747.7z"/>
	<circle class="st17" cx="1506.4" cy="875.8" r="7.2"/>
	<path class="st23" d="M1469.3,609.4c0,0,3.4,33.3,5.7,66.9"/>
	<g>
		<path class="st20" d="M1453.1,606.8c1.9,16.5,5.3,38.4,15.3,39.7s47-1.1,69.2-34.7c0.8-30.2-11.5-98.8-11.5-98.8
			s-56.4-8.1-57.3-7.2c-0.8,0.8-17,8.2-17,8.2s3.7,7.7,2.8,10.2C1443.7,557.9,1451.2,590.3,1453.1,606.8z"/>
		<path class="st11" d="M1495.7,523.2c0,0-19.7,14.3-24.8-4.7c-6.4,5.7-8.8,7.2-16.2,5.7c-3.3,14.8-4.4,18.7-5.3,25.8
			c-7.2,0.9-17.5-3.5-9.8-18.2c-7.4,0.4-16-6-6.4-15.8c-10.5-1.7-12.9-10.9-10.9-19s15.2-10.5,15.2-10.5s-10.2-16.9,8.8-19
			c1.7-6,8.5-10.9,19.7-5.3c-0.9-3.3-3-8.9-1.4-10.9s6.1,0.7,8.9,3.5c0.1-11.6,15.3-32.6,41-14.3c3.4-4.1,10.6-8.1,17.9,1.1
			c6.7-3.1,29.8-9.8,44.3,0.3c8.9,6.2,10.9,11.2,10.5,17.7c5.3,0.7,17.5,6.2,16.9,10.8s-5,6-5,6s10.4,1,10.2,6.4s-6.8,7.5-6.8,7.5
			s28.4,4.7,27.2,16.9c-1.1,12.2-9.6,15.8-9.6,15.8s8.2,3.4,7.1,8.8c-1.1,5.4-8.2,6.5-8.2,6.5s13.9,8.5,8.9,23
			c-5,14.5-18.4,14.2-18.4,14.2s8.7,6.8,7.2,14.2c-1.4,7.4-8.7,6.7-8.7,6.7s6.8,9.9-5.8,9.9c-2,8.7-5.8,12.6-12.9,14.8
			s-15.3-4.1-16.7-5.8c-2.3,2.3-14.3,9.1-19.9-4.4c-4.8,3.7-19,9.6-23.1-6.8c-6.8,0.4-12.2-3-7.9-13.5c-5.5,1.1-20.3-5.5-6.4-20.9
			c-2.6-0.9-8.4-5.7-0.6-11.5c-4.8-0.3-12.3-1.1-7-11.8c-5.8-0.4-10.9-3.7-4.5-14.3C1496.7,533.8,1491.5,534.1,1495.7,523.2z"/>
		<g>
			<g>
				<path d="M1457.6,501c-1.8-0.4-3.2-1.9-3.9-3.6c-0.7-1.7-0.8-3.8,0-5.6c0.1-0.2,0.2-0.5,0.3-0.7l0.4-0.6c0.2-0.2,0.3-0.4,0.5-0.6
					c0.2-0.2,0.4-0.3,0.6-0.5c0.2-0.1,0.4-0.3,0.6-0.4l0.6-0.3l0.6-0.3c0.2-0.1,0.4-0.1,0.7-0.2c1.8-0.6,3.6-0.5,5.2-0.2
					c0.1,0,0.2,0.1,0.2,0.3c0,0.1-0.1,0.2-0.2,0.2l0,0c-1.6,0.4-3.2,0.7-4.6,1.4c-1.3,0.7-2.4,1.6-2.9,2.8c-0.6,1.2-0.6,2.7-0.3,4.2
					c0.4,1.4,1.1,2.8,2.4,3.8l0,0c0.1,0.1,0.1,0.2,0,0.3C1457.8,501,1457.7,501,1457.6,501z"/>
			</g>
			<g>
				<path d="M1482.4,494.7c0.8-0.9,1.8-1.5,2.9-2.1c1-0.6,2.1-1.1,3.3-1.4c1.1-0.4,2.3-0.7,3.6-0.7c1.2-0.1,2.6,0,3.8,0.5
					c0.6,0.3,1.3,0.7,1.8,1.2c0.2,0.3,0.5,0.5,0.7,0.9l0.3,0.5l0.2,0.5c0.5,1.3,0.5,2.6,0.4,3.8c-0.3,2.4-1.2,4.6-2.4,6.6l-0.3-0.2
					l0,0c0.8-1.4,1.9-2.6,3.2-3.6c0.7-0.5,1.4-0.9,2.2-1.2c0.8-0.3,1.8-0.6,3.1-0.3c0.6,0.1,1.3,0.5,1.8,1.1
					c0.5,0.6,0.7,1.2,0.8,1.8c0.2,1.1-0.1,2-0.3,2.8c-0.6,1.6-1.5,2.9-2.7,4c-0.1,0.1-0.2,0.1-0.3,0c0,0-0.1-0.1-0.1-0.2
					c0-1.6,0.2-3.1,0.2-4.4c0-0.6,0-1.3-0.1-1.6c-0.1-0.1-0.1-0.2-0.1-0.2c0,0,0,0-0.1,0c-0.2-0.1-0.8-0.1-1.4,0.1
					c-0.6,0.1-1.2,0.3-1.9,0.5c-1.3,0.4-2.7,1-4.2,1.5l0,0c-0.1,0.1-0.2,0.1-0.3,0c-0.1,0-0.1-0.1-0.1-0.2l0-0.1
					c0.4-2.3,0.9-4.5,0.9-6.6c0-1.1-0.1-2.1-0.5-2.9c-0.4-0.8-0.9-1.4-1.8-1.8c-0.8-0.4-1.8-0.5-2.9-0.5c-1,0-2.1,0.2-3.2,0.4
					c-2.1,0.5-4.3,1.1-6.3,2.2l0,0c-0.1,0.1-0.2,0-0.3-0.1C1482.3,494.8,1482.3,494.7,1482.4,494.7z"/>
			</g>
			<g>
				<path d="M1548.1,529.7c1.5-0.3,3.2-0.5,4.8-0.1c0.8,0.2,1.7,0.5,2.5,1c0.4,0.3,0.8,0.6,1.1,0.9c0.3,0.4,0.6,0.7,0.8,1.2
					c0.9,1.7,0.9,3.6,0.5,5.2c-0.1,0.4-0.2,0.8-0.4,1.2c-0.1,0.4-0.3,0.8-0.5,1.1c-0.4,0.7-0.8,1.4-1.3,2c-0.1,0.1-0.2,0.1-0.3,0
					c-0.1,0-0.1-0.1-0.1-0.2v0c0-0.8,0.1-1.6,0.2-2.3c0-0.8,0.2-1.5,0.2-2.2c0-0.4,0-0.7,0-1c0-0.3-0.1-0.7-0.1-1
					c-0.1-0.6-0.2-1.2-0.4-1.8c-0.4-1.1-1.5-1.8-2.8-2.3c-1.3-0.6-2.8-0.8-4.3-1.2c-0.1,0-0.2-0.2-0.2-0.3
					C1547.9,529.7,1548,529.7,1548.1,529.7z"/>
			</g>
			<g>
				<path d="M1571.2,491.1c1.2-0.7,2.6-0.9,4.1-0.9c1.4,0.1,3,0.5,4.3,1.7c0.6,0.6,1.1,1.4,1.3,2.2c0.1,0.4,0.2,0.8,0.2,1.2
					c0,0.4,0,0.8-0.1,1.2c-0.1,0.4-0.1,0.7-0.3,1.1c-0.1,0.3-0.3,0.7-0.5,1c-0.3,0.6-0.8,1.2-1.3,1.7c-0.1,0.1-0.2,0.1-0.3,0
					c0,0-0.1-0.1-0.1-0.1l0,0c-0.1-1.4,0-2.6-0.1-3.7c-0.1-1.1-0.4-1.9-0.9-2.5c-0.5-0.7-1.5-1.2-2.6-1.5c-1.1-0.4-2.3-0.6-3.6-0.8
					l0,0c-0.1,0-0.2-0.1-0.2-0.3C1571.1,491.2,1571.1,491.1,1571.2,491.1z"/>
			</g>
			<g>
				<path d="M1610.6,544.1c0.9,0.4,1.6,0.8,2.3,1.6c0.6,0.7,1.1,1.7,1.3,2.7c0.2,1,0,2.1-0.4,3c-0.4,0.9-1.1,1.6-2,2.1
					c-0.1,0.1-0.3,0-0.4-0.1c0,0,0,0,0,0l0,0c-0.3-1-0.3-1.8-0.4-2.5c0-0.7-0.1-1.3-0.1-1.9c0-0.6-0.1-1.2-0.2-1.9
					c-0.1-0.7-0.4-1.5-0.4-2.5c0-0.1,0.1-0.3,0.2-0.3C1610.5,544.1,1610.5,544.1,1610.6,544.1L1610.6,544.1z"/>
			</g>
			<g>
				<path d="M1589.9,592.8c-0.6,1.3-1.6,2.3-2.9,3c-1.2,0.7-2.7,1.1-4.2,1.1c-1.5,0-2.9-0.5-4.2-1.2c-1.2-0.7-2.2-1.7-2.9-2.9
					l0.3-0.1l0,0c0,2.3-0.9,4.6-2.7,6.3c-0.9,0.9-2,1.5-3.3,1.8c-1.3,0.3-2.6,0.2-3.8-0.2c-2.5-0.8-4.2-2.6-5.5-4.5
					c-1.3-1.9-2.1-4-2.6-6.2c0-0.1,0-0.2,0.2-0.3c0.1,0,0.2,0,0.2,0.1c1.2,1.9,2.4,3.6,3.7,5.2c1.4,1.5,2.9,2.9,4.7,3.4
					c1.7,0.6,3.6,0.2,5.2-0.9c1.6-1.1,2.8-2.9,3.5-4.9l0,0c0-0.1,0-0.2,0.1-0.2c0,0,0,0,0.1,0l0.2,0c1.3,0.3,2.5,0.7,3.6,0.9
					c1.1,0.2,2.2,0.3,3.2,0.3c1,0,2.1-0.2,3.2-0.4c1.1-0.2,2.3-0.5,3.7-0.8c0.1,0,0.3,0.1,0.3,0.2
					C1590,592.7,1590,592.7,1589.9,592.8z"/>
			</g>
		</g>
		<path class="st24" d="M1442.5,554.2l14.1,10c5.5,3.9,6.3,12,1.3,16.6c-2.6,2.4-6,3-10.7,0.5c-8.5-4.5-11.8-14-12.1-22.1
			C1434.8,554.6,1438.8,551.6,1442.5,554.2z"/>
		<path class="st24" d="M1472.3,571.4l14.8,8.1c5.9,3.3,6.9,11.1,2.9,16.4c-2.1,2.8-7.4,4.4-12.4,2.4c-8.9-3.7-12.1-13.6-11.8-21.7
			C1466.2,571,1468.3,569.1,1472.3,571.4z"/>
		<line class="st24" x1="1461" y1="573" x2="1466" y2="574.8"/>
		<g>
			<path class="st11" d="M1491.4,582.7l24.3-3.9l0.4,2.1l-12.2,2.3l-6.1,1.1l-3.1,0.6l-1.5,0.3l-0.8,0.1l-0.4,0.1
				c-0.2,0-0.4,0.1-0.6,0.1V582.7z"/>
		</g>
	</g>
	<g>
		<path class="st11" d="M1534.3,1665.7l-4.1,48.5l-148.4-0.4c0,0-1.5-5.8,5.6-11.8c7.2-6,35.6-19.6,61-23
			c25.4-3.5,42.8-4.8,42.8-4.8l-0.7-10.3L1534.3,1665.7z"/>
		<g>
			<path class="st25" d="M1497,1679.6c-2.1-3.3-3.9-6.6-15.1-11.8c-11.2-5.2-21.9-11-25-12.8c-3.1-1.7-6.6-5.4,2.1-4.3
				c8.7,1.2,21.1,7.7,27.1,13.6c6,5.8,8.3,8.5,0.2,8.5s-22.1-1.9-26.7-3.5c-4.6-1.5-6.2-3.7,1.5-3.7s15.7,0.6,20.7,2.1"/>
			<path class="st25" d="M1481.9,1672.5c0,0,3.5,2.1,4.8,9.5"/>
			<path class="st25" d="M1473.6,1673.7c0,0,2.4,2.4,2.6,8.9"/>
			<path class="st25" d="M1464.6,1675.3c0,0,2.8,2.8,2.5,9.1"/>
		</g>
	</g>
	<g>
		<path class="st25" d="M1720,1690.9c-2.8-2.8-5.2-5.6-17.3-8.3s-23.7-6-27.2-7.1c-3.4-1-7.6-3.9,1.2-4.6s22.3,3,29.4,7.4
			c7.1,4.4,10,6.5,2,8.3c-7.9,1.8-22,2.9-26.8,2.4c-4.9-0.5-6.8-2.3,0.7-3.9c7.6-1.7,15.5-2.8,20.7-2.4"/>
	</g>
	<path class="st11" d="M1668.2,1715.4c0,0-2.4-31,31.3-32.1c25.7-0.8,32.9,31.3,32.9,31.3L1668.2,1715.4z"/>
	<circle class="st17" cx="1513.7" cy="962.2" r="7.2"/>
</g>
<path class="st26" d="M868.3,823.9c3.4,21.5,37,52.5,64.5,64.5c27.5,12,117.9,49.9,117.9,49.9l-95.5,147.1L798.6,1045l-18.1-141.1
	L868.3,823.9z"/>
<path class="st27" d="M1266.7,1056.5c3.4-42,5.7-126.6-9.1-171.4c-14.8-44.8-42.6-94.8-48.8-110.7s-11.4-55.6,7.9-84.6
	s39.5-41.3,39.5-41.3l-42-64.9c0,0-33,20.8-50.9,47.7c-17.9,27-37.5,81.4-37.5,81.4s-9.6-11.6-11.1-46.3
	c-1.4-34.6-2.1-162.7-2.1-162.7l-79.3,1.1l1.4,109.1c0,0-20.3-44.1-61.6-76.1c-0.7-0.6-1.8-0.4-2.4,0.4
	c-8.7,12.9-16.3,26.6-21.7,39.7c-5.1,12.3-8.6,17.4-10.3,27.1c-0.3,1.9,0.6,3.8,2.3,4.8c9.3,5.1,30.9,19.7,32.7,89.8
	c0,0-30.6,76-54.5,104.4c-36.6,43.5-84.8,141-132.8,351.8c31.2,28.4,134.1-30.2,134.1-30.2s11.8-63,37.9-128.8
	c26.1-65.8,37.9-109.4,77.2-153.8c15.3-17.4,32.4-27.2,32.4-27.2s156.9,273.3,158.6,272.9
	C1228.4,1088.3,1266.7,1056.5,1266.7,1056.5z"/>
<ellipse transform="matrix(0.8399 -0.5427 0.5427 0.8399 -136.6451 768.9529)" class="st26" cx="1235.3" cy="616.1" rx="2.6" ry="38.7"/>
<path class="st26" d="M972.3,536.2c0.8-1.2,2.5-1.5,3.7-0.6c0.9,0.7,1.8,1.4,2.3,1.8c0.9,0.8,1.8,1.6,2.7,2.4
	c1.8,1.6,3.6,3.2,5.3,4.8c3.5,3.3,6.9,6.6,10.2,10.1c6.6,6.9,12.9,14.1,18.7,21.7c2.9,3.8,5.6,7.7,8.3,11.7c2.6,4,5.1,8.1,7.3,12.3
	c2.3,4.2,4.3,8.6,6.1,13l2.6,6.6c0.4,1.1,0.8,2.2,1.2,3.3l1.2,3.4c3.2,9,5.9,18,8.2,27.2c2.3,9.2,4.1,18.5,5.6,27.8
	c0.7,4.7,1.3,9.4,1.8,14.1l0.8,7l0.2,1.8l0.1,0.9l0.1,0.9l0.3,1.7l0.4,1.7l0.2,0.9l0.2,0.8c0.2,0.6,0.3,1.1,0.5,1.7
	c0.4,1.1,0.7,2.2,1.2,3.3c0.4,1.1,0.9,2.1,1.4,3.2c0.5,1,1,2.1,1.7,3.1c1.2,2,2.5,3.9,4.1,5.7c0.4,0.4,0.8,0.9,1.2,1.3
	c0.4,0.4,0.8,0.8,1.3,1.2c0.5,0.4,0.9,0.7,1.4,1.1c0.5,0.3,1,0.6,1.5,0.9l-0.2,0.4c-0.5-0.3-1.1-0.5-1.6-0.9c-0.5-0.3-1-0.7-1.5-1
	c-0.5-0.4-0.9-0.8-1.4-1.2c-0.4-0.4-0.8-0.8-1.3-1.3c-1.6-1.7-3-3.7-4.3-5.7c-0.7-1-1.2-2-1.8-3.1c-0.5-1.1-1.1-2.1-1.5-3.2
	c-0.5-1.1-0.9-2.2-1.3-3.3c-0.2-0.6-0.4-1.1-0.5-1.7l-0.3-0.9l-0.2-0.9l-0.4-1.7l-0.3-1.8l-0.2-0.9l-0.1-0.9l-0.3-1.8l-1-7
	c-0.7-4.7-1.4-9.3-2.2-13.9c-1.7-9.2-3.8-18.4-6.3-27.4c-2.5-9-5.5-17.9-8.9-26.7l-1.3-3.3c-0.4-1.1-0.8-2.2-1.3-3.3l-2.8-6.5
	c-1.9-4.2-4-8.4-6.3-12.4c-2.3-4-4.8-7.9-7.5-11.8c-2.7-3.8-5.4-7.5-8.4-11.2c-5.9-7.2-12.2-14.1-18.8-20.6
	c-3.3-3.3-6.7-6.4-10.2-9.5c-1.7-1.5-3.5-3-5.3-4.5c-0.9-0.7-1.8-1.5-2.7-2.2c-0.9-0.7-3-2.4-3.9-3.1L972.3,536.2z"/>
<g>
	<path class="st26" d="M1117.4,503.9l-0.8,122.4l-0.2,30.6c0,10.2-0.1,20.4,1.3,30.4c0.7,5,1.8,9.9,3.5,14.6c1.7,4.7,4,9.2,7,13.3
		c5.9,8.2,14.4,14.3,23.6,18.5l-0.2,0.4c-9.4-3.9-18.3-9.8-24.7-18c-3.2-4.1-5.8-8.7-7.7-13.5c-1.9-4.8-3.3-9.9-4.2-15
		c-1.8-10.2-2-20.5-2.4-30.7l-0.9-30.6l-3.7-122.5L1117.4,503.9z"/>
</g>
<path class="st26" d="M979.8,739.6c0,0-18.3,28.1-43,54.1c-24.7,26-66.4,67.3-84.3,85.1s-88.1,73.2-88.1,73.2s-16.6-13.2-28.5-40.4
	c-11.9-27.2-1.3-61.7,14-79.6c15.3-17.9,92-88.1,117.1-114.1c25.1-26,63.1-68.4,63.1-68.4L979.8,739.6z"/>
<ellipse transform="matrix(0.882 -0.4713 0.4713 0.882 -214.4728 532.2699)" class="st27" cx="955.6" cy="694.4" rx="18.5" ry="51.3"/>
<ellipse transform="matrix(0.882 -0.4713 0.4713 0.882 -215.3553 532.4108)" class="st26" cx="955.4" cy="696.2" rx="12.9" ry="37.5"/>
<path class="st26" d="M648,1121.8c1.7,108.4,25.3,239.8,113,378.6s213.7,243.5,289.5,241.8c75.8-1.7,120-55.3,163.5-120.9
	c43.4-65.6,151.5-263.1,128.6-411.2c0,0-5.1-37.5-21.3-62.2c-16.2-24.7-67.3-52.8-95.4-103.9c-28.1-51.1-49.4-97.9-24.7-116.6
	c24.7-18.7,138.2-74.6,150.1-79.2c11.9-4.5,25.5-17,21-39.2s-21.6-44.3-33.5-50.5c-11.9-6.2-18.2-3.4-34.1,4.5
	c-15.9,7.9-63.6,31.8-93.1,43.1c-29.5,11.4-63,29.5-143.6,9.6c-34.1,19.3-60.7,67-60.7,67s11.4,32.9,6.8,67.5
	c-4.5,34.6-18.2,51.1-39.7,67.5c-21.6,16.5-39.2,27.2-58.5,55.1c-19.3,27.8-35.8,56.2-62.4,63.6C826.8,1143.9,648,1121.8,648,1121.8
	z"/>
<path class="st26" d="M1217.3,943c18,5.6,48.8,7.4,70.4,25.5s52.2,60.7,69.2,99.9s35.2,82.3,39.2,114.7s2.8,46.5-15.3,48.8
	c-10.2,2.3-16.2-0.3-18.4-6.2c-6.8,1.7-16.2,2.3-19.6-11.4c-6,1.4-15,2.3-17.6-3.7s-1.7-16.7-3.4-13.9c-1.7,2.8-6.2,7.9-10.5,1.7
	s-7.9-14.2-9.4-18.2c-1.4-4-5.1-7.4-8.2-11.4c-3.1-4-10.8-18.2-13.1-23.3c-2.3-5.1-1.7-9.4-0.3-11.6s3.4-3.7-0.3-5.1
	c-3.7-1.4-13.3-10.2-15.9-18.4s-0.9-15-1.7-17.9c-0.9-2.8-15-11.9-17.9-23.6c-2.8-11.6-0.9-19.6,0.3-23.6c1.1-4-1.1-6.5-3.1-7.9
	c-2-1.4-14.8-10.2-17-20.1c-2.3-9.9-2-14.8-1.1-17.6c0.9-2.8,0.3-5.7-3.1-7.9c-3.4-2.3-14.5-9.4-14.8-16.5c-0.3-7.1-0.3-8.8-0.3-8.8
	s-11.4-6.8-9.6-15.9C1197.4,941.6,1201.7,938.2,1217.3,943z"/>
<g>
	<linearGradient id="SVGID_14_" gradientUnits="userSpaceOnUse" x1="598.7709" y1="1373.032" x2="594.7508" y2="1289.5938">
		<stop  offset="0" style="stop-color:#FF9DA0"/>
		<stop  offset="1" style="stop-color:#FF5665"/>
	</linearGradient>
	<path class="st28" d="M569.1,1397.5c0,0,8.3,6.3,21,10.1c12.8,3.8,27.8,7.5,31.2,1.7c3.3-5.8,7.5-18.2,7.5-39.1
		c0-20.1-2.5-59.4-6.5-75.7c-0.3-1.2-0.2-2.4,0.2-3.6c1.4-3.7,3.7-9.5,2-16.5c-2-8.3-13.6-6.5-16.9-2.8c-3.2,3.5-4.1,9.1,0.7,19.3
		c0.3,0.6,0.4,1.3,0.4,1.9c-0.1,13.9-1.5,46.1-3.5,56.8c-2,10.9-5.3,21.7-9.9,18.4c-4.6-3.3-5.6-4.5-5.6-4.5L569.1,1397.5z"/>
	<linearGradient id="SVGID_15_" gradientUnits="userSpaceOnUse" x1="548.345" y1="1291.012" x2="579.0838" y2="1243.5382">
		<stop  offset="0" style="stop-color:#FF9DA0"/>
		<stop  offset="1" style="stop-color:#FF5665"/>
	</linearGradient>
	<path class="st29" d="M589.1,1269.2c-4.2,1.1-18.7,4.2-21.8,7.6c-3.1,3.4-9.8,12.3-8.5,33.5c-7.5-9.3-26.3-35.8-26.3-35.8
		s11.6-4.7,11.2-13.1c3.2-6.2,9.6-10.1,9.6-10.1L589.1,1269.2z"/>
	<g>
		<path class="st30" d="M587.4,1229c1.8,4.4,2.4,8.5,0.3,9.4s-5.3-2-7.2-6.4c-1.8-4.4-1.6-8.7,0.5-9.6
			C583.1,1221.4,585.6,1224.5,587.4,1229z"/>
		<path class="st20" d="M571.7,1204c2.7,2.5,9.7,9.2,13.4,23.9c0.2,0.8,0.6,1.5,1.2,2c2.8,2.4,6.3,5.6,8.3,7.5
			c0.9,0.8,1,2.3,0.2,3.2c-1,1.1-2.2,2.5-2.8,3.3c-1.1,1.6-1.5,2.1-0.8,4.4c0.7,2.3,3.1,11.8,3.8,14.3c0.7,2.6-1.9,6.9-7.9,7.5
			s-15,1.3-21.4,0.6c-6.8-0.7-10.8-1.5-13-6.1c-1.9-4-2.6-5.5-2.6-5.5s-1.8,0.9-6.5-1.1c-4.7-2-8.7-3.5-10.8-7.8
			c-2.1-4.3,1.3-7.3,3.2-8.1c2-0.8,6.1-1.1,7.5,0.7c1.5,1.8,6.8-24.9,6.8-24.9l10-10.8L571.7,1204z"/>
		<path class="st20" d="M532.2,1247.2c0,0,0,0.1-0.1,0.1c0.1-2.8,2.4-4.7,3.9-5.3c0.9-0.4,2.2-0.6,3.4-0.6l-0.9,0.3
			c-0.5,0.2-1.1,0.4-1.6,0.6c-1.1,0.5-2,1.2-2.8,2.1C533.4,1245.2,532.8,1246.2,532.2,1247.2z"/>
		<path class="st11" d="M568.2,1208.1c5.4-1.7,6.4-5.2,5.2-8.4c-1.2-3.2-4.3-5.1-7.1-4.3c-2.8,0.8-5.1,2.5-6.5,1.6s-4.9-5-10-3.6
			c-5.1,1.4-7,5.6-10.4,6.6s-12.9-0.7-16.8,3.9c-3.9,4.6-3.3,9.1-2.7,12.4s0.3,6.7-3.8,8.5c-4,1.8-9.5,5.7-8,10.3
			c1.4,4.6,4.2,3.3,4.4,5.4c0.2,2.1-2.1,6.5,0.4,9s8.2,2.1,8.7,3.1c0.5,1-0.4,4.7,1.9,6.4c2.4,1.6,6,0.5,7,1.6
			c1.1,1.1,2.3,4.9,4.3,5.6s8.9-3,12.4-7.1c-4.8-1.8-10.1-2.9-13.6-7.7c-3.6-4.9,0.3-9.3,4.2-9.9c3-0.4,6.1,0.4,6.7,2.7
			c0.6,2.3,0.1,5,1.4,4.6c1.4-0.5,7.7-4.5,3.1-11.2c3.8-1,6.2-2.7,6-6.1c-0.2-3.4-0.2-11.1,2.3-15.8
			C560.1,1210.2,565.2,1209,568.2,1208.1z"/>
		<path class="st31" d="M584.5,1231.3c2,4.9,2.5,9.5,0,10.6s-6.3-2-8.4-6.9c-2-4.9-1.6-9.7,1-10.8S582.5,1226.4,584.5,1231.3z"/>
		<g>
			<path class="st32" d="M586.4,1230c-0.3-0.5-0.5-0.4-0.7-0.3c-0.6,0.4-1.3,1.3-1.3,1.3l-0.5-0.4c0,0,0.8-1.1,1.5-1.5
				c1.2-0.7,1.6,0.9,1.6,1.3L586.4,1230z"/>
		</g>
		<path class="st32" d="M532.2,1247.3c0,0.5,0,1,0.2,1.5c-0.2,0.6-0.5,1.2-0.6,1.8c-0.3,1-0.6,2.1-0.7,3.2l0,0
			c0,0.2-0.2,0.3-0.4,0.3c-0.2,0-0.3-0.2-0.3-0.4c0.1-1.1,0.3-2.3,0.6-3.4C531.3,1249.3,531.7,1248.3,532.2,1247.3z"/>
		<path class="st32" d="M575.3,1232.4l-25.1,7l-5.4,1.5l-1.1,0.3l-1.7,0.5c-0.8-0.3-1.7-0.4-2.6-0.4l0.7-0.2l3.2-1l1.8-0.6l4.6-1.4
			l25-7.6L575.3,1232.4z"/>
		<g>
			<path class="st33" d="M536.6,1249.2c0.6-0.8,1.4-1.5,2.2-2.1c0.4-0.3,0.9-0.6,1.5-0.7c0.3-0.1,0.6-0.1,0.9,0.1
				c0.2,0,0.3,0.1,0.4,0.2c0.1,0.1,0.2,0.2,0.3,0.3c0.6,0.9,0.9,1.9,1.4,2.7c0.4,0.9,1.1,1.6,2.1,1.7c0,0,0.1,0,0.1,0.1
				c0,0,0,0.1-0.1,0.1c-0.5,0-1.1-0.1-1.5-0.4c-0.5-0.3-0.8-0.8-1-1.2c-0.5-0.9-0.8-1.9-1.4-2.6c-0.4-0.8-1.5-0.4-2.3,0.1
				c-0.8,0.5-1.6,1.2-2.3,1.8c0,0-0.1,0-0.1,0C536.6,1249.3,536.6,1249.2,536.6,1249.2z"/>
		</g>
		<path class="st34" d="M581.3,1231.6c0.4,1,0.5,1.9,0.1,2.1c-0.5,0.2-1.2-0.4-1.6-1.4c-0.4-1-0.4-1.9,0.1-2.1
			S580.9,1230.6,581.3,1231.6z"/>
	</g>
	<path class="st32" d="M559.7,1311.3l-27.9-37.7l-6.7,2.4c0,0,20.6,43.2,28.3,62C554.8,1329.9,558.1,1316.1,559.7,1311.3z"/>
	<linearGradient id="SVGID_16_" gradientUnits="userSpaceOnUse" x1="573.8287" y1="1374.8846" x2="531.9691" y2="1337.4304">
		<stop  offset="0" style="stop-color:#FFFFFF"/>
		<stop  offset="1" style="stop-color:#E6E7FF"/>
	</linearGradient>
	<path class="st35" d="M557,1320.6c0,0,23.9,33,32.6,42.9c-4.6,7.6-12.9,21-19.7,36.3c-10.3-5.5-36.5-21.7-36.5-21.7L557,1320.6z"/>
	<path class="st15" d="M544.4,1358.7c0,0-17.7,50.2-59.9,66.3s-99,47.7-123.7,58.3c-24.7,10.6-68,8.4-95.4-8.8
		c-27.4-17.2-46.4-30.9-56.1-43.3c-9.7-12.4-18.6-13.3-29.6-12.8c-11,0.4-37.3,2.2-51.7-3.5c27.6-8.4,47.3-23.6,69.6-26.1
		s237.7-2.4,237.7-2.4L544.4,1358.7z"/>
	<g>
		<g>
			<path class="st32" d="M614.9,1218.6c1.1,0,2,7.4,2,16.5s-0.9,16.5-2,16.5c-1.1,0-2-7.4-2-16.5S613.8,1218.6,614.9,1218.6
				 M614.9,1216.6c-2.4,0-2.9,3-3.3,6.6c-0.4,3.2-0.6,7.4-0.6,11.9s0.2,8.7,0.6,11.9c0.4,3.6,1,6.6,3.3,6.6s2.9-3,3.3-6.6
				c0.4-3.2,0.6-7.4,0.6-11.9s-0.2-8.7-0.6-11.9C617.8,1219.6,617.3,1216.6,614.9,1216.6L614.9,1216.6z"/>
		</g>
		<g>
			<path class="st32" d="M616.6,1253.3l1.9,37.9c0.1,1.1-0.8,2-1.9,2.1s-2-0.8-2.1-1.9c0,0,0,0,0,0l-1.2-37.9c0-0.9,0.7-1.7,1.6-1.7
				C615.8,1251.8,616.6,1252.5,616.6,1253.3z"/>
		</g>
	</g>
	<g>
		<path class="st11" d="M322,1444c0,0-21.9,72.6-23.1,76.9s-2.3,10.3-10.1,8c-7.8-2.3-55.3-20.7-138.2-0.8c-2.8,10.3-8.8,30-8.8,30
			s40.8,13.9,68.9,21.4s78.1,18.8,111.2,13.3c32-5.3,65.2-58.3,81.3-97.4C386.5,1476.1,322,1444,322,1444z"/>
		<g>
			<defs>
				<path id="SVGID_17_" d="M322,1444c0,0-21.9,72.6-23.1,76.9s-2.3,10.3-10.1,8c-7.8-2.3-55.3-20.7-138.2-0.8
					c-2.8,10.3-8.8,30-8.8,30s40.8,13.9,68.9,21.4s78.1,18.8,111.2,13.3c32-5.3,65.2-58.3,81.3-97.4C386.5,1476.1,322,1444,322,1444
					z"/>
			</defs>
			<clipPath id="SVGID_18_">
				<use xlink:href="#SVGID_17_"  style="overflow:visible;"/>
			</clipPath>
			<path class="st36" d="M367.5,1476.5c-5.6,11.3-21.9,42.1-27.5,54.2s-8.6,30.5-21,30.8c-12.4,0.3-57.7-4-96.1-9.6
				s-81.5-12.6-81.5-12.6"/>
		</g>
	</g>
	<path class="st13" d="M322,1444c16.8,17.2,37.1,37.1,87,55.5s96.1,33.6,102.3,44.4c6.2,10.8-1.8,18.3-3.5,46.6
		c-1.8,28.3,4.9,69.1,15,98.8c6,0,34-2,34-2l25.9-147.6c1.4-7.8-1.3-15.8-7.2-21.2l-139.1-127.7L322,1444z"/>
	<path class="st20" d="M556.2,1687.2l-3.7,22.6l-25.4,1.1l-3.7-21.8C523.4,1689.2,549.9,1688.2,556.2,1687.2z"/>
	<path class="st11" d="M527.5,1710.9l2.4,27.7l84.7-0.2c0,0,0.9-3.3-3.2-6.7c-4.1-3.4-20.3-11.2-34.8-13.1
		c-14.5-2-24.4-2.8-24.4-2.8l0.4-5.9L527.5,1710.9z"/>
	<path class="st20" d="M150.4,1528.7c0,0-14.6,2.5-31,2.4c-2.6,8.8-8.4,27.5-8.4,27.5s8.9-3.9,15.4-4.1c6.5-0.2,12.8,1.6,15.7,2.9
		C143,1554.2,150.4,1528.7,150.4,1528.7z"/>
	<path class="st11" d="M119.4,1531.1c0,0-21.8-0.1-32-1.7c-5.4,7-50.1,66.1-50.1,66.1s2,3.7,6.7,2.8s12.5-4.6,21.5-12.4
		s27.6-21.3,45.5-27.3C114.1,1548.4,119.4,1531.1,119.4,1531.1z"/>
	<g>
		<path class="st37" d="M104.8,1549.3c0,0,2.5,2.5,2,10.8"/>
		<path class="st37" d="M100.6,1553.4c0,0,2,1.5,1.7,8.6"/>
		<path class="st37" d="M95.4,1557.8c0,0,1.1,2.3,1,7.1"/>
		<path class="st37" d="M89.7,1562c0,0,1.6,1.1,1.3,5.9"/>
		<path class="st37" d="M111,1558.6c0,0-20.3,15.4-22.2,16.9c-1.9,1.5-3.1,3.5-1,2.8C89.9,1577.5,106.2,1567.9,111,1558.6z"/>
		<path class="st37" d="M111,1558.6c0,0-3.6,6.4-8.8,12.2s-10.4,12.1-12,13.8c-1.6,1.7-3.8,5.9,0.4,3.2S109.4,1571.5,111,1558.6z"/>
	</g>
	<g>
		<g>
			<path class="st20" d="M610.9,1265.3l14.2-0.2c1.6,0,2.8,1.2,2.9,2.8s-1.2,2.8-2.8,2.9c0,0-0.1,0-0.1,0l-14.2-0.2
				c-1.4,0-2.6-1.2-2.5-2.6C608.4,1266.4,609.5,1265.3,610.9,1265.3z"/>
		</g>
		<g>
			<path class="st20" d="M609.5,1270.7l15.6-0.2c1.4,0,2.5,1.1,2.5,2.4c0,1.4-1.1,2.5-2.4,2.5c0,0-0.1,0-0.1,0l-15.6-0.2
				c-1.2,0-2.2-1-2.2-2.3C607.4,1271.6,608.3,1270.7,609.5,1270.7z"/>
		</g>
		<g>
			<path class="st20" d="M610.6,1275.4l14.5-0.1c1.3,0,2.3,1,2.3,2.3c0,1.3-1,2.3-2.3,2.3h0l-14.5-0.1c-1.2,0-2.2-1-2.2-2.3
				C608.4,1276.4,609.4,1275.4,610.6,1275.4z"/>
		</g>
		<g>
			<path class="st20" d="M611.2,1280.1l13.9-0.2c1.4,0,2.5,1.1,2.5,2.4c0,1.4-1.1,2.5-2.4,2.5c0,0-0.1,0-0.1,0l-13.9-0.2
				c-1.2,0-2.2-1-2.2-2.3C609,1281.1,610,1280.1,611.2,1280.1z"/>
		</g>
	</g>
	<g>
		<path class="st37" d="M548.7,1718.8c1.2-1.9,2.2-3.8,8.6-6.7c6.4-3,12.5-6.3,14.2-7.3c1.8-1,3.8-3.1-1.2-2.4
			c-5,0.7-12,4.4-15.5,7.7s-4.7,4.9-0.1,4.9s12.6-1.1,15.2-2c2.7-0.9,3.5-2.1-0.9-2.1c-4.4,0-9,0.4-11.8,1.2"/>
		<path class="st37" d="M557.3,1714.8c0,0-2,1.2-2.7,5.4"/>
		<path class="st37" d="M562.1,1715.5c0,0-1.4,1.4-1.5,5"/>
		<path class="st37" d="M567.2,1716.4c0,0-1.6,1.6-1.4,5.2"/>
	</g>
	<g>
		<defs>
			<path id="SVGID_19_" d="M322,1444c16.8,17.2,37.1,37.1,87,55.5s96.1,33.6,102.3,44.4c6.2,10.8-1.8,18.3-3.5,46.6
				c-1.8,28.3,4.9,69.1,15,98.8c6,0,34-2,34-2l25.9-147.6c1.4-7.8-1.3-15.8-7.2-21.2l-139.1-127.7L322,1444z"/>
		</defs>
		<clipPath id="SVGID_20_">
			<use xlink:href="#SVGID_19_"  style="overflow:visible;"/>
		</clipPath>
		<path class="st38" d="M404.8,1440.7c0,0,31.3,18.1,50.9,29.2c19.6,11.1,65.4,43.4,78,51.9s18.9,9.4,16.9,33
			c-2,23.5-15.7,111.2-11.8,137.2"/>
	</g>
	<path class="st17" d="M553.4,1338c-0.7,18.5-23.2,39.4-47.4,51.3c-24.2,11.9-69.6,35.5-101.4,53.7c-17,9.7-72.1,12.3-123.9-14.6
		c-46.1-23.9-58.3-46.8-103.4-26.2c-25.7,11.8-48.9,21.9-60.1,5.6c10.6,6.1,24.6-0.3,39.6-11.9c14.9-11.6,28.5-22.2,52-23.5
		c23.5-1.3,66.9,8,102.7-1.3c35.8-9.3,60.3-26.2,71.2-38.1c10.9-11.9,56.5-60.2,142.4-56.9C538.8,1305.5,553.4,1338,553.4,1338z"/>
	<g>
		<g>
			<path class="st39" d="M362.8,1387.5l23.9,24c0,0-4.1,4.5-5.6,5.8c-1.5,1.3-10.1-1.2-17.4-10.9c-7.3-9.8-8.9-16.4-8.9-16.4
				L362.8,1387.5z"/>
			<path class="st40" d="M381.1,1417.3c0,0-11.8,8.6-16.9,10.9s-9.1,3.6-14.6-1.5s-12.1-14.7-13.9-18.7c-1.8-4-3.6-6.8,1.5-9.8
				c5.1-3,17.6-8.3,17.6-8.3s4.3,10.6,8.9,16.4C368.3,1412.2,375.8,1417.8,381.1,1417.3z"/>
			<path class="st41" d="M351.1,1423.5c2.2,2,5.6,5,11.3,2.2"/>
			
				<ellipse transform="matrix(0.7369 -0.676 0.676 0.7369 -852.0919 617.6993)" class="st42" cx="367.5" cy="1403.5" rx="2.2" ry="3"/>
		</g>
		<circle class="st43" cx="385.6" cy="1440.2" r="4"/>
	</g>
	<g>
		<defs>
			<path id="SVGID_21_" d="M553.4,1338c-0.7,18.5-23.2,39.4-47.4,51.3c-24.2,11.9-69.6,35.5-101.4,53.7
				c-17,9.7-72.1,12.3-123.9-14.6c-46.1-23.9-58.3-46.8-103.4-26.2c-25.7,11.8-48.9,21.9-60.1,5.6c10.6,6.1,24.6-0.3,39.6-11.9
				c14.9-11.6,28.5-22.2,52-23.5c23.5-1.3,66.9,8,102.7-1.3c35.8-9.3,60.3-26.2,71.2-38.1c10.9-11.9,56.5-60.2,142.4-56.9
				C538.8,1305.5,553.4,1338,553.4,1338z"/>
		</defs>
		<clipPath id="SVGID_22_">
			<use xlink:href="#SVGID_21_"  style="overflow:visible;"/>
		</clipPath>
		<line class="st44" x1="406.1" y1="1307.2" x2="430.9" y2="1349.4"/>
	</g>
	<polygon class="st32" points="601.9,1447.6 647.3,1412.9 625.6,1396.5 577.6,1432 	"/>
	<linearGradient id="SVGID_23_" gradientUnits="userSpaceOnUse" x1="394.8969" y1="1410.7185" x2="604.7878" y2="1410.7185">
		<stop  offset="0" style="stop-color:#FF9DA0"/>
		<stop  offset="1" style="stop-color:#FF5665"/>
	</linearGradient>
	<path class="st45" d="M414.4,1373.1c0,0-10.8,22-15.4,38.3c-4.6,16.2-7.8,24.2,5,27.8s47.7,10.8,88.1,8.8
		c37.2-1.8,68.3-4.5,75.5-5.7c0.9-0.1,1.8,0,2.6,0.4c3.3,1.9,10.1,4.9,18.7,3.4c9.8-1.7,20.7-10.4,13.8-18.7
		c-5.8,3.3-17.1,5.5-17.9,2.8c-0.8-2.7,6.1-7.3,6.1-7.3s-4.5-7.3-16.4,5c-19.4,2.5-91.3-15.9-119-20.4c5-6.5,18.4-20.2,18.4-20.2
		L414.4,1373.1z"/>
	<linearGradient id="SVGID_24_" gradientUnits="userSpaceOnUse" x1="451.5814" y1="1374.8164" x2="501.3608" y2="1303.7356">
		<stop  offset="0" style="stop-color:#FFFFFF"/>
		<stop  offset="1" style="stop-color:#E6E7FF"/>
	</linearGradient>
	<path class="st46" d="M473.8,1387.3l-59.5-14.2c0,0,8.1-14.4,19.6-30.8s46.4-50.7,72.2-41.3c25.8,9.4,12.4,37.8,3.8,47.9
		C501.4,1359,473.8,1387.3,473.8,1387.3z"/>
	<line class="st39" x1="516.2" y1="1309.6" x2="536.7" y2="1301.7"/>
</g>
<g>
	
		<ellipse transform="matrix(0.9073 -0.4205 0.4205 0.9073 -361.9282 559.0517)" class="st47" cx="1086.9" cy="1100.3" rx="52" ry="57"/>
	
		<ellipse transform="matrix(0.9073 -0.4205 0.4205 0.9073 -361.9282 559.0517)" class="st48" cx="1086.9" cy="1100.3" rx="27" ry="29.6"/>
	
		<ellipse transform="matrix(0.9073 -0.4205 0.4205 0.9073 -361.9282 559.0517)" class="st49" cx="1086.9" cy="1100.3" rx="11.2" ry="12.3"/>
</g>
<g>
	<path class="st11" d="M1178,1418.7c0,0,0,74.9-2.8,109.6c-2.8,34.7-9.7,74.3-2.8,83.8c6.9,9.5,34.7,41.9,50.3,60.6
		c15.6,18.7,77.7,94.3,89.9,109.6c8.2-5.1,26.8-19.2,26.8-19.2s-16.4-52.9-37.6-87.4c-21.2-34.5-59-80.7-59-80.7l-5.6-192.4
		L1178,1418.7z"/>
	<polygon class="st20" points="1253.8,1798.7 1253,1810.3 1220.9,1807 1221.3,1798.3 	"/>
	<path class="st11" d="M1253,1810.3c0,0-1.4,20.4-2.5,26.7c-3.8,0-93.3-0.1-93.3-0.1s0.3-3.4,8.2-8.2c8.6-5.2,55.1-17.1,55.1-17.1
		l0.4-4.7L1253,1810.3z"/>
	<path class="st20" d="M1314,1781.3c0,0,6.8,9.5,9.1,12.7c8.5-2.6,15.2-4.4,23.2-16c-2.4-4.3-8.3-13.9-8.3-13.9L1314,1781.3z"/>
	<path class="st11" d="M1346.4,1778c0,0,9.6,16.4,12.3,20.9c2.6,4.5,5.9,9.9,1.2,14.6c-4.7,4.7-20.1,19.6-22.3,21.2
		c-2.2,1.6-3.2,2.6-7.8,2.5c-4.7-0.1-41.7,0-43.2-0.1c-1.4-0.1-2-2.5,0.6-4.1c2.6-1.6,29-17.6,33-21s8.9-8.9,3-17.9
		C1328,1792.5,1336.4,1792,1346.4,1778z"/>
	<path class="st13" d="M1180.3,1420.4c1.8,14.1,14.3,73.9,17.9,105.6s4.6,66.7,5.4,81.5c0.8,14.8,4.9,26.1,5.6,32.7
		c0.8,6.6,5.6,104,11.8,158.1c13.8,0.3,34.7,0.5,34.7,0.5s17.1-87.1,22.7-131.1c5.6-43.9,19.2-157.4,19.2-187.3s-8.9-66.4-21.2-85.6
		C1257.7,1394.7,1180.3,1420.4,1180.3,1420.4z"/>
	<path class="st50" d="M1231,1400.5c4,27,15.1,80.1,17.2,120.3c2.1,40.2-1.7,100-3.1,124.2c-1.3,24.1-6.3,122.3-7.3,153.5"/>
	<g>
		<defs>
			<path id="SVGID_25_" d="M1253,1810.3c0,0-1.4,20.4-2.5,26.7c-3.8,0-93.3-0.1-93.3-0.1s0.3-3.4,8.2-8.2
				c8.6-5.2,55.1-17.1,55.1-17.1l0.4-4.7L1253,1810.3z"/>
		</defs>
		<clipPath id="SVGID_26_">
			<use xlink:href="#SVGID_25_"  style="overflow:visible;"/>
		</clipPath>
		<g class="st51">
			<path class="st52" d="M1231,1840c-1-11.8,8.2-20.7,22-16.1"/>
			<path class="st52" d="M1218.8,1810.1c0.6,0.5,5.8,7.2,5.8,7.2"/>
			<line class="st52" x1="1208.5" y1="1813.2" x2="1213.7" y2="1818.4"/>
			<path class="st52" d="M1200.2,1815.1c0,0,4.6,1,6.7,7.5"/>
			<path class="st52" d="M1187.7,1817.6c0.8,0.5,10.4,3.4,7,22.6"/>
		</g>
	</g>
	<g>
		<defs>
			<path id="SVGID_27_" d="M1346.4,1778c0,0,9.6,16.4,12.3,20.9c2.6,4.5,5.9,9.9,1.2,14.6c-4.7,4.7-20.1,19.6-22.3,21.2
				c-2.2,1.6-3.2,2.6-7.8,2.5c-4.7-0.1-41.7,0-43.2-0.1c-1.4-0.1-2-2.5,0.6-4.1c2.6-1.6,29-17.6,33-21s8.9-8.9,3-17.9
				C1328,1792.5,1336.4,1792,1346.4,1778z"/>
		</defs>
		<clipPath id="SVGID_28_">
			<use xlink:href="#SVGID_27_"  style="overflow:visible;"/>
		</clipPath>
		<g class="st53">
			<path class="st52" d="M1357.1,1792.4c-3.5,4.7-8.6,11.3-1.2,28.6"/>
			<path class="st52" d="M1315,1812.7c3.8,2.3,16.3,7.7,15.9,31.7"/>
			<path class="st52" d="M1320.3,1807.6c3.7,2,7.2,4.4,9.8,6.9"/>
			<path class="st52" d="M1323.3,1802.8c0.3,0.1,7.6-0.3,11.5,2.4"/>
			<path class="st52" d="M1322.9,1798.4c0.3,0.1,8.2,0.2,12.1-1.4"/>
		</g>
	</g>
	<path class="st54" d="M1093.9,1132.2l-8.8,0.2c0,0,1.2,4.4,1.5,4.4c0.3,0,7.9,1,7.9,1L1093.9,1132.2z"/>
	<linearGradient id="SVGID_29_" gradientUnits="userSpaceOnUse" x1="1218.0454" y1="1207.1874" x2="1291.6487" y2="1207.1874">
		<stop  offset="0" style="stop-color:#FF9DA0"/>
		<stop  offset="1" style="stop-color:#FF5665"/>
	</linearGradient>
	<path class="st55" d="M1291.6,1224.8c-7.9-22.6-15.2-46.2-16.9-57.1c-17.6-1.3-35.6,44.6-36,53.2c-1.3,0.9-15.7,12.9-20.7,25.8
		c-0.8,2,19.8-15.1,19.5-12.6C1246.8,1234.5,1291.6,1224.8,1291.6,1224.8z"/>
	<linearGradient id="SVGID_30_" gradientUnits="userSpaceOnUse" x1="1080.3641" y1="1148.1473" x2="1098.0103" y2="1148.1473">
		<stop  offset="0" style="stop-color:#FF9DA0"/>
		<stop  offset="1" style="stop-color:#FF5665"/>
	</linearGradient>
	<path class="st56" d="M1082.3,1142.6c-1.5,1.7-3,3.6-1,6.1s7.1,5.8,16.7,5c0.4-3.9-3.9-8.9-3.9-8.9L1082.3,1142.6z"/>
	<linearGradient id="SVGID_31_" gradientUnits="userSpaceOnUse" x1="1079.4891" y1="1142.2979" x2="1095.9012" y2="1142.2979">
		<stop  offset="0" style="stop-color:#FF9DA0"/>
		<stop  offset="1" style="stop-color:#FF5665"/>
	</linearGradient>
	<path class="st57" d="M1082,1136.4c-1.6,0.9-2.8,1.8-2.5,4.9c0.3,3.1,5.8,5.6,9.3,6.4s7,0.1,7,0.1l-0.1-7.5L1082,1136.4z"/>
	<linearGradient id="SVGID_32_" gradientUnits="userSpaceOnUse" x1="1078.4799" y1="1133.4756" x2="1096.3969" y2="1133.4756">
		<stop  offset="0" style="stop-color:#FF9DA0"/>
		<stop  offset="1" style="stop-color:#FF5665"/>
	</linearGradient>
	<path class="st58" d="M1096,1124.8c-4.3-0.9-14.4,4.8-15.8,5.8c-1.4,1-2.3,2.8-1.4,4.8c1.1,2.4,7,6.2,14.3,6.8
		c-0.3-2.4-1.7-6.9-1.7-6.9s-1.7-0.9-2.9-1.3c-1.3-0.4,5.3-0.5,7.9-1C1096.4,1131.9,1096,1124.8,1096,1124.8z"/>
	<linearGradient id="SVGID_33_" gradientUnits="userSpaceOnUse" x1="1082.2726" y1="1166.9479" x2="1145.9556" y2="1166.9479">
		<stop  offset="0" style="stop-color:#FF9DA0"/>
		<stop  offset="1" style="stop-color:#FF5665"/>
	</linearGradient>
	<path class="st59" d="M1146,1231.1c0,0-21.6-65.4-26.3-79.3c-5.1-15.1-19.3-37.5-30.8-54.6c-1.2-1.8-4.1-0.4-3.3,1.7
		c4.4,11.8,9,24.5,10,27.6c-2.8-2.9-6.2-5.4-8.5-7c-1.6-1-3.7-0.5-4.5,1.2l0,0c-0.6,1.2-0.3,2.7,0.7,3.6c2.3,2.1,6.1,5.9,6.7,8.3
		c0.9,3.3,2.3,20.7,9.2,27.1c0.8,0.7,1.3,1.7,1.5,2.7c2.7,15.4,12.9,75.2,12.9,75.2L1146,1231.1z"/>
	<path class="st60" d="M1305,1233.8c-4.2-10.5-9.8-18.6-19.9-18.8c-10.2-0.2-36.8,5.7-55.8,21.3c-19,15.5-40.6,30.9-43.5,44.3
		s-1.9,22,4,30.1c-4,18.6-11.3,62.1-11.5,76.6c-0.2,12.2,6.1,98.2,8.2,125.9c0.4,4.9,4.4,8.6,9.2,8.7c21.8,0.2,79.6-0.6,110.4-12.7
		c-1.8-24.5-14.3-72.3-11.5-111.9S1319.9,1270.6,1305,1233.8z"/>
	<linearGradient id="SVGID_34_" gradientUnits="userSpaceOnUse" x1="1083.3317" y1="1204.8186" x2="1209.0468" y2="1259.5651">
		<stop  offset="0" style="stop-color:#FFFFFF"/>
		<stop  offset="1" style="stop-color:#E6E7FF"/>
	</linearGradient>
	<path class="st61" d="M1241.1,1211.5c-11.6,2.4-18.8,4.1-34.4,13c-15.6,8.9-32.2,20.6-54.9,22.2c-5.2-17.5-22.2-65.6-24.8-73.5
		c-6.2-3.1-19.8,0.4-23.1,7.6c0.3,2.3,11.5,76.2,17.3,90.3s8.6,18.8,19.9,18.6c11.3-0.2,34.5-4.2,48.7-7.5
		C1203.6,1272.7,1241.1,1211.5,1241.1,1211.5z"/>
	<path class="st60" d="M1191.4,1306.4c0,0-5.6-2.1-10.7,2.3s-14.4,12.5-12.5,25.5c12.5-5.4,30.7-19,30.7-19L1191.4,1306.4z"/>
	<path class="st60" d="M1189.8,1310.6c0,0-8.6,63.6-9.6,109.8c-0.9,40.7,1.1,73.2,1.5,92c0.1,3.8-3.8,6.5-7.4,5
		c-7.5-3.2-9.6-8.8-9.6-8.8S1171.1,1401.6,1189.8,1310.6z"/>
	<path class="st62" d="M1242.2,1220.1c-3.3,2.6-12.5,10-19.3,22.1c-3.1,3.4-30.1,29.1-30.1,29.1l0.4-7.4c0,0,6-20.4,21.5-32.2
		s27.8-18.4,27.8-18.4L1242.2,1220.1z"/>
	<path class="st60" d="M1243.4,1205.2c-5.3,4.1-17.7,12.3-24.8,20.3c-2.8,1.4-18.6,8.8-18.6,8.8s-13.5,33.2-15.6,54.6
		c2.2-11.2,16.8-35.2,26.1-45.3c9.3-10.1,33.4-27.2,33.4-27.2L1243.4,1205.2z"/>
	<path class="st60" d="M1239.8,1207.5c0,0-20.8,8.9-26.2,20.2c0.6-0.5,4.9-2.3,4.9-2.3L1239.8,1207.5z"/>
	<linearGradient id="SVGID_35_" gradientUnits="userSpaceOnUse" x1="1211.3204" y1="1192.7288" x2="1286.4009" y2="1192.7288">
		<stop  offset="0" style="stop-color:#FF9DA0"/>
		<stop  offset="1" style="stop-color:#FF5665"/>
	</linearGradient>
	<path class="st63" d="M1286.4,1206.2c-5.2-17.7-8.5-36.1-9.8-44.3c-16-1.2-57.1-0.2-65.2,8.4c5.1,5.2,20.9,7.1,28.1,23.3
		c3.9,8.8,2.8,26.7,2.6,28.9c2.8,0.2,10.9,3.9,15.9-1.1C1267.5,1211.8,1287.5,1210,1286.4,1206.2z"/>
	<path class="st60" d="M1287.6,1204.5c0,0-27.7,6-50.4,25.5c-20.8,17.9-45.2,30.7-51.4,50.5c24-24.3,40-26.3,40-26.3l2.3-14
		l5.7,11.1c0,0,32.8-30.5,58.1-34.9C1289.8,1207.4,1287.6,1204.5,1287.6,1204.5z"/>
	<path class="st20" d="M1253.2,1101.3c-10.3,5.5-18.8,11.5-26.8,26.2c-8.8,9.5-15.7,16.9-15.7,16.9s1.3,4.1,5.8,6.8
		c-3.5,7.2-5.1,11.1-5.9,13.5s-1.1,5.3,3.2,6.8c4.3,1.5,21.4,2.9,24.7,2.2c3.3-0.8,5-3.7,6.3-3.6c1.2,0.1,2.9,3.4,6.5,3.3
		c3.6-0.1,6.9-7.2,7.2-8.4C1258.8,1163.8,1253.2,1101.3,1253.2,1101.3z"/>
	<path class="st11" d="M1241.1,1144.6c1.3-9,5.3-16.1,4.4-20.1c-0.9-3.9-4.3-8.8-3.1-13.6c1.2-4.8,10.9-14.3,25.5-13.3
		c14.6,0.9,28.2,9.4,34.7,19.7c6.5,10.3,7.7,13.9,10,17.1s7.4,11,6,16.2c-1.4,5.2-8.5,14.4-7.4,17.9c1,3.5,7.5,13.2,3.8,20.5
		s-13.8,10.9-19.5,11.4c-5.7,0.5-8.2-0.6-9.1-2.4s-2.4-1.2-3-0.5c-0.6,0.7-5.6,1.4-7.4-2.1c-1.9-3.5-1.4-8.2-2.3-9.3
		s-4.8,1.3-6.4-0.7c-1.6-2-2-9.4-3.7-12.2c-1.7-2.8-4.2-6.4-10.8-9.6C1246.3,1160.4,1238.9,1159.5,1241.1,1144.6z"/>
	<path class="st11" d="M1324.2,1161.9c-4.3,1.6-15.1,1.3-21.5-9.3c-6.4-10.6,10.1-20.2,13.9-21.4c3.8-1.2,11.5-1.6,12,13.1
		C1336.5,1146.4,1337.5,1157,1324.2,1161.9z"/>
	<g>
		<path d="M1329.3,1145c-2,1.8-4,3.6-5.9,5.4c-0.9,0.9-1.9,1.9-2.7,2.9c-0.4,0.5-0.7,1.1-0.5,1.7c0.1,0.6,0.6,1.1,1,1.6
			c0,0,0,0.1,0,0.1c0,0-0.1,0-0.1,0c-0.5-0.5-1-1-1.2-1.7c-0.1-0.4-0.1-0.7,0-1.1c0.1-0.4,0.3-0.7,0.4-1c0.8-1.2,1.6-2.2,2.4-3.3
			c1.7-2.1,3.5-4.1,5.3-6.1c0.3-0.4,0.9-0.4,1.3-0.1C1329.7,1144,1329.7,1144.6,1329.3,1145C1329.4,1145,1329.3,1145,1329.3,1145
			L1329.3,1145z"/>
	</g>
	<path class="st64" d="M1261.3,1308.5c-3.3,50.3-11.5,125.5,13.8,208.4"/>
	<linearGradient id="SVGID_36_" gradientUnits="userSpaceOnUse" x1="1176.4882" y1="1355.2799" x2="1278.6282" y2="1263.0712">
		<stop  offset="0" style="stop-color:#FFFFFF"/>
		<stop  offset="1" style="stop-color:#E6E7FF"/>
	</linearGradient>
	<path class="st65" d="M1227.8,1266.3c9.2-14,33.7-41.8,58.1-27.8c24.3,14,15.9,50.8-4.6,69c-20.5,18.2-48.3,43.3-56.9,50.8
		c-8.6,7.5-19,12.3-24,11.9c-5-0.4-8.6-2.1-13.2-2.9s-17.2-3.3-22.6-13.2c-5.4-10,4.4-34.7,25.5-42c5.6-6.9,15.3-12.5,19.4-17.8
		C1213.4,1288.9,1223.4,1273,1227.8,1266.3z"/>
	<g>
		<path class="st66" d="M1286.4,1200.6c-8.4,4.5-37.9,16.6-61.8,47.2"/>
		<path class="st66" d="M1201.5,1268.6c4.6-11.4,15.6-23.2,22.6-20.8c6.8,2.3-1.9,19.9-5.5,25.3"/>
		<path class="st67" d="M1202.2,1266.5c0,0-1.4,3.4-4.6,12.8"/>
		<path class="st67" d="M1220.6,1269.9c0,0-2.7,5.2-8.5,12"/>
		<path class="st68" d="M1214.5,1279c0,0-10.5,12.7-16,23.5c-5.5,10.8-16.3,33-23.4,21"/>
		<path class="st68" d="M1198.3,1277c-1.6,4.9-9.7,21.4-14,31.3s-12.3,26.1,7.8,18.1"/>
		
			<ellipse transform="matrix(0.8806 -0.4738 0.4738 0.8806 -486.5827 714.723)" class="st11" cx="1175.2" cy="1323.1" rx="2.2" ry="1.6"/>
		
			<ellipse transform="matrix(0.9109 -0.4126 0.4126 0.9109 -441.0871 610.0848)" class="st11" cx="1192.4" cy="1326.6" rx="1.6" ry="2.5"/>
		<path class="st11" d="M1177.1,1322.1c-0.3-0.5-0.9-1.3-1.4-2.1c-0.5-0.8-1.6-1.1-2.4-0.5l-0.6,0.4c-0.8,0.5-1.1,1.5-0.6,2.4l1.1,2
			L1177.1,1322.1z"/>
		<path class="st11" d="M1191.3,1324.3l4.3-1.5c1.1-0.4,2.4,0.2,2.8,1.4l0.2,0.6c0.4,1.2-0.2,2.4-1.4,2.8l-3.8,1.3L1191.3,1324.3z"
			/>
	</g>
</g>
<g>
	<g>
		<path class="st27" d="M1551.3,385.6c0,0-31.3,6.7-31,17.2s29.7,19.4,29.7,19.4L1551.3,385.6z"/>
		<linearGradient id="SVGID_37_" gradientUnits="userSpaceOnUse" x1="1546.786" y1="402.7006" x2="1648.6932" y2="402.7006">
			<stop  offset="0" style="stop-color:#FF7500"/>
			<stop  offset="1" style="stop-color:#FFAB00"/>
		</linearGradient>
		<path class="st69" d="M1551.3,385.6l2.6-65c0.1-1.6,1.3-2.9,2.9-3.1c6.4-0.7,23.3-1.3,42.5,8.3c1,0.5,1.4,1.8,0.8,2.7
			c-6.3,11.1-12.9,22.5-11.6,22c1.2-0.5,16.3-10,22.5-15c1.1-0.9,2.8-0.9,3.9,0c7.9,6.4,20.7,19.2,28.6,40c0.7,1.7-0.1,3.7-1.8,4.5
			c-6.8,3.3-20.8,10.5-28.2,14.4c-1,0.5-0.5,2,0.6,1.8l31.1-4.1c1.7-0.2,3.2,1,3.4,2.8c0.4,5.6,0.6,17.8-3.4,31.3
			c-0.5,1.7-2.4,2.6-4.1,1.9c-8.1-3.6-20.6-8.7-28.6-12c-1.5-0.6-2.7,1.3-1.5,2.4l25.5,22.5c1.1,1,1.4,2.6,0.8,3.9
			c-2.8,5.9-12.4,22-37.3,35.1c-1.7,0.9-3.7,0.4-4.8-1.2c-4.6-6.7-9.2-13-12.5-17.5c-1-1.4-3.2-0.3-2.7,1.3l5.6,20.4
			c0.2,0.9-0.4,1.8-1.3,1.9l0,0l-10.6-16.7c-1-1.6-3.5-0.6-3.1,1.3l3.4,15.1c0.4,1.7-0.8,3.2-2.5,3.4c-4.1,0.3-11.9,0.5-21.1-0.8
			c-2.1-0.3-3.6-2.1-3.5-4.2C1547.9,462.6,1551.3,385.6,1551.3,385.6z"/>
		<g>
			<defs>
				<path id="SVGID_38_" d="M1551.3,385.6l2.6-65c0.1-1.6,1.3-2.9,2.9-3.1c6.4-0.7,23.3-1.3,42.5,8.3c1,0.5,1.4,1.8,0.8,2.7
					c-6.3,11.1-12.9,22.5-11.6,22c1.2-0.5,16.3-10,22.5-15c1.1-0.9,2.8-0.9,3.9,0c7.9,6.4,20.7,19.2,28.6,40
					c0.7,1.7-0.1,3.7-1.8,4.5c-6.8,3.3-20.8,10.5-28.2,14.4c-1,0.5-0.5,2,0.6,1.8l31.1-4.1c1.7-0.2,3.2,1,3.4,2.8
					c0.4,5.6,0.6,17.8-3.4,31.3c-0.5,1.7-2.4,2.6-4.1,1.9c-8.1-3.6-20.6-8.7-28.6-12c-1.5-0.6-2.7,1.3-1.5,2.4l25.5,22.5
					c1.1,1,1.4,2.6,0.8,3.9c-2.8,5.9-12.4,22-37.3,35.1c-1.7,0.9-3.7,0.4-4.8-1.2c-4.6-6.7-9.2-13-12.5-17.5c-1-1.4-3.2-0.3-2.7,1.3
					l5.6,20.4c0.2,0.9-0.4,1.8-1.3,1.9l0,0l-10.6-16.7c-1-1.6-3.5-0.6-3.1,1.3l3.4,15.1c0.4,1.7-0.8,3.2-2.5,3.4
					c-4.1,0.3-11.9,0.5-21.1-0.8c-2.1-0.3-3.6-2.1-3.5-4.2C1547.9,462.6,1551.3,385.6,1551.3,385.6z"/>
			</defs>
			<clipPath id="SVGID_39_">
				<use xlink:href="#SVGID_38_"  style="overflow:visible;"/>
			</clipPath>
			<g class="st70">
				<line class="st71" x1="1583.4" y1="311.8" x2="1546.3" y2="400.4"/>
				<path class="st71" d="M1639.9,354.4c0,0-51,21.6-99.9,52.2"/>
				<path class="st71" d="M1652.6,419.3c0,0-47-12.3-112.4-16.6"/>
				<path class="st71" d="M1629.9,461.9c-11.4-7.8-43.9-30-85.9-54.4"/>
				<path class="st71" d="M1548,408.8c0,0,12.8,41.4,11.8,87.6"/>
			</g>
		</g>
	</g>
	<path class="st72" d="M1527.1,402.5c-17.9,0.8-63.9,2.3-122.2,39.9s-152.5,127.4-193.1,175.4"/>
</g>
<g>
	<g>
		<path class="st73" d="M1326.1,810.7c0,10.4-4.4,20-10.4,22.6c-1.2,0.5-2.5,0.7-3.8,0.5c-7.7-0.7-14.1-10.6-14.1-23.1
			s6.5-21.9,14.3-22.8c1.3-0.2,3.5-0.2,4.8,0.4C1322.7,791.1,1326.1,800.5,1326.1,810.7z"/>
		<ellipse class="st74" cx="1314.9" cy="810.7" rx="14.2" ry="22.6"/>
		<path class="st73" d="M1320.4,799.9l-4.1-0.3c-0.3,0-0.6,0.1-0.8,0.2c-1.3,0.9-5.3,4.2-5.3,11.5c0,7.4,4,10.1,5.2,10.8
			c0.2,0.1,0.4,0.2,0.6,0.2l3.2,0.1L1320.4,799.9z"/>
		<ellipse class="st74" cx="1327.3" cy="811.6" rx="10.3" ry="15.9"/>
		<path class="st75" d="M1337.6,811.6c0,8.8-3.9,15.7-9,15.7c-5.7,0-8.6-6.9-8.6-15.7s3.8-16.1,9.5-16
			C1334.7,795.7,1337.6,802.8,1337.6,811.6z"/>
		<path class="st73" d="M1337.3,811.5c0,8.1-3.6,14.6-8.3,14.5c-5.3,0-8-6.4-8-14.5s3.5-15,8.8-14.8
			C1334.6,796.8,1337.3,803.4,1337.3,811.5z"/>
		<path class="st74" d="M1335.7,811.5c0,6.4-2.9,11.5-6.6,11.5c-4.2,0-6.3-5.1-6.3-11.5c0-6.4,2.8-11.8,7-11.7
			C1333.5,799.9,1335.7,805.1,1335.7,811.5z"/>
		<ellipse class="st73" cx="1326.4" cy="811.1" rx="1" ry="1.7"/>
	</g>
	<g>
		<path class="st76" d="M1329,822c0,0,10.4,101.8,73.4,100.7c63.6-1.1,91.1-104.4,97.9-176.5"/>
		<path class="st23" d="M1564.4,575.3c0,0,30.3,24.5,20,48.3c-11.4,26.1-36.1,47.1-48.9,58.9"/>
		<path class="st77" d="M1536.7,681.6c0,0-15.8,10.9-18.8,33.6s-7.9,41.4-23.7,26.6s-18.8-58.2-20.7-82.9"/>
	</g>
</g>
<g>
	<g>
		<g>
			<path class="st22" d="M1317.9,792.3l24.5,3.3c0.6,0.1,1.2,0.3,1.7,0.6l0.2,0.1l21.9,15.2c2.1,1.5,2.6,4.4,1.2,6.5
				c-1.5,2.1-4.4,2.6-6.5,1.2l-22-15.1l1.9,0.8l-24-5.6c-1.9-0.4-3.1-2.4-2.7-4.3C1314.4,793.2,1316.1,792,1317.9,792.3z"/>
		</g>
		<g>
			<path class="st22" d="M1308.4,796.8l32.3,6.6c0.5,0.1,1,0.3,1.4,0.6l0.3,0.2l21.7,14.6c2.5,1.7,3.2,5.1,1.5,7.6
				c-1.7,2.5-5.1,3.2-7.6,1.5c-0.1-0.1-0.2-0.1-0.3-0.2l-20.9-15.8l1.6,0.7l-31.7-9c-1.8-0.5-2.9-2.5-2.4-4.3
				C1304.9,797.5,1306.6,796.5,1308.4,796.8z"/>
		</g>
		<g>
			<path class="st22" d="M1311.5,812.6l21.7,0.8c0.6,0,1.1,0.2,1.5,0.4l0.4,0.2l19.7,11c2.6,1.5,3.6,4.8,2.1,7.4
				c-1.5,2.6-4.8,3.6-7.4,2.1c-0.1,0-0.2-0.1-0.3-0.2l-19.1-12.2l1.9,0.6l-21.3-3.8c-1.8-0.3-2.9-2-2.6-3.8
				C1308.5,813.7,1309.9,812.6,1311.5,812.6z"/>
		</g>
		<g>
			<path class="st22" d="M1317.1,822.1l14.6,2.3c0.3,0.1,0.7,0.2,0.9,0.4l0.7,0.4l19.2,12.4c3,1.9,3.8,5.9,1.9,8.9
				c-1.9,3-5.9,3.8-8.9,1.9c-0.4-0.2-0.7-0.6-1.1-0.9l-16.2-16.2l1.6,0.8l-14.1-4.4c-1.5-0.5-2.4-2.1-1.9-3.6
				C1314.3,822.7,1315.7,821.9,1317.1,822.1z"/>
		</g>
	</g>
	<linearGradient id="SVGID_40_" gradientUnits="userSpaceOnUse" x1="1626.6732" y1="883.1798" x2="1351.1864" y2="746.3005">
		<stop  offset="0" style="stop-color:#FF9DA0"/>
		<stop  offset="0.8904" style="stop-color:#FF5665"/>
	</linearGradient>
	<path class="st78" d="M1557.3,793c9.1,9.9,62.4-16.8,99.2-13.9c-28.2,70-61.8,125.8-86.1,150.4c-11.1,11.2-13.8,26.4-69.2,4.8
		c-24.3-9.5-106.4-43.5-128.2-61.3c-10.1-1.3-25.5-15.1-30-30.5c-4.5-15.5-2.1-28.2,10.4-33.8c12.5-5.6,18,10.4,20,18
		c2.7,9.7,7.8,20.2,13.4,26.3c60.3,23.7,90.4,20.6,133.2,28.1C1524.4,866.3,1548.5,809.1,1557.3,793z"/>
	<linearGradient id="SVGID_41_" gradientUnits="userSpaceOnUse" x1="1591.8195" y1="829.6832" x2="1624.8829" y2="719.0485">
		<stop  offset="0" style="stop-color:#FFFFFF"/>
		<stop  offset="1" style="stop-color:#E6E7FF"/>
	</linearGradient>
	<path class="st79" d="M1545.2,813.8c0,0,34.4-97.1,79.9-103.8c52.3-7.7,50.6,61.1-1.5,140.8C1623.6,850.9,1569,836.2,1545.2,813.8z
		"/>
</g>
<ellipse transform="matrix(0.9999 -1.342700e-02 1.342700e-02 0.9999 -6.676 14.4855)" class="st26" cx="1075.4" cy="504.4" rx="42" ry="2.6"/>
<g>
	<path class="st27" d="M985.7,742.2c-13.6,15.8-27.3,31.5-41.2,47c-7,7.7-14,15.5-21.1,23.1c-3.6,3.8-7.2,7.6-10.8,11.3
		c-3.6,3.8-7.4,7.5-11.2,11.1c-15.2,14.4-31.2,27.6-45.1,42.8c-6.9,7.6-13.3,15.7-18.1,24.6c-2.4,4.5-4.3,9.2-5.5,14.1
		c-1.2,4.9-1.7,9.9-1.2,15l-2.8,0.3c-0.7-5.3-0.5-10.8,0.6-16c1.1-5.3,2.9-10.3,5.3-15.1c4.7-9.6,11.1-18.2,18-26.1
		c13.8-15.9,29.6-29.7,44.5-44.1c3.7-3.6,7.3-7.2,10.8-11.1c3.5-3.8,7-7.6,10.5-11.5c7-7.7,13.9-15.4,20.7-23.2
		c13.7-15.6,27.3-31.4,40.7-47.2L985.7,742.2z"/>
</g>
<g>
	<path class="st27" d="M1007.4,874.7c2.7,7.2,4.7,14.5,6.3,21.8c1.6,7.4,2.7,14.8,3.5,22.3c0.8,7.5,1.2,15,1,22.6
		c-0.2,7.6-0.9,15.2-2.8,22.7c-0.5,1.9-1.1,3.7-1.7,5.6l-1,2.7c-0.3,0.9-0.7,1.8-1.1,2.7c-0.8,1.7-1.5,3.5-2.5,5.2l-1.3,2.5
		c-0.4,0.8-1,1.6-1.5,2.5c-3.9,6.5-8.6,12.6-13.7,18.1c-5.1,5.6-10.7,10.7-16.6,15.4c-1.5,1.2-2.9,2.3-4.5,3.5
		c-1.5,1.1-3,2.2-4.6,3.3c-1.5,1.1-3.1,2.1-4.7,3.2l-4.5,3.1c-11.8,8.6-22.1,19.3-31.4,30.7c-4.7,5.7-9.1,11.6-13.3,17.7
		c-4.3,6-8.1,12.3-12.3,18.6c-4.2,6.2-8.7,12.3-14,17.7c-5.3,5.4-11.3,10.2-17.8,14.1c-6.5,3.9-13.4,7.1-20.6,9.4
		c-3.5,1.3-7.2,2.1-10.8,3.1l-1.4,0.4c-0.5,0.1-0.9,0.2-1.4,0.3l-2.8,0.5l-5.5,1.1l-0.5-2.9l5.4-1.1l2.7-0.6
		c0.5-0.1,0.9-0.2,1.4-0.3l1.3-0.4c3.5-1,7.1-1.8,10.6-3.1c7-2.3,13.6-5.4,19.8-9.3c6.2-3.8,11.9-8.4,17-13.7
		c5.1-5.3,9.4-11.2,13.4-17.4c4-6.2,7.9-12.6,12.2-18.7c4.2-6.2,8.6-12.2,13.3-18.1c9.4-11.6,19.8-22.7,32-31.7l4.7-3.2
		c1.5-1,3.1-2,4.5-3.1c1.5-1.1,3-2.1,4.4-3.3c1.5-1.1,2.9-2.2,4.3-3.4c5.7-4.6,11.1-9.6,16-15c4.9-5.4,9.3-11.2,13-17.5
		c0.5-0.8,0.9-1.5,1.4-2.3l1.3-2.4c0.9-1.6,1.5-3.3,2.3-4.9c0.4-0.8,0.7-1.7,1-2.5l1-2.5c0.5-1.7,1-3.4,1.5-5.1
		c1.7-7,2.3-14.3,2.4-21.5c0.1-7.3-0.3-14.6-1.2-21.9c-0.8-7.3-2-14.5-3.6-21.7c-1.6-7.1-3.6-14.2-6.2-20.9L1007.4,874.7z"/>
</g>
<path class="st26" d="M653.7,1001c6.2-20.7,10.2-37.9,30.7-49.8s86.8-47.3,105.6-57s43.8-24.3,39.6,5.5c11.5,4.7,20.4,14,6.8,33.2
	c10.6,6,24.3,18.7,6,48.1c14,8.1,25.5,25.1,5.1,53.2c12.8,7.7,18.3,20.9,1.7,42.6c10.6,8.1,20,28.1-6,50.2
	c5.1,8.5-3.8,39.2-28.9,27.7c-2.1,14.9-16.2,35.8-35.8,24.3c0,16.2-12.8,33.2-29.8,20.9c-0.9,11.9-12.8,26-26.4,16.6
	c-5.5,7.7-20.9,13.6-27.2,9.4s-7.7-8.1-19.6-3.8c-11.9,4.3-27.2,17.5-34.9,2.6C632.8,1209.6,620.1,1113.8,653.7,1001z"/>
<g>
	<path class="st80" d="M1067.7,579.8c4-45,24-243,147-401"/>
	<path class="st26" d="M1211.7,181.8c39,24,101,3,116-35s14-97,15-124c-37-2-105,6-134,38C1177.7,95.1,1176.7,160.3,1211.7,181.8z"
		/>
	<g>
		<defs>
			<path id="SVGID_42_" d="M1211.7,181.8c39,24,101,3,116-35s14-97,15-124c-37-2-105,6-134,38
				C1177.7,95.1,1176.7,160.3,1211.7,181.8z"/>
		</defs>
		<clipPath id="SVGID_43_">
			<use xlink:href="#SVGID_42_"  style="overflow:visible;"/>
		</clipPath>
		<g class="st81">
			<path class="st82" d="M1351.9,22.3c-8.1,3.7-16.4,7.2-24.4,10.9c-8.1,3.8-16,7.8-23.5,12.4c-7.5,4.6-14.7,9.8-21.1,15.7
				c-6.4,6-12,12.7-16.3,20.2c-2.1,3.7-4.1,7.6-5.6,11.6c-1.5,4.1-3.1,8.3-4.5,12.5l-8.8,25.3c-3,8.5-6.3,17-10.7,25.2
				c-4.4,8.2-9.6,15.8-15.2,23l-8.1-6.6c5.7-6.6,10.9-13.5,15.3-20.9c4.4-7.4,7.9-15.3,11.2-23.6l9.9-24.9c1.7-4.2,3.4-8.3,5.2-12.4
				c1.8-4.3,4.1-8.3,6.5-12.2c4.9-7.8,11.2-14.6,18.1-20.6c6.9-5.9,14.6-10.9,22.4-15.3c7.9-4.3,16.1-8,24.4-11.5
				c8.3-3.4,16.6-6.5,24.9-9.9L1351.9,22.3z"/>
		</g>
	</g>
	<path class="st27" d="M1295.7,190.8c-20,12-60.2,11.1-85.5-8.5c-25.3-19.6-37.5-60.5-25.5-104.5c19,19,43,32,37,90
		C1266.7,156.8,1295.7,190.8,1295.7,190.8z"/>
</g>
<g>
	<g>
		<path class="st26" d="M1129.6,450.4c1.7,8-16.7,21.2-54.2,6.1C1087.2,440.1,1126.8,436.7,1129.6,450.4z"/>
		<path class="st26" d="M1074.3,455c-5.7,6.9-18,16.6-30.9,16.4s-19.6-11.7-10.1-16.8C1042.8,449.6,1065,450.4,1074.3,455z"/>
		<path class="st26" d="M1077,432.2c8.2-8.8,28.2-19.8,41.2-20.5c13-0.7,11.4,9.5,2.2,15C1107.4,434.4,1083.3,435.2,1077,432.2z"/>
		<path class="st26" d="M1073,432.2c0,0-3.6-10.7-14.7-15.5s-31.9-1.1-32,10.9C1026.2,439.6,1052.3,437.3,1073,432.2z"/>
		<path class="st26" d="M1076.4,399.2c8.3-6.6,24.2-16.7,35.7-15.4s8.8,12.2-1.6,17.2C1100.1,406,1081.8,402,1076.4,399.2z"/>
		<path class="st26" d="M1031.6,393.9c-1.5-7.7,14.4-10.6,23.5-6.6c9.7,4.3,13.3,7.8,18.6,12.4
			C1063.8,407.5,1035.5,413.9,1031.6,393.9z"/>
		<path class="st26" d="M1098.2,354.1c12.8-6.3,27-2.4,20.3,5.5c-6.2,7.3-17,15.8-39.3,8.7C1086.5,362.5,1087.3,359.5,1098.2,354.1z
			"/>
		<path class="st26" d="M1029.7,353.1c0.3-6.6,17.4-15.3,29.7-6.7c12.4,8.6,17.6,20.3,17.6,20.3s-14.5,1.9-27.9-1.1
			C1035.7,362.7,1029.4,359.8,1029.7,353.1z"/>
		<path class="st26" d="M1045.7,311.8c5.4-6.2,19-2.2,24,4.2c5,6.4,11.6,22.7,11.6,22.7s-18.1-1.7-27.2-7.2
			C1044.9,326,1041.1,317,1045.7,311.8z"/>
		<path class="st26" d="M1118.8,318.6c4,6.4-3.5,18.7-11.9,21.3c-8.3,2.6-24.4-0.6-24.4-0.6s7-14.3,16.1-19
			C1107.6,315.5,1115.8,313.8,1118.8,318.6z"/>
		<path class="st26" d="M1053.2,277.9c4.6-5.2,14.1-2.4,20.7,6c6.6,8.3,13.6,20.3,13.6,20.3s-14.7-0.4-25.1-6.5
			C1052.1,291.6,1048.6,283.2,1053.2,277.9z"/>
		<path class="st26" d="M1118.9,287.5c3.3,5.4-2,16.7-11.5,17.8c-9.5,1.1-19.9-1-19.9-1s4.5-11.5,12.7-17.2
			C1108.5,281.3,1116.3,283.1,1118.9,287.5z"/>
		<path class="st26" d="M1062.4,242c3.5-4.5,12.6-1.2,18.6,8.4s10.5,20.4,10.5,20.4s-14.6-1.3-23.8-9.9
			C1058.1,252,1060.8,244.1,1062.4,242z"/>
		<path class="st26" d="M1121.8,255.7c2.6,5.7-3.3,13-11,14.3c-7.7,1.3-15.1,0-18.1,2.3c4-7.1,7.6-15.6,14.4-20.1
			C1113.8,247.7,1119.7,251,1121.8,255.7z"/>
		<path class="st26" d="M1069.4,201.4c3.4-3.7,15.3,2.3,20.1,11.3c4.7,9,8.1,29.5,8.1,29.5s-23.7-21.9-27-28.1
			C1067.3,207.9,1066.8,204.3,1069.4,201.4z"/>
		<path class="st26" d="M1100,240.2c0,0,6.5-9.9,13.2-13.6c6.7-3.7,13.1-1.6,14.1,1.7c1,3.2-5.3,7.4-12.7,9.2
			C1107.2,239.3,1100,240.2,1100,240.2z"/>
		<path class="st26" d="M1103.2,209c0,0-1.7-10.7,0.1-16c3.4-9.8,13.3-7.3,11.3,2.2C1112.6,204.8,1103.2,209,1103.2,209z"/>
	</g>
	<path class="st83" d="M1078.5,507l-0.1,4.1c0,2.7-2.3,4.9-5,4.9c-2.7,0-4.9-2.3-4.9-5v0c0-1.3,0-2.6,0-4
		C1071.8,507.1,1075.2,507,1078.5,507z"/>
	<path class="st26" d="M1104.7,207L1104.7,207c-1.4,6.3-2.8,12.5-4.2,18.7c-0.7,3.1-1.2,6.3-1.8,9.4l-1.8,9.4
		c-0.3,1.6-0.6,3.1-0.9,4.7l-0.7,4.7l-1.5,9.4c-0.5,3.2-1.1,6.3-1.4,9.4l-1.2,9.5l-1.3,9.5c-0.4,3.2-0.7,6.3-1.1,9.5l-1.1,9.5
		l-0.6,4.7c-0.2,1.6-0.3,3.2-0.5,4.8l-1.8,19l-1.5,19.1c-0.9,12.7-1.6,25.4-2.2,38.2l-0.5,9.5l-0.4,9.5l-0.4,9.6l-0.3,9.5l-0.3,9.6
		l-0.2,9.6l-0.4,19.1l-0.4,34.2c-3.3,0-6.6,0-9.9,0c0.3-24.2,0.8-48.5,1.9-72.8l0.4-9.6l0.5-9.6l0.5-9.6l0.6-9.6
		c0.9-12.8,2-25.5,3.2-38.3c2.4-25.5,5.6-51,10-76.2l1.7-9.5c0.3-1.6,0.6-3.1,0.9-4.7l1-4.7l2-9.4l1-4.7c0.4-1.6,0.8-3.1,1.2-4.7
		c1.6-6.2,3-12.4,4.8-18.6c1.9-6.1,3.7-12.2,5.7-18.3c0.1-0.2,0.2-0.3,0.4-0.2C1104.6,206.7,1104.7,206.8,1104.7,207z"/>
</g>
<g>
	<path class="st2" d="M359.9,647.8c2.3,2,4.5,3.6,6.7,5.1c1.2,0.7,2.3,1.4,3.5,2.1c1.1,0.7,2.4,1.4,3.5,2.1
		c4.7,2.8,9.6,5.9,14.2,10.4c2.3,2.3,4.5,5.1,6.1,8.8c0.4,1,0.7,1.9,1,2.9c0.1,0.8,0.3,1.5,0.4,2.3c0.2,1.5,0.4,3.1,0.4,4.7
		c0.1,3.2-0.3,6.6-1.5,9.7c-1.1,3.2-3.1,6-5.7,8l-0.5-0.2c-0.6-3.3-1.1-5.9-1.9-8.4c-0.7-2.4-1.6-4.7-2.5-7
		c-0.4-1.2-0.9-2.3-1.3-3.5c-0.2-0.6-0.4-1.2-0.7-1.8c-0.2-0.4-0.4-0.7-0.5-1.1c-0.8-1.5-2-3.2-3.5-5c-3.1-3.6-7.1-7.5-10.8-12.2
		c-1.8-2.3-3.6-4.8-5-7.7c-1.4-2.8-2.4-5.9-2.4-9.1L359.9,647.8z"/>
</g>
<path class="st2" d="M2024.7,1082.8c9,7,51,38,79,37s41-12,47-19C2134.7,1086.8,2076.7,1039.8,2024.7,1082.8z"/>
<g>
	<path class="st84" d="M1065.3,555.7c-1.6-96.3-59.6-366.2-62.3-418"/>
	<line class="st85" x1="1026.7" y1="286.7" x2="1046.2" y2="235.7"/>
	<path class="st85" d="M1036.7,340.3c-6.1-30.4-16.7-41.7-50.8-73.8"/>
	<path class="st26" d="M948.8,251.9c0,0-13.9-1.9-21.8-0.7c-7.9,1.2-12.8,10.7-1.1,20.9c15.8,13.7,50.1,12.1,74.9,5.9
		c-0.2-16.9-4.8-33.6-18.2-51.5s-32.5-19.7-27.4,2.2c-10.1-7.8-17.2-7.1-20-1.5C931,235.9,935.9,243.7,948.8,251.9z"/>
	<path class="st27" d="M1063,191.3c0,0,9.8-22.5,23.2-12c13.4,10.6-8.8,27.3-8.8,27.3s14.3-8.2,20.8-0.4c6.4,7.7,0.9,23.2-13.6,28.3
		c-14.6,5.1-43.4,14.9-43.4,14.9s-6-20.1-6.2-37.8s8.8-45.4,23.1-40.7C1067.7,174.1,1063,191.3,1063,191.3z"/>
	<path class="st86" d="M1007.1,172.7c0,0,53.2-53.1,64.1-89.2s-9.1-44.9-13.2-45.8c-4.1-0.9-20.1-3-31.5,27
		c0.9-31.3-5.1-44-20.1-44.9S976.1,38.5,981.8,68c-14.1-30.7-30.2-52.5-48.4-46c-23.2,8.3-24.4,56.6,1.7,90.5
		C963.2,148.8,1007.1,172.7,1007.1,172.7z"/>
	<g>
		<defs>
			<path id="SVGID_44_" d="M948.8,251.9c0,0-13.9-1.9-21.8-0.7c-7.9,1.2-12.8,10.7-1.1,20.9c15.8,13.7,50.1,12.1,74.9,5.9
				c-0.2-16.9-4.8-33.6-18.2-51.5s-32.5-19.7-27.4,2.2c-10.1-7.8-17.2-7.1-20-1.5C931,235.9,935.9,243.7,948.8,251.9z"/>
		</defs>
		<clipPath id="SVGID_45_">
			<use xlink:href="#SVGID_44_"  style="overflow:visible;"/>
		</clipPath>
		<g class="st87">
			<path class="st88" d="M977.4,208.3c-0.9,11.4-1.1,24.6-3.1,29.6c-2,5.1-3.2,9.7-8.9,7.4c-5.7-2.3-8-0.3-6.1,4.2
				c1.9,4.4,6.9,13.8-0.6,16c-7.5,2.1-17.6,1.7-15.2,8.6c1.8,5.2,11.2,14.1,17.6,16.7"/>
			<path class="st88" d="M1001,246.5c-1.7,5.9-3,12.8-10.3,12.8c-7.3,0-11.1-1.6-12,2.5s5.3,8.8,4.4,12.8s-8.3,11.4-8.3,11.4"/>
		</g>
	</g>
	<g>
		<defs>
			<path id="SVGID_46_" d="M1063,191.3c0,0,9.8-22.5,23.2-12c13.4,10.6-8.8,27.3-8.8,27.3s14.3-8.2,20.8-0.4
				c6.4,7.7,0.9,23.2-13.6,28.3c-14.6,5.1-43.4,14.9-43.4,14.9s-6-20.1-6.2-37.8s8.8-45.4,23.1-40.7
				C1067.7,174.1,1063,191.3,1063,191.3z"/>
		</defs>
		<clipPath id="SVGID_47_">
			<use xlink:href="#SVGID_46_"  style="overflow:visible;"/>
		</clipPath>
		<g class="st89">
			<path class="st90" d="M1026.6,195.8c0.7,5.5,6.3,13.6,10.4,7.1s7.5-16.8,14.5-14c7,2.8,1,19.5,7,22.7c6.1,3.2,12.9-6.5,17-2
				c4,4.6-9.5,14.5-7.7,19c1.9,4.4,25.2-2.3,31,5.2"/>
			<path class="st90" d="M1026.3,218.4c-0.1,5.8,6,15.4,9.5,9.9c3.4-5.5,11.4-8.9,15.7-4.9c4.3,3.9-3.1,14.9,0.8,18
				c3.9,3.1,14.2-2.4,18.5,5.3"/>
		</g>
	</g>
	<g>
		<defs>
			<path id="SVGID_48_" d="M1007.1,172.7c0,0,53.2-53.1,64.1-89.2s-9.1-44.9-13.2-45.8c-4.1-0.9-20.1-3-31.5,27
				c0.9-31.3-5.1-44-20.1-44.9S976.1,38.5,981.8,68c-14.1-30.7-30.2-52.5-48.4-46c-23.2,8.3-24.4,56.6,1.7,90.5
				C963.2,148.8,1007.1,172.7,1007.1,172.7z"/>
		</defs>
		<clipPath id="SVGID_49_">
			<use xlink:href="#SVGID_48_"  style="overflow:visible;"/>
		</clipPath>
		<g class="st91">
			<path class="st92" d="M904.4,75.8c4,8.2,15.9,11.6,17.1,3.2s1.3-29.3,16.2-31c18.5-2.1,24.9,34.5,41.7,35.2
				c20.3,0.8,15.9-30.4,28.8-25.9c14.2,4.9-3.2,27.9,9.7,32.6c17.3,6.3,20.4-28.9,38.5-20.5c12.4,5.7-17.2,29.8,2.8,46"/>
			<path class="st92" d="M927.2,119.6c3.3,6.5,12.3,9.2,14.8-0.4s4-16.8,13.3-16.2c15.1,0.9,15.9,26.3,31,23.5
				c15.1-2.7,8.4-24.3,24.1-23.4c15.1,0.9,4.6,23.2,14.4,26.4c9.7,3.2,23.6-11.1,29.7-7.9"/>
			<path class="st92" d="M974,158.3c3.9,3.1,8.2,3.3,11.4-2.8c3.2-6.1,9.8-14.9,17.5-14.7c12.6,0.3,9.5,15.3,27.9,15.3"/>
		</g>
	</g>
</g>
<g>
	<path class="st93" d="M789.3,454.2c0,0,141.8,93.8,191.3,156.6"/>
	<polygon class="st26" points="791.9,448 718.7,336 654.9,481.7 784.1,460.2 	"/>
	
		<linearGradient id="SVGID_50_" gradientUnits="userSpaceOnUse" x1="422.6801" y1="458.5468" x2="502.5943" y2="562.2521" gradientTransform="matrix(0.8739 -0.486 0.486 0.8739 54.3663 196.1558)">
		<stop  offset="0.1878" style="stop-color:#EE3030"/>
		<stop  offset="0.6053" style="stop-color:#920809"/>
	</linearGradient>
	<path class="st94" d="M704.7,416.3c-17.5,41.1-41.2,70.4-53,65.4c-11.8-5-7.2-42.4,10.3-83.6c17.5-41.1,41.2-70.4,53-65.4
		C726.8,337.8,722.2,375.2,704.7,416.3z"/>
	<g>
		<defs>
			
				<ellipse id="SVGID_51_" transform="matrix(0.3914 -0.9202 0.9202 0.3914 41.0995 876.6713)" cx="683.3" cy="407.3" rx="80.9" ry="23.2"/>
		</defs>
		<clipPath id="SVGID_52_">
			<use xlink:href="#SVGID_51_"  style="overflow:visible;"/>
		</clipPath>
		
			<ellipse transform="matrix(0.4109 -0.9117 0.9117 0.4109 39.1992 881.114)" class="st95" cx="701.4" cy="410.2" rx="7.8" ry="18.9"/>
	</g>
	<path class="st27" d="M800.2,458.5c2.7-7-26.2-54.2-33.2-65.5c-0.6-0.9-2-0.7-2.2,0.4c-1.2,6-2.8,21.4,7.2,42.2
		c0.8,1.6-0.7,3.4-2.5,3c-16.2-3.9-31.6-5.6-32-1.5c-0.4,3.8,21.5,10.7,28.4,12.8c0.6,0.2,0.7,1.1,0,1.3
		c-6.2,2.3-25.3,9.5-30.9,12.1c-6.7,3.1-9.5,10.1-3.8,10.6C736.8,474.3,797.2,466.2,800.2,458.5z"/>
</g>
<g>
	<defs>
		<path id="SVGID_53_" d="M973.1,729.3c-6.3,3.4-19.3-8.7-29.1-27c-9.8-18.3-12.6-35.8-6.3-39.2l-54.1-166.4l15-154l476-56l42,306
			l-127,160l-242,30L973.1,729.3z"/>
	</defs>
	<clipPath id="SVGID_54_">
		<use xlink:href="#SVGID_53_"  style="overflow:visible;"/>
	</clipPath>
	<g class="st96">
		<g>
			<g>
				<path class="st86" d="M1026.5,711.4c-3.7,6.5-24.2,4.5-40.8-28.4C1003.6,678.8,1032.8,700.3,1026.5,711.4z"/>
				<path class="st86" d="M985.8,681.4c-8.1,1.3-22.3,0.6-31-7.3s-6.4-19.8,3.2-17.5C967.6,658.7,982.3,672.6,985.8,681.4z"/>
				<path class="st86" d="M1001.4,667.3c10.9-1.2,31.2,3.3,40.6,10.7c9.3,7.3,2.1,13.3-7.5,11.6
					C1020.9,687.2,1003.9,673.1,1001.4,667.3z"/>
				<path class="st86" d="M998.7,664.9c0,0,3.9-9.5-0.7-19.5s-21.3-19.9-28.5-11.8C962.1,641.9,981.4,656,998.7,664.9z"/>
				<path class="st86" d="M1020.8,644.3c9.7,0.5,26.7,3.1,33.7,10.9c7,7.8-1.3,13.6-11.4,10.8C1033,663.2,1022.9,649.6,1020.8,644.3
					z"/>
				<path class="st86" d="M993.3,613.8c3.6-6.2,16.2,1.4,20.1,9.6c4.1,8.8,4.5,13.4,5.3,19.7C1007.2,642.5,983.9,629.8,993.3,613.8z
					"/>
				<path class="st86" d="M1062.9,626.5c12.6,3.3,19.9,14.6,10.6,16c-8.6,1.3-21.2,0.6-32.2-17.7
					C1049.8,625.2,1052.2,623.6,1062.9,626.5z"/>
				<path class="st86" d="M1016.5,584.7c4.2-4.4,21.1-0.1,24.5,13.3c3.3,13.3-0.1,24.6-0.1,24.6s-11-7.4-18.5-17.5
					C1014.8,594.9,1012.3,589,1016.5,584.7z"/>
				<path class="st86" d="M1052.3,566c7.4-1,14.3,9.9,14,17.3c-0.4,7.4-5.7,22.6-5.7,22.6s-11.4-12-14.3-21.3
					C1043.3,575.2,1046,566.8,1052.3,566z"/>
				<path class="st86" d="M1098.4,614.6c-1.1,6.8-13.7,10.7-20.9,7.5c-7.3-3.2-16.4-15.1-16.4-15.1s13.4-5.6,22.5-3.4
					C1092.5,605.7,1099.2,609.5,1098.4,614.6z"/>
				<path class="st86" d="M1077.8,547.3c6.3-0.8,11.1,6.9,10.6,16.5c-0.5,9.7-2.9,22.1-2.9,22.1s-9.8-9.1-13.3-19.5
					C1068.8,556,1071.5,548.1,1077.8,547.3z"/>
				<path class="st86" d="M1117.2,593.3c-1,5.6-11.4,10.3-18.6,5.3c-7.2-4.9-13.1-12.7-13.1-12.7s10-5.2,19.1-4.2
					C1113.7,582.8,1118,588.8,1117.2,593.3z"/>
				<path class="st86" d="M1105.7,528.2c5.1-1,9.4,6.8,7.7,17s-5,20.3-5,20.3s-9.2-9.6-10.3-21.1
					C1096.8,532.4,1103.4,528.6,1105.7,528.2z"/>
				<path class="st86" d="M1138.2,573.2c-1.7,5.5-10.1,6.9-16.2,3.2s-10.4-9.1-13.8-9.3c7-2.5,14.6-6.1,22-5.2
					C1137.6,562.9,1139.6,568.7,1138.2,573.2z"/>
				<path class="st86" d="M1134.9,504.5c4.5-0.5,9.2,10.8,7,19.8s-12.1,25.1-12.1,25.1s-3.1-29.3-1.6-35.5
					C1129.6,507.7,1131.4,504.9,1134.9,504.5z"/>
				<path class="st86" d="M1132.5,549.5c0,0,10.4-2.9,17.2-1.4s9.9,6.8,8.6,9.6s-8.1,1.9-14.2-1.3
					C1138.1,553.2,1132.5,549.5,1132.5,549.5z"/>
				<path class="st86" d="M1153.5,530c0,0,5.3-8.4,9.7-10.9c8.2-4.7,13.6,3,6.4,8.3C1162.5,532.8,1153.5,530,1153.5,530z"/>
			</g>
			<path class="st83" d="M957.4,719.5l-2.5,2.8c-1.7,1.9-4.5,2-6.4,0.3c-1.9-1.7-2-4.5-0.3-6.4l0,0c0.8-0.9,1.6-1.8,2.4-2.7
				C952.9,715.6,955.2,717.6,957.4,719.5z"/>
			<path class="st86" d="M1155.7,529.5L1155.7,529.5c-4.7,3.5-9.4,6.9-14.1,10.3c-2.3,1.7-4.6,3.6-6.9,5.4l-6.9,5.4
				c-1.1,0.9-2.3,1.8-3.4,2.7l-3.3,2.8l-6.7,5.6c-2.2,1.9-4.5,3.7-6.7,5.6l-6.5,5.7l-6.6,5.7c-2.2,1.9-4.3,3.9-6.5,5.8l-6.4,5.9
				l-3.2,2.9c-1.1,1-2.1,2-3.2,3l-12.7,12l-12.4,12.2c-8.2,8.2-16.4,16.4-24.4,24.9l-6.1,6.3l-6,6.3l-6,6.3l-5.9,6.4l-5.9,6.4
				l-5.9,6.4l-11.7,12.9l-20.8,23.2c-2.3-1.9-4.6-3.9-6.8-5.9c14.7-16.4,29.7-32.8,45.1-48.7l6.1-6.3l6.1-6.3l6.1-6.3l6.2-6.2
				c8.3-8.2,16.7-16.3,25.2-24.3c17-16,34.4-31.6,52.7-46.3l6.8-5.5c1.1-0.9,2.3-1.8,3.5-2.7l3.5-2.6l7-5.2l3.5-2.6
				c1.2-0.9,2.4-1.7,3.6-2.5c4.8-3.3,9.6-6.7,14.5-9.9c5-3.1,9.9-6.2,14.9-9.2c0.1-0.1,0.3,0,0.4,0.1
				C1155.9,529.3,1155.9,529.4,1155.7,529.5z"/>
		</g>
		<g>
			
				<linearGradient id="SVGID_55_" gradientUnits="userSpaceOnUse" x1="155.9861" y1="518.1218" x2="321.8932" y2="733.4208" gradientTransform="matrix(-0.9694 -0.2454 -0.2454 0.9694 1478.6138 136.7627)">
				<stop  offset="0.1878" style="stop-color:#EE3030"/>
				<stop  offset="1" style="stop-color:#920809"/>
			</linearGradient>
			<path class="st97" d="M1229.7,645.1c-12.5-21-48-59.8-103-30.8c-55,29-170.9,115.2-170.9,115.2"/>
			
				<linearGradient id="SVGID_56_" gradientUnits="userSpaceOnUse" x1="325.4731" y1="461.1513" x2="459.1432" y2="634.6161" gradientTransform="matrix(-0.9694 -0.2454 -0.2454 0.9694 1478.6138 136.7627)">
				<stop  offset="0.1878" style="stop-color:#EE3030"/>
				<stop  offset="1" style="stop-color:#920809"/>
			</linearGradient>
			<path class="st98" d="M996.7,440.8c1,33.6-3.5,140.9-67.4,261.7"/>
			
				<linearGradient id="SVGID_57_" gradientUnits="userSpaceOnUse" x1="145.6653" y1="330.7672" x2="404.9737" y2="667.2739" gradientTransform="matrix(-0.9694 -0.2454 -0.2454 0.9694 1478.6138 136.7627)">
				<stop  offset="0.1878" style="stop-color:#EE3030"/>
				<stop  offset="1" style="stop-color:#920809"/>
			</linearGradient>
			<path class="st99" d="M1277.9,454.8c-26.8-25.8-71.3-52.6-135.3,12.2S942.1,708.1,942.1,708.1"/>
			
				<linearGradient id="SVGID_58_" gradientUnits="userSpaceOnUse" x1="-3921.7087" y1="-6151.7266" x2="-3873.2869" y2="-6088.8892" gradientTransform="matrix(0.766 -0.6428 -0.6428 -0.766 328.1267 -6735.3384)">
				<stop  offset="0" style="stop-color:#FF3700"/>
				<stop  offset="1" style="stop-color:#FFAB00"/>
			</linearGradient>
			<circle class="st100" cx="1276.5" cy="458.4" r="39.7"/>
			
				<linearGradient id="SVGID_59_" gradientUnits="userSpaceOnUse" x1="-3636.0374" y1="-6378.96" x2="-3593.665" y2="-6323.9731" gradientTransform="matrix(0.866 -0.5 -0.5 -0.866 947.3049 -6875.5)">
				<stop  offset="0" style="stop-color:#FF3700"/>
				<stop  offset="1" style="stop-color:#FFAB00"/>
			</linearGradient>
			<circle class="st101" cx="992.5" cy="432.5" r="34.7"/>
			
				<linearGradient id="SVGID_60_" gradientUnits="userSpaceOnUse" x1="-3310.5359" y1="-5937.9604" x2="-3272.7437" y2="-5888.917" gradientTransform="matrix(0.9848 -0.1736 -0.1736 -0.9848 3448.0112 -5732.8706)">
				<stop  offset="0" style="stop-color:#FF3700"/>
				<stop  offset="1" style="stop-color:#FFAB00"/>
			</linearGradient>
			<circle class="st102" cx="1233.2" cy="662.3" r="31"/>
		</g>
	</g>
</g>
<g>
	<path class="st103" d="M889.3,475.2c0,0,38.8,38,75.9,106.8"/>
	<g>
		
			<ellipse transform="matrix(0.8324 -0.5542 0.5542 0.8324 -101.9471 549.5087)" class="st26" cx="857.4" cy="443.3" rx="34.3" ry="47.8"/>
		<g>
			<defs>
				
					<ellipse id="SVGID_61_" transform="matrix(0.8324 -0.5542 0.5542 0.8324 -101.9471 549.5087)" cx="857.4" cy="443.3" rx="34.3" ry="47.8"/>
			</defs>
			<clipPath id="SVGID_62_">
				<use xlink:href="#SVGID_61_"  style="overflow:visible;"/>
			</clipPath>
			<g class="st104">
				<g>
					<path class="st27" d="M860.8,393.9c3.8,6.8,7.8,13.5,11.6,20.4c3.7,6.9,7.1,14.1,9.9,21.4c2.8,7.4,5.1,14.9,6.6,22.6
						c1.6,7.7,2.6,15.5,3.1,23.3l-0.3,0c-0.9-7.8-2.2-15.4-4.2-23c-1.9-7.5-4.5-14.9-7.5-22c-3.1-7.1-6.7-14-10.7-20.6
						c-4-6.7-8.3-13.1-12.5-19.8L860.8,393.9z"/>
				</g>
				<g>
					<path class="st27" d="M835.4,392.7c3.1,3.6,5.9,7.3,8.8,11c1.4,1.8,2.8,3.7,4.2,5.6c1.4,1.9,2.8,3.7,4.1,5.6
						c5.5,7.5,10.8,15.1,15.9,22.9c5.1,7.8,10,15.6,14.6,23.7c4.6,8.1,8.9,16.3,12.4,24.9l-0.3,0.1c-3.9-8.4-8.6-16.4-13.5-24.2
						c-5-7.8-10.2-15.4-15.6-22.9c-5.5-7.5-11.1-14.8-16.8-22c-1.4-1.8-2.9-3.6-4.4-5.4c-1.5-1.8-2.9-3.6-4.4-5.3
						c-3-3.5-6-7.1-9.1-10.3L835.4,392.7z"/>
				</g>
				<g>
					<path class="st27" d="M816.9,407c14.1,11.9,28,24.2,41.5,36.9c6.7,6.4,13.3,12.9,19.7,19.6c6.3,6.7,12.5,13.7,17.8,21.3
						l-0.3,0.2c-5.6-7.4-12-14-18.6-20.5c-6.6-6.4-13.4-12.6-20.4-18.7c-13.9-12.1-28.3-23.7-42.9-35L816.9,407z"/>
				</g>
				<g>
					<path class="st27" d="M897.2,482.1c-7.8-3.5-15.8-6.6-23.8-9.6c-8-3-16.1-5.9-24.2-8.7c-8.1-2.8-16.2-5.6-24.3-8.2
						c-8.1-2.7-16.3-5.2-24.5-7.6l1.4-4.5c8.2,2.8,16.2,5.7,24.3,8.7c8,3,16,6.1,24,9.3c8,3.2,15.9,6.4,23.8,9.7
						c7.9,3.4,15.8,6.7,23.5,10.6L897.2,482.1z"/>
				</g>
				<g>
					<path class="st27" d="M899.7,480.5c-13.5-0.7-27.1-1.3-40.6-1.8c-6.8-0.2-13.5-0.4-20.3-0.5c-3.4,0-6.8-0.1-10.1-0.1
						c-1.7,0-3.4,0-5,0.1c-1.7,0-3.3,0.2-4.9,0.3l-0.5-4.7c1.8-0.1,3.6-0.1,5.3-0.1c1.7,0,3.4,0.1,5.1,0.2c3.4,0.1,6.8,0.4,10.2,0.6
						c6.8,0.5,13.6,1,20.3,1.6c13.5,1.2,27,2.6,40.5,4L899.7,480.5z"/>
				</g>
			</g>
		</g>
	</g>
	<path class="st103" d="M908,447.8c-0.8,15.7,2.5,42.4,20.4,75.1"/>
	
		<ellipse transform="matrix(0.9973 -7.324211e-02 7.324211e-02 0.9973 -28.8142 68.0378)" class="st26" cx="913.3" cy="426.9" rx="18.5" ry="25.9"/>
	<g>
		<defs>
			
				<ellipse id="SVGID_63_" transform="matrix(0.9973 -7.324211e-02 7.324211e-02 0.9973 -28.8142 68.0378)" cx="913.3" cy="426.9" rx="18.5" ry="25.9"/>
		</defs>
		<clipPath id="SVGID_64_">
			<use xlink:href="#SVGID_63_"  style="overflow:visible;"/>
		</clipPath>
		<g class="st105">
			<g>
				<path class="st27" d="M903.3,463.8c2.1-3.3,4.2-6.6,6.5-9.8c2.3-3.2,4.9-6.2,7.7-9c2.8-2.8,5.8-5.4,8.9-7.9
					c3.1-2.4,6.4-4.6,9.8-6.8l1.2,2.1c-3.4,1.9-6.7,3.9-9.9,6.2c-3.2,2.2-6.2,4.7-9.1,7.3c-2.9,2.6-5.5,5.5-7.9,8.6
					c-2.5,3-4.7,6.3-6.9,9.5L903.3,463.8z"/>
			</g>
			<g>
				<path class="st27" d="M935.5,418.1c-5.6,6.8-11.1,13.6-16.5,20.4c-2.7,3.4-5.4,6.9-8.1,10.3c-2.7,3.5-5.3,6.9-7.9,10.5l-0.3-0.2
					c2.5-3.6,5.1-7.1,7.7-10.7c2.6-3.5,5.2-7,7.9-10.5c5.3-7,10.7-13.9,16.1-20.8L935.5,418.1z"/>
			</g>
			<g>
				<path class="st27" d="M902.4,455.3c4.9-10.2,9.8-20.5,14.6-30.7c2.4-5.1,4.7-10.3,7-15.5c2.3-5.2,4.5-10.4,6.4-15.6l2.8,1
					c-2.1,5.4-4.6,10.5-7.1,15.6c-2.5,5.1-5,10.2-7.6,15.2c-5.2,10.1-10.4,20.2-15.8,30.2L902.4,455.3z"/>
			</g>
			<g>
				<path class="st27" d="M915,397.2l-4.8,30.3l-2.4,15.2c-0.8,5.1-1.5,10.1-2.2,15.2l-0.4,0c0.5-5.1,1.2-10.2,1.8-15.3l2-15.2
					l4.1-30.4L915,397.2z"/>
			</g>
			<g>
				<path class="st27" d="M900.7,401.1c1,4.3,1.8,8.7,2.5,13c0.7,4.4,1.2,8.8,1.6,13.2c0.4,4.4,0.6,8.8,0.7,13.2
					c0,4.4-0.2,8.8-0.7,13.2l-0.4,0c0.3-4.4,0.4-8.8,0.3-13.2c-0.2-4.4-0.5-8.8-1-13.1c-0.5-4.4-1.2-8.7-2-13
					c-0.8-4.3-1.7-8.6-2.8-12.8L900.7,401.1z"/>
			</g>
			<g>
				<path class="st27" d="M893.9,411c1.4,3.1,2.6,6.3,3.7,9.5c1.1,3.2,2.1,6.5,2.9,9.8c0.8,3.3,1.5,6.6,2,10
					c0.4,3.4,0.7,6.8,0.5,10.2l-0.4,0c0-3.4-0.2-6.7-0.7-10.1c-0.6-3.3-1.3-6.6-2.2-9.9c-0.9-3.3-1.9-6.5-3.1-9.6
					c-1.2-3.2-2.4-6.3-3.8-9.4L893.9,411z"/>
			</g>
		</g>
	</g>
</g>
</svg>
