<svg xmlns="http://www.w3.org/2000/svg" width="136.195" height="78.346" viewBox="0 0 136.195 78.346">
  <g id="Group_6" data-name="Group 6" transform="translate(-537.011 -2640.854)">
    <path id="Path_1" data-name="Path 1" d="M637.526,2642.125V2643c5.234.278,7.85-.04,11.618,8.684,4.438,10.276,31.76,68.119,31.76,68.119h1.308l10.23-23.076s-19.112-40.047-20.976-43.973-1.269-9.714,6.622-9.754v-.833Z" transform="translate(-47.445 -0.6)" fill="#fff"/>
    <g id="Group_3" data-name="Group 3" transform="translate(537.011 2675.031)">
      <path id="Path_2" data-name="Path 2" d="M594.741,2717.876h-2.917l-5.229-12.292h3.339l3.339,8.146,3.357-8.146h3.339Z" transform="translate(-560.416 -2705.585)" fill="#fff"/>
      <path id="Path_3" data-name="Path 3" d="M619.96,2720.386h-2.935v-.734a4.146,4.146,0,0,1-2.862,1.01,4.9,4.9,0,0,1,0-9.76,4.148,4.148,0,0,1,2.862,1.009v-.733h2.935Zm-2.935-4.6a2.3,2.3,0,0,0-2.257-2.385,2.391,2.391,0,0,0,0,4.77A2.286,2.286,0,0,0,617.025,2715.781Z" transform="translate(-571.307 -2708.094)" fill="#fff"/>
      <path id="Path_4" data-name="Path 4" d="M633.831,2717.4c.128.789.844,1.082,1.633,1.082.77,0,1.192-.331,1.192-.734,0-.312-.239-.55-.917-.679l-1.871-.367c-1.706-.311-2.678-1.229-2.678-2.678,0-1.89,1.633-3.119,3.962-3.119,2.293,0,3.816,1.046,4.183,2.642l-2.678.532a1.429,1.429,0,0,0-1.541-1.083c-.789,0-1.045.385-1.045.716,0,.257.11.513.7.642l2.165.44a2.771,2.771,0,0,1,2.55,2.77c0,2.036-1.761,3.1-4.183,3.1-2.165,0-4.018-.789-4.329-2.678Z" transform="translate(-581.361 -2708.094)" fill="#fff"/>
      <path id="Path_5" data-name="Path 5" d="M658.1,2720.632h-2.935v-.88a3.8,3.8,0,0,1-2.825,1.156,3.5,3.5,0,0,1-3.578-3.834v-5.65h2.917v5.026a1.624,1.624,0,0,0,1.578,1.816c1.156,0,1.908-.789,1.908-2.568v-4.274H658.1Z" transform="translate(-589.758 -2708.341)" fill="#fff"/>
      <path id="Path_6" data-name="Path 6" d="M549.743,2742.379a5.914,5.914,0,0,1-6.2,4.88,6.422,6.422,0,1,1,0-12.842,6.016,6.016,0,0,1,6.183,4.715l-2.972.7a3.1,3.1,0,0,0-3.211-2.642,3.663,3.663,0,0,0,0,7.32,3.171,3.171,0,0,0,3.229-2.715Z" transform="translate(-537.011 -2719.194)" fill="#fff"/>
      <path id="Path_7" data-name="Path 7" d="M572.46,2749.739h-2.935V2749a4.148,4.148,0,0,1-2.862,1.009,4.9,4.9,0,0,1,0-9.76,4.147,4.147,0,0,1,2.862,1.009v-.734h2.935Zm-2.935-4.6a2.3,2.3,0,0,0-2.257-2.385,2.391,2.391,0,0,0,0,4.77A2.286,2.286,0,0,0,569.525,2745.134Z" transform="translate(-548.886 -2721.949)" fill="#fff"/>
      <path id="Path_8" data-name="Path 8" d="M591.42,2740.605l-.129,2.935h-.532c-2.055,0-3.174,1.064-3.174,3.449v2.88H584.65v-9.21h2.936v1.762a3.556,3.556,0,0,1,3.174-1.89A2.51,2.51,0,0,1,591.42,2740.605Z" transform="translate(-559.498 -2722.081)" fill="#fff"/>
      <path id="Path_9" data-name="Path 9" d="M607.695,2746.409h-2.936v-.734a4.147,4.147,0,0,1-2.862,1.009,4.9,4.9,0,0,1,0-9.76,4.148,4.148,0,0,1,2.862,1.009V2733.2h2.936Zm-2.936-4.6a2.3,2.3,0,0,0-2.257-2.385,2.391,2.391,0,0,0,0,4.77A2.286,2.286,0,0,0,604.759,2741.8Z" transform="translate(-565.517 -2718.62)" fill="#fff"/>
      <path id="Path_10" data-name="Path 10" d="M623.14,2734.141a1.7,1.7,0,0,1-3.394,0,1.7,1.7,0,0,1,3.394,0Zm-3.174,11.924v-9.21H622.9v9.21Z" transform="translate(-576.064 -2718.276)" fill="#fff"/>
      <path id="Path_11" data-name="Path 11" d="M638.134,2749.739H635.2V2749a4.147,4.147,0,0,1-2.862,1.009,4.9,4.9,0,0,1,0-9.76,4.147,4.147,0,0,1,2.862,1.009v-.734h2.936Zm-2.936-4.6a2.3,2.3,0,0,0-2.257-2.385,2.391,2.391,0,0,0,0,4.77A2.286,2.286,0,0,0,635.2,2745.134Z" transform="translate(-579.885 -2721.949)" fill="#fff"/>
      <path id="Path_12" data-name="Path 12" d="M656.2,2745.831l2.7.587a4.627,4.627,0,0,1-4.7,3.6,4.882,4.882,0,1,1,0-9.76,4.687,4.687,0,0,1,4.7,3.541l-2.752.66a1.9,1.9,0,0,0-1.945-1.633,2.315,2.315,0,0,0,0,4.624A1.975,1.975,0,0,0,656.2,2745.831Z" transform="translate(-589.956 -2721.949)" fill="#fff"/>
      <path id="Path_13" data-name="Path 13" d="M601.551,2771.731a5.914,5.914,0,0,1-6.2,4.88,6.422,6.422,0,1,1,0-12.842,6.015,6.015,0,0,1,6.183,4.715l-2.972.7a3.1,3.1,0,0,0-3.211-2.642,3.663,3.663,0,0,0,0,7.32,3.172,3.172,0,0,0,3.229-2.715Z" transform="translate(-561.465 -2733.049)" fill="#fff"/>
      <path id="Path_14" data-name="Path 14" d="M624.269,2779.092h-2.936v-.734a4.147,4.147,0,0,1-2.862,1.009,4.9,4.9,0,0,1,0-9.76,4.146,4.146,0,0,1,2.862,1.009v-.734h2.936Zm-2.936-4.605a2.3,2.3,0,0,0-2.257-2.385,2.391,2.391,0,0,0,0,4.77A2.286,2.286,0,0,0,621.333,2774.487Z" transform="translate(-573.341 -2735.805)" fill="#fff"/>
      <path id="Path_15" data-name="Path 15" d="M643.228,2769.958l-.128,2.935h-.532c-2.054,0-3.174,1.064-3.174,3.449v2.88h-2.936v-9.21h2.936v1.761a3.556,3.556,0,0,1,3.174-1.889A2.5,2.5,0,0,1,643.228,2769.958Z" transform="translate(-583.952 -2735.936)" fill="#fff"/>
      <path id="Path_16" data-name="Path 16" d="M658.981,2775.239H652.23a2.128,2.128,0,0,0,3.945.715l2.605.532a4.578,4.578,0,0,1-4.568,2.88,4.88,4.88,0,0,1,.018-9.76,4.67,4.67,0,0,1,4.751,4.88Zm-6.7-1.8h3.8a1.84,1.84,0,0,0-1.853-1.449A2.017,2.017,0,0,0,652.286,2773.441Z" transform="translate(-590.037 -2735.805)" fill="#fff"/>
    </g>
    <g id="Group_5" data-name="Group 5" transform="translate(640.161 2640.854)">
      <g id="Group_4" data-name="Group 4">
        <path id="Path_17" data-name="Path 17" d="M748.9,2645.1c-5.507-8.261-16.523-3.426-16.523,5.573,0,7.45,15.146,21.679,16.523,23.056,1.377-1.377,16.523-15.606,16.523-23.122C765.424,2641.678,754.409,2636.843,748.9,2645.1Z" transform="translate(-732.379 -2640.854)" fill="#fff" fill-rule="evenodd"/>
      </g>
    </g>
  </g>
</svg>
