<svg xmlns="http://www.w3.org/2000/svg" width="180.142" height="179.235" viewBox="0 0 180.142 179.235">
  <g id="Group_4508" data-name="Group 4508" transform="translate(-4549 -5094.765)">
    <g id="Group_4506" data-name="Group 4506" transform="translate(4159 1994)">
      <g id="Group_3688" data-name="Group 3688" transform="translate(-1503.771 3641.323)">
        <g id="Group_3674" data-name="Group 3674" transform="translate(1893.771 -540.558)">
          <path id="Path_3651" data-name="Path 3651" d="M1983.842-517.389c-30.024-45.036-90.071-18.677-90.071,30.38,0,40.614,82.565,118.18,90.071,125.686,7.506-7.506,90.071-85.072,90.071-126.043C2073.913-536.066,2013.866-562.425,1983.842-517.389Z" transform="translate(-1893.771 540.558)" fill="#e1251b" fill-rule="evenodd"/>
        </g>
      </g>
    </g>
    <g id="Group_4507" data-name="Group 4507" transform="translate(4589.893 5129.776)">
      <path id="Path_4524" data-name="Path 4524" d="M178.192,463.7h-45.7a4.693,4.693,0,0,0-4.691,4.691v5.717h55.083v-5.717A4.693,4.693,0,0,0,178.192,463.7Z" transform="translate(-106.311 -385.732)" fill="#fff"/>
      <path id="Path_4525" data-name="Path 4525" d="M161.9,225.259h4.893l2.959-30.652a10.9,10.9,0,0,1,3.548-7.045,11.385,11.385,0,0,1,7.045-3.212s-6.238,3.951-6.827,10.61c-.656,7.583-1.917,30.282-1.917,30.282h33.914l-3.111-32A13.834,13.834,0,0,0,188.618,180.6H178.9a13.841,13.841,0,0,0-13.788,12.611Z" transform="translate(-134.678 -150.234)" fill="#fff"/>
      <path id="Path_4526" data-name="Path 4526" d="M19.235,276.3H2.573a2.573,2.573,0,1,0,0,5.145H19.235a2.573,2.573,0,1,0,0-5.145Z" transform="translate(0 -229.842)" fill="#fff"/>
      <path id="Path_4527" data-name="Path 4527" d="M472.735,276.3H456.073a2.573,2.573,0,0,0,0,5.145h16.663a2.573,2.573,0,0,0,0-5.145Z" transform="translate(-377.247 -229.842)" fill="#fff"/>
      <path id="Path_4528" data-name="Path 4528" d="M404.172,97.732a2.544,2.544,0,0,0,1.816-.757l11.787-11.787a2.568,2.568,0,1,0-3.632-3.632L402.357,93.343a2.573,2.573,0,0,0,1.816,4.389Z" transform="translate(-334.074 -67.214)" fill="#fff"/>
      <path id="Path_4529" data-name="Path 4529" d="M278.873,21.791a2.573,2.573,0,0,0,2.573-2.573V2.573a2.573,2.573,0,1,0-5.145,0V19.235A2.569,2.569,0,0,0,278.873,21.791Z" transform="translate(-229.842 0)" fill="#fff"/>
      <path id="Path_4530" data-name="Path 4530" d="M93.443,97.075a2.568,2.568,0,1,0,3.632-3.632L85.289,81.657a2.568,2.568,0,1,0-3.632,3.632Z" transform="translate(-67.297 -67.297)" fill="#fff"/>
    </g>
  </g>
</svg>
