<svg xmlns="http://www.w3.org/2000/svg" width="125" height="125" viewBox="0 0 125 125">
  <g id="Group_3644" data-name="Group 3644" transform="translate(2008.043 6614.271)">
    <g id="Group_3638" data-name="Group 3638" transform="translate(-2008.043 -6614.271)">
      <rect id="Rectangle_7" data-name="Rectangle 7" width="125" height="125" rx="62.5" transform="translate(0 0)" fill="#d60f1b"/>
    </g>
    <g id="Group_3640" data-name="Group 3640" transform="translate(-1938.611 -6544.87)">
      <g id="Group_3639" data-name="Group 3639" transform="translate(0 0)">
        <path id="Path_3632" data-name="Path 3632" d="M-1337.5-5944.018c10.2,2.04,14.776-9.7,8.111-16.367-5.519-5.519-27.277-4.839-29.317-4.839,0,2.04-.679,23.8,4.888,29.366C-1347.2-5929.241-1335.462-5933.818-1337.5-5944.018Z" transform="translate(1358.734 5965.25)" fill="#fff" fill-rule="evenodd"/>
      </g>
    </g>
    <g id="Group_3642" data-name="Group 3642" transform="translate(-1984.947 -6591.159)">
      <g id="Group_3641" data-name="Group 3641" transform="translate(0 0)">
        <path id="Path_3633" data-name="Path 3633" d="M-1780.815-6386.884c-10.2-2.04-14.776,9.7-8.111,16.367,5.519,5.519,27.277,4.839,29.317,4.839,0-2.04.679-23.8-4.888-29.365C-1771.114-6401.66-1782.855-6397.083-1780.815-6386.884Z" transform="translate(1792.055 6398.139)" fill="#fff" fill-rule="evenodd"/>
      </g>
    </g>
    <g id="Group_3643" data-name="Group 3643" transform="translate(-1971.769 -6577.863)">
      <path id="Path_3634" data-name="Path 3634" d="M-1664.686-6221.067a3.747,3.747,0,0,1-2.657-1.1,3.758,3.758,0,0,1,0-5.314l44.842-44.841a3.758,3.758,0,0,1,5.314,0,3.758,3.758,0,0,1,0,5.314l-44.841,44.841A3.748,3.748,0,0,1-1664.686-6221.067Z" transform="translate(1668.444 6273.424)" fill="#fff"/>
    </g>
  </g>
</svg>
