<svg xmlns="http://www.w3.org/2000/svg" width="35.241" height="32.193" viewBox="0 0 35.241 32.193">
  <g id="Group_4361" data-name="Group 4361" transform="translate(35.241) rotate(90)">
    <g id="Group_1" data-name="Group 1">
      <path id="Path_1" data-name="Path 1" d="M22.316,5.725V1.143A1.144,1.144,0,0,0,21.171,0H1.144A1.143,1.143,0,0,0,0,1.143V5.725A1.144,1.144,0,0,0,1.144,6.87H21.171A1.145,1.145,0,0,0,22.316,5.725Z" transform="translate(9.877 28.371)" fill="#fff"/>
      <path id="Path_2" data-name="Path 2" d="M6.357,5.725V1.143A1.143,1.143,0,0,0,5.212,0H1.143A1.142,1.142,0,0,0,0,1.143V5.725A1.143,1.143,0,0,0,1.143,6.87h4.07A1.144,1.144,0,0,0,6.357,5.725Z" transform="translate(0 28.371)" fill="#fff"/>
      <path id="Path_3" data-name="Path 3" d="M2.909,1.724A6.945,6.945,0,0,0,.82,4.572,10.3,10.3,0,0,0,0,8.728a10.184,10.184,0,0,0,3.525,7.823c.468.426.365.735-.267.735H1.73A1.147,1.147,0,0,0,.583,18.431v4.092A1.147,1.147,0,0,0,1.73,23.667H21.757A1.143,1.143,0,0,0,22.9,22.523V17.941A1.143,1.143,0,0,0,21.757,16.8H14.791a22.418,22.418,0,0,1-5.966-.526,4.926,4.926,0,0,1-2.591-1.944,5.5,5.5,0,0,1-.978-3.2A4.089,4.089,0,0,1,5.941,8.74,3.82,3.82,0,0,1,7.86,7.31a20.485,20.485,0,0,1,5.44-.44h8.457A1.143,1.143,0,0,0,22.9,5.726V1.144A1.143,1.143,0,0,0,21.757,0H10.413a21.534,21.534,0,0,0-4.62.379A7.566,7.566,0,0,0,2.909,1.724Z" transform="translate(9.291)" fill="#fff"/>
    </g>
  </g>
</svg>
