<svg xmlns="http://www.w3.org/2000/svg" width="124.999" height="124.999" viewBox="0 0 124.999 124.999">
  <g id="Group_3664" data-name="Group 3664" transform="translate(-78.26 6853.93)">
    <g id="Group_3660" data-name="Group 3660" transform="translate(52.372 -6879.818)">
      <rect id="Rectangle_9" data-name="Rectangle 9" width="124.999" height="124.999" rx="62.5" transform="translate(25.888 25.888)" fill="#d60f1b"/>
    </g>
    <g id="Group_3663" data-name="Group 3663" transform="translate(109.42 -6816.19)">
      <g id="Group_3661" data-name="Group 3661" transform="translate(0 0)">
        <path id="Path_3644" data-name="Path 3644" d="M616.663-6277.333c-10.447-15.67-31.34-6.5-31.34,10.57,0,14.132,28.728,41.121,31.34,43.732,2.612-2.611,31.34-29.6,31.34-43.855C648-6283.832,627.109-6293,616.663-6277.333Z" transform="translate(-585.323 6285.395)" fill="#fff" fill-rule="evenodd"/>
      </g>
      <g id="Group_3662" data-name="Group 3662" transform="translate(13.29 18.551)">
        <path id="Path_3645" data-name="Path 3645" d="M727.741-6091.684a18.285,18.285,0,0,1-18.264-18.265,2.141,2.141,0,0,1,2.141-2.141,2.141,2.141,0,0,1,2.141,2.141,14,14,0,0,0,13.982,13.983,14,14,0,0,0,13.982-13.983,2.141,2.141,0,0,1,2.141-2.141,2.141,2.141,0,0,1,2.141,2.141A18.285,18.285,0,0,1,727.741-6091.684Z" transform="translate(-709.477 6112.089)" fill="#d60f1b"/>
      </g>
    </g>
  </g>
</svg>
