<svg xmlns="http://www.w3.org/2000/svg" width="180.142" height="179.235" viewBox="0 0 180.142 179.235">
  <g id="Group_4335" data-name="Group 4335" transform="translate(-1354 -2619.765)">
    <g id="Group_3700" data-name="Group 3700" transform="translate(-539.771 3160.323)">
      <g id="Group_3674" data-name="Group 3674" transform="translate(1893.771 -540.558)">
        <path id="Path_3651" data-name="Path 3651" d="M1983.842-517.389c-30.024-45.036-90.071-18.677-90.071,30.38,0,40.614,82.565,118.18,90.071,125.686,7.506-7.506,90.071-85.072,90.071-126.043C2073.913-536.066,2013.866-562.425,1983.842-517.389Z" transform="translate(-1893.771 540.558)" fill="#e1251b" fill-rule="evenodd"/>
      </g>
    </g>
    <g id="Group_4222" data-name="Group 4222" transform="translate(9014.586 10182.536)">
      <circle id="Ellipse_9625" data-name="Ellipse 9625" cx="1.099" cy="1.099" r="1.099" transform="translate(-7552.326 -7468.976)" fill="#fff"/>
      <circle id="Ellipse_9626" data-name="Ellipse 9626" cx="1.033" cy="1.033" r="1.033" transform="translate(-7552.326 -7474.838)" fill="#fff"/>
      <circle id="Ellipse_9627" data-name="Ellipse 9627" cx="1.232" cy="1.232" r="1.232" transform="translate(-7544.166 -7484.099)" fill="#fff"/>
      <circle id="Ellipse_9628" data-name="Ellipse 9628" cx="1.074" cy="1.074" r="1.074" transform="translate(-7553.992 -7488.279)" fill="#fff"/>
      <circle id="Ellipse_9629" data-name="Ellipse 9629" cx="0.974" cy="0.974" r="0.974" transform="translate(-7561.386 -7497.123)" fill="#fff"/>
      <circle id="Ellipse_9630" data-name="Ellipse 9630" cx="0.949" cy="0.949" r="0.949" transform="translate(-7571.429 -7500.32)" fill="#fff"/>
      <circle id="Ellipse_9631" data-name="Ellipse 9631" cx="0.899" cy="0.899" r="0.899" transform="translate(-7580.873 -7498.072)" fill="#fff"/>
      <circle id="Ellipse_9632" data-name="Ellipse 9632" cx="0.924" cy="0.924" r="0.924" transform="translate(-7587.718 -7491.477)" fill="#fff"/>
      <circle id="Ellipse_9633" data-name="Ellipse 9633" cx="0.899" cy="0.899" r="0.899" transform="translate(-7590.366 -7482.133)" fill="#fff"/>
      <circle id="Ellipse_9634" data-name="Ellipse 9634" cx="0.874" cy="0.874" r="0.874" transform="translate(-7587.468 -7472.19)" fill="#fff"/>
      <circle id="Ellipse_9635" data-name="Ellipse 9635" cx="0.999" cy="0.999" r="0.999" transform="translate(-7579.074 -7464.346)" fill="#fff"/>
      <circle id="Ellipse_9636" data-name="Ellipse 9636" cx="1.024" cy="1.024" r="1.024" transform="translate(-7565.983 -7462.348)" fill="#fff"/>
      <circle id="Ellipse_9637" data-name="Ellipse 9637" cx="1.149" cy="1.149" r="1.149" transform="translate(-7559.938 -7461.348)" fill="#fff"/>
      <circle id="Ellipse_9638" data-name="Ellipse 9638" cx="1.099" cy="1.099" r="1.099" transform="translate(-7575.626 -7453.504)" fill="#fff"/>
      <circle id="Ellipse_9639" data-name="Ellipse 9639" cx="1.374" cy="1.374" r="1.374" transform="translate(-7595.612 -7457.001)" fill="#fff"/>
      <circle id="Ellipse_9640" data-name="Ellipse 9640" cx="1.499" cy="1.499" r="1.499" transform="translate(-7611.051 -7472.84)" fill="#fff"/>
      <circle id="Ellipse_9641" data-name="Ellipse 9641" cx="2.298" cy="2.298" r="2.298" transform="translate(-7623.642 -7489.978)" fill="#fff"/>
      <circle id="Ellipse_9642" data-name="Ellipse 9642" cx="1.824" cy="1.824" r="1.824" transform="translate(-7615.098 -7497.472)" fill="#fff"/>
      <circle id="Ellipse_9643" data-name="Ellipse 9643" cx="1.874" cy="1.874" r="1.874" transform="translate(-7609.152 -7514.31)" fill="#fff"/>
      <circle id="Ellipse_9644" data-name="Ellipse 9644" cx="1.974" cy="1.974" r="1.974" transform="translate(-7603.156 -7521.105)" fill="#fff"/>
      <circle id="Ellipse_9645" data-name="Ellipse 9645" cx="1.824" cy="1.824" r="1.824" transform="translate(-7585.519 -7525.202)" fill="#fff"/>
      <circle id="Ellipse_9646" data-name="Ellipse 9646" cx="2.098" cy="2.098" r="2.098" transform="translate(-7577.325 -7533.896)" fill="#fff"/>
      <circle id="Ellipse_9647" data-name="Ellipse 9647" cx="1.474" cy="1.474" r="1.474" transform="translate(-7561.137 -7519.856)" fill="#fff"/>
      <circle id="Ellipse_9648" data-name="Ellipse 9648" cx="2.398" cy="2.398" r="2.398" transform="translate(-7548.246 -7529.149)" fill="#fff"/>
      <circle id="Ellipse_9649" data-name="Ellipse 9649" cx="1.374" cy="1.374" r="1.374" transform="translate(-7546.597 -7503.768)" fill="#fff"/>
      <circle id="Ellipse_9650" data-name="Ellipse 9650" cx="2.298" cy="2.298" r="2.298" transform="translate(-7526.062 -7506.266)" fill="#fff"/>
      <circle id="Ellipse_9651" data-name="Ellipse 9651" cx="2.423" cy="2.423" r="2.423" transform="translate(-7522.065 -7474.389)" fill="#fff"/>
      <circle id="Ellipse_9652" data-name="Ellipse 9652" cx="2.498" cy="2.498" r="2.498" transform="translate(-7537.803 -7445.809)" fill="#fff"/>
      <circle id="Ellipse_9653" data-name="Ellipse 9653" cx="2.423" cy="2.423" r="2.423" transform="translate(-7567.131 -7431.72)" fill="#fff"/>
      <circle id="Ellipse_9654" data-name="Ellipse 9654" cx="2.298" cy="2.298" r="2.298" transform="translate(-7598.658 -7437.615)" fill="#fff"/>
      <circle id="Ellipse_9655" data-name="Ellipse 9655" cx="2.248" cy="2.248" r="2.248" transform="translate(-7619.894 -7460.399)" fill="#fff"/>
    </g>
  </g>
</svg>
