<svg xmlns="http://www.w3.org/2000/svg" width="180.142" height="179.235" viewBox="0 0 180.142 179.235">
  <g id="Group_4512" data-name="Group 4512" transform="translate(-394 -4939.765)">
    <g id="Group_4511" data-name="Group 4511" transform="translate(4 1839)">
      <g id="Group_3688" data-name="Group 3688" transform="translate(-1503.771 3641.323)">
        <g id="Group_3674" data-name="Group 3674" transform="translate(1893.771 -540.558)">
          <path id="Path_3651" data-name="Path 3651" d="M1983.842-517.389c-30.024-45.036-90.071-18.677-90.071,30.38,0,40.614,82.565,118.18,90.071,125.686,7.506-7.506,90.071-85.072,90.071-126.043C2073.913-536.066,2013.866-562.425,1983.842-517.389Z" transform="translate(-1893.771 540.558)" fill="#e1251b" fill-rule="evenodd"/>
        </g>
      </g>
    </g>
    <g id="Group_4510" data-name="Group 4510" transform="translate(-4262.336 103.478)">
      <g id="Group_4499" data-name="Group 4499" transform="translate(4710 4883)">
        <path id="Path_4533" data-name="Path 4533" d="M71.982,9.89v4.848a3.315,3.315,0,0,1-3.306,3.306H3.306A3.315,3.315,0,0,1,0,14.738V9.862A9.887,9.887,0,0,1,9.862,0h52.23A9.881,9.881,0,0,1,71.982,9.89Z" fill="#fff"/>
        <path id="Path_4534" data-name="Path 4534" d="M71.982,85.091v30.137a9.9,9.9,0,0,1-9.89,9.89H9.89A9.9,9.9,0,0,1,0,115.228V85.091A3.692,3.692,0,0,1,3.691,81.4h64.6A3.692,3.692,0,0,1,71.982,85.091Z" transform="translate(0 -58.976)" fill="#fff"/>
        <g id="Group_4498" data-name="Group 4498" transform="translate(18.282 32.739)">
          <path id="Path_4535" data-name="Path 4535" d="M89.53,135.815c0-1.735-.729-2.568-2.221-2.568a2.029,2.029,0,0,0-1.839.868,5.747,5.747,0,0,0-.659,2.742H79.535c.139-2.707.937-4.755,2.464-6.108a8.329,8.329,0,0,1,5.726-2.048,7.528,7.528,0,0,1,5.483,1.839,6.461,6.461,0,0,1,1.839,4.755,10.117,10.117,0,0,1-2.5,6.351,22.775,22.775,0,0,1-5.969,5.24h8.78v4.338H79.5V147.2Q89.547,140.014,89.53,135.815Z" transform="translate(-79.5 -128.318)" fill="#d92a2a"/>
          <path id="Path_4536" data-name="Path 4536" d="M143.026,132.563a2.406,2.406,0,0,0-1.839-.694,2.658,2.658,0,0,0-2.6,1.7,11.987,11.987,0,0,0-.694,5.171,4.192,4.192,0,0,1,1.839-2.048,6.119,6.119,0,0,1,3.054-.729,6.46,6.46,0,0,1,4.963,1.909,7.641,7.641,0,0,1,1.839,5.483,8.524,8.524,0,0,1-.9,3.956,6.563,6.563,0,0,1-2.707,2.707,9.017,9.017,0,0,1-4.269.972c-3.262,0-5.518-1.006-6.733-3.019-1.249-2.013-1.874-4.824-1.874-8.364,0-4.13.659-7.149,1.978-9.093s3.471-2.915,6.455-2.915a6.786,6.786,0,0,1,5.345,2.013,8.064,8.064,0,0,1,2.048,5.067h-5.032A4.147,4.147,0,0,0,143.026,132.563ZM139.1,145.439a3.139,3.139,0,0,0,2.395.9,3.049,3.049,0,0,0,2.221-.8,3.125,3.125,0,0,0-2.256-5.414,3.293,3.293,0,0,0-2.256.764,2.666,2.666,0,0,0-.9,2.186A3.208,3.208,0,0,0,139.1,145.439Z" transform="translate(-114.498 -127.6)" fill="#d92a2a"/>
        </g>
      </g>
    </g>
  </g>
</svg>
