<svg xmlns="http://www.w3.org/2000/svg" width="125" height="125" viewBox="0 0 125 125">
  <g id="Group_4332" data-name="Group 4332" transform="translate(-330.195 -3727)">
    <g id="Group_3659" data-name="Group 3659" transform="translate(5551.648 11873.619)">
      <g id="Group_3645" data-name="Group 3645" transform="translate(-5221.453 -8146.62)">
        <rect id="Rectangle_8" data-name="Rectangle 8" width="125" height="125" rx="62.5" transform="translate(0 0)" fill="#d60f1b"/>
      </g>
      <g id="Group_3650" data-name="Group 3650" transform="translate(-5189.66 -8114.827)">
        <g id="Group_3646" data-name="Group 3646" transform="translate(0 43.305)">
          <path id="Path_3635" data-name="Path 3635" d="M-4921.626-7427.282a1.961,1.961,0,0,1-1.391-.576,1.967,1.967,0,0,1,0-2.782l14.174-14.174a1.967,1.967,0,0,1,2.782,0,1.967,1.967,0,0,1,0,2.782l-14.174,14.174A1.961,1.961,0,0,1-4921.626-7427.282Z" transform="translate(4923.594 7445.391)" fill="#fff"/>
        </g>
        <g id="Group_3647" data-name="Group 3647" transform="translate(43.327 0)">
          <path id="Path_3636" data-name="Path 3636" d="M-4518.054-7830.674a1.96,1.96,0,0,1-1.391-.576,1.967,1.967,0,0,1,0-2.781l14.152-14.152a1.966,1.966,0,0,1,2.782,0,1.966,1.966,0,0,1,0,2.781l-14.152,14.152A1.96,1.96,0,0,1-4518.054-7830.674Z" transform="translate(4520.021 7848.76)" fill="#fff"/>
        </g>
        <g id="Group_3648" data-name="Group 3648" transform="translate(43.262 43.262)">
          <path id="Path_3637" data-name="Path 3637" d="M-4504.445-7427.645a1.96,1.96,0,0,1-1.391-.576l-14.218-14.218a1.967,1.967,0,0,1,0-2.782,1.967,1.967,0,0,1,2.782,0l14.218,14.218a1.967,1.967,0,0,1,0,2.782A1.962,1.962,0,0,1-4504.445-7427.645Z" transform="translate(4520.63 7445.796)" fill="#fff"/>
        </g>
        <g id="Group_3649" data-name="Group 3649" transform="translate(0 0)">
          <path id="Path_3638" data-name="Path 3638" d="M-4907.453-7830.651a1.962,1.962,0,0,1-1.391-.576l-14.174-14.175a1.967,1.967,0,0,1,0-2.781,1.967,1.967,0,0,1,2.782,0l14.174,14.174a1.967,1.967,0,0,1,0,2.782A1.963,1.963,0,0,1-4907.453-7830.651Z" transform="translate(4923.594 7848.76)" fill="#fff"/>
        </g>
      </g>
      <g id="Group_3651" data-name="Group 3651" transform="translate(-5192.846 -8118.012)">
        <circle id="Ellipse_9499" data-name="Ellipse 9499" cx="33.892" cy="33.892" r="33.892" transform="translate(0 0)" fill="#d60f1b"/>
      </g>
      <g id="Group_3656" data-name="Group 3656" transform="translate(-5202.614 -8127.78)">
        <g id="Group_3652" data-name="Group 3652" transform="translate(40.644 61.243)">
          <path id="Path_3639" data-name="Path 3639" d="M-4662.652-7372.887a3.017,3.017,0,0,1-3.016-3.017v-20.045a3.017,3.017,0,0,1,3.016-3.017,3.016,3.016,0,0,1,3.016,3.017v20.045A3.016,3.016,0,0,1-4662.652-7372.887Z" transform="translate(4665.668 7398.965)" fill="#fff"/>
        </g>
        <g id="Group_3653" data-name="Group 3653" transform="translate(40.644 0)">
          <path id="Path_3640" data-name="Path 3640" d="M-4662.652-7943.37a3.017,3.017,0,0,1-3.016-3.017V-7966.4a3.017,3.017,0,0,1,3.016-3.017,3.016,3.016,0,0,1,3.016,3.017v20.014A3.016,3.016,0,0,1-4662.652-7943.37Z" transform="translate(4665.668 7969.417)" fill="#fff"/>
        </g>
        <g id="Group_3654" data-name="Group 3654" transform="translate(61.181 40.644)">
          <path id="Path_3641" data-name="Path 3641" d="M-4471.357-7584.8a3.016,3.016,0,0,1-3.016-3.016,3.016,3.016,0,0,1,3.016-3.016h20.107a3.016,3.016,0,0,1,3.016,3.016,3.016,3.016,0,0,1-3.016,3.016Z" transform="translate(4474.373 7590.834)" fill="#fff"/>
        </g>
        <g id="Group_3655" data-name="Group 3655" transform="translate(0 40.644)">
          <path id="Path_3642" data-name="Path 3642" d="M-5021.188-7584.8h-20.045a3.016,3.016,0,0,1-3.016-3.016,3.016,3.016,0,0,1,3.016-3.016h20.045a3.016,3.016,0,0,1,3.016,3.016A3.016,3.016,0,0,1-5021.188-7584.8Z" transform="translate(5044.25 7590.834)" fill="#fff"/>
        </g>
      </g>
      <g id="Group_3657" data-name="Group 3657" transform="translate(-5184.862 -8110.029)">
        <circle id="Ellipse_9500" data-name="Ellipse 9500" cx="25.909" cy="25.909" r="25.909" transform="translate(0 0)" fill="#d60f1b"/>
      </g>
      <g id="Group_3658" data-name="Group 3658" transform="translate(-5178.423 -8103.492)">
        <path id="Path_3643" data-name="Path 3643" d="M-4799.455-7738.17c-6.49-9.735-19.47-4.037-19.47,6.567,0,8.779,17.847,25.545,19.47,27.168,1.623-1.623,19.47-18.389,19.47-27.246C-4779.985-7742.208-4792.965-7747.905-4799.455-7738.17Z" transform="translate(4818.925 7743.179)" fill="#fff" fill-rule="evenodd"/>
      </g>
    </g>
  </g>
</svg>
