<svg xmlns="http://www.w3.org/2000/svg" width="126.122" height="126.122" viewBox="0 0 126.122 126.122">
  <g id="Group_3672" data-name="Group 3672" transform="translate(-1611.622 6755.512)">
    <g id="Group_3665" data-name="Group 3665" transform="translate(1585.502 -6781.632)">
      <rect id="Rectangle_10" data-name="Rectangle 10" width="126.122" height="126.122" rx="63.061" transform="translate(26.121 26.121)" fill="#d60f1b"/>
    </g>
    <g id="Group_3666" data-name="Group 3666" transform="translate(1638.306 -6723.353)">
      <path id="Path_3646" data-name="Path 3646" d="M2110.794-6232.664c-12.126-18.189-36.377-7.543-36.377,12.27,0,16.4,33.346,47.729,36.377,50.76,3.031-3.031,36.377-34.358,36.377-50.9C2147.171-6240.207,2122.92-6250.853,2110.794-6232.664Z" transform="translate(-2074.417 6242.021)" fill="#fff" fill-rule="evenodd"/>
    </g>
    <g id="Group_3671" data-name="Group 3671" transform="translate(1650.843 -6719.467)">
      <g id="Group_3667" data-name="Group 3667" transform="translate(8.768 23.06)">
        <path id="Path_3647" data-name="Path 3647" d="M2274.155-5969.9a2.475,2.475,0,0,1-1.435-.458,2.486,2.486,0,0,1-.59-3.465l12.525-17.666a2.485,2.485,0,0,1,1.985-1.048,2.491,2.491,0,0,1,2.019.98l13.086,17.2a2.485,2.485,0,0,1-.473,3.482,2.486,2.486,0,0,1-3.483-.473l-11.037-14.507-10.569,14.906A2.482,2.482,0,0,1,2274.155-5969.9Z" transform="translate(-2271.672 5992.538)" fill="#d60f1b"/>
      </g>
      <g id="Group_3668" data-name="Group 3668" transform="translate(27.667 15.557)">
        <path id="Path_3648" data-name="Path 3648" d="M2449.146-6051.956a2.487,2.487,0,0,1-2.354-1.69,2.485,2.485,0,0,1,1.56-3.149l15.043-5.079a2.486,2.486,0,0,1,3.149,1.56,2.485,2.485,0,0,1-1.56,3.149l-15.043,5.079A2.484,2.484,0,0,1,2449.146-6051.956Z" transform="translate(-2446.661 6062.006)" fill="#d60f1b"/>
      </g>
      <g id="Group_3669" data-name="Group 3669" transform="translate(0 15.51)">
        <path id="Path_3649" data-name="Path 3649" d="M2208.021-6052.39a2.471,2.471,0,0,1-.795-.131l-15.043-5.079a2.484,2.484,0,0,1-1.56-3.148,2.485,2.485,0,0,1,3.149-1.56l15.043,5.079a2.486,2.486,0,0,1,1.56,3.149A2.486,2.486,0,0,1,2208.021-6052.39Z" transform="translate(-2190.492 6062.44)" fill="#d60f1b"/>
      </g>
      <g id="Group_3670" data-name="Group 3670" transform="translate(21.303 0)">
        <path id="Path_3650" data-name="Path 3650" d="M2390.224-6185.068a2.485,2.485,0,0,1-2.485-2.485v-16.007a2.485,2.485,0,0,1,2.485-2.485,2.485,2.485,0,0,1,2.485,2.485v16.007A2.485,2.485,0,0,1,2390.224-6185.068Z" transform="translate(-2387.739 6206.045)" fill="#d60f1b"/>
      </g>
    </g>
  </g>
</svg>
