<svg xmlns="http://www.w3.org/2000/svg" width="180.142" height="179.235" viewBox="0 0 180.142 179.235">
  <g id="Group_4337" data-name="Group 4337" transform="translate(-872 -3100.765)">
    <g id="Group_3704" data-name="Group 3704" transform="translate(-1021.771 3641.323)">
      <g id="Group_3674" data-name="Group 3674" transform="translate(1893.771 -540.558)">
        <path id="Path_3651" data-name="Path 3651" d="M1983.842-517.389c-30.024-45.036-90.071-18.677-90.071,30.38,0,40.614,82.565,118.18,90.071,125.686,7.506-7.506,90.071-85.072,90.071-126.043C2073.913-536.066,2013.866-562.425,1983.842-517.389Z" transform="translate(-1893.771 540.558)" fill="#e1251b" fill-rule="evenodd"/>
      </g>
    </g>
    <g id="Group_4221" data-name="Group 4221" transform="translate(8585.096 10674.816)">
      <g id="Group_4145" data-name="Group 4145" transform="translate(-7655.042 -7536.479)">
        <path id="Path_4082" data-name="Path 4082" d="M-7548.761-7420.548a20.528,20.528,0,0,1-20.506-20.506,20.528,20.528,0,0,1,20.506-20.5,20.529,20.529,0,0,1,20.506,20.5A20.529,20.529,0,0,1-7548.761-7420.548Zm0-39.184a18.7,18.7,0,0,0-18.679,18.678,18.7,18.7,0,0,0,18.679,18.679,18.7,18.7,0,0,0,18.679-18.679A18.7,18.7,0,0,0-7548.761-7459.731Z" transform="translate(7569.267 7461.559)" fill="#fff"/>
      </g>
      <g id="Group_4146" data-name="Group 4146" transform="translate(-7638.163 -7519.752)">
        <circle id="Ellipse_9558" data-name="Ellipse 9558" cx="3.797" cy="3.797" r="3.797" transform="translate(0 0)" fill="#fff"/>
      </g>
      <g id="Group_4147" data-name="Group 4147" transform="translate(-7627.302 -7526.131)">
        <circle id="Ellipse_9559" data-name="Ellipse 9559" cx="3.797" cy="3.797" r="3.797" transform="translate(0 0)" fill="#fff"/>
      </g>
      <g id="Group_4148" data-name="Group 4148" transform="translate(-7627.302 -7513.524)">
        <circle id="Ellipse_9560" data-name="Ellipse 9560" cx="3.797" cy="3.797" r="3.797" transform="translate(0 0)" fill="#fff"/>
      </g>
      <g id="Group_4149" data-name="Group 4149" transform="translate(-7638.087 -7507.068)">
        <circle id="Ellipse_9561" data-name="Ellipse 9561" cx="3.797" cy="3.797" r="3.797" transform="translate(0 0)" fill="#fff"/>
      </g>
      <g id="Group_4150" data-name="Group 4150" transform="translate(-7649.327 -7513.524)">
        <circle id="Ellipse_9562" data-name="Ellipse 9562" cx="3.797" cy="3.797" r="3.797" transform="translate(0 0)" fill="#fff"/>
      </g>
      <g id="Group_4151" data-name="Group 4151" transform="translate(-7616.441 -7519.828)">
        <circle id="Ellipse_9563" data-name="Ellipse 9563" cx="3.797" cy="3.797" r="3.797" transform="translate(0 0)" fill="#fff"/>
      </g>
      <g id="Group_4152" data-name="Group 4152" transform="translate(-7613.792 -7530.014)">
        <circle id="Ellipse_9564" data-name="Ellipse 9564" cx="1.3" cy="1.3" r="1.3" transform="translate(0 0)" fill="#fff"/>
      </g>
      <g id="Group_4153" data-name="Group 4153" transform="translate(-7624.712 -7536.584)">
        <circle id="Ellipse_9565" data-name="Ellipse 9565" cx="1.3" cy="1.3" r="1.3" transform="translate(0 0)" fill="#fff"/>
      </g>
      <g id="Group_4154" data-name="Group 4154" transform="translate(-7646.662 -7523.673)">
        <circle id="Ellipse_9566" data-name="Ellipse 9566" cx="1.3" cy="1.3" r="1.3" transform="translate(0 0)" fill="#fff"/>
      </g>
      <g id="Group_4155" data-name="Group 4155" transform="translate(-7657.636 -7504.572)">
        <circle id="Ellipse_9567" data-name="Ellipse 9567" cx="1.3" cy="1.3" r="1.3" transform="translate(0 0)" fill="#fff"/>
      </g>
      <g id="Group_4156" data-name="Group 4156" transform="translate(-7657.729 -7491.85)">
        <circle id="Ellipse_9568" data-name="Ellipse 9568" cx="1.3" cy="1.3" r="1.3" transform="translate(0 0)" fill="#fff"/>
      </g>
      <g id="Group_4157" data-name="Group 4157" transform="translate(-7657.767 -7479.167)">
        <circle id="Ellipse_9569" data-name="Ellipse 9569" cx="1.3" cy="1.3" r="1.3" transform="translate(0 0)" fill="#fff"/>
      </g>
      <g id="Group_4158" data-name="Group 4158" transform="translate(-7624.691 -7459.951)">
        <circle id="Ellipse_9570" data-name="Ellipse 9570" cx="1.3" cy="1.3" r="1.3" transform="translate(0)" fill="#fff"/>
      </g>
      <g id="Group_4159" data-name="Group 4159" transform="translate(-7613.716 -7466.445)">
        <circle id="Ellipse_9571" data-name="Ellipse 9571" cx="1.3" cy="1.3" r="1.3" transform="translate(0 0)" fill="#fff"/>
      </g>
      <g id="Group_4160" data-name="Group 4160" transform="translate(-7602.704 -7472.71)">
        <circle id="Ellipse_9572" data-name="Ellipse 9572" cx="1.3" cy="1.3" r="1.3" transform="translate(0 0)" fill="#fff"/>
      </g>
      <g id="Group_4161" data-name="Group 4161" transform="translate(-7591.691 -7479.128)">
        <circle id="Ellipse_9573" data-name="Ellipse 9573" cx="1.3" cy="1.3" r="1.3" transform="translate(0 0)" fill="#fff"/>
      </g>
      <g id="Group_4162" data-name="Group 4162" transform="translate(-7602.514 -7485.47)">
        <circle id="Ellipse_9574" data-name="Ellipse 9574" cx="1.3" cy="1.3" r="1.3" transform="translate(0 0)" fill="#fff"/>
      </g>
      <g id="Group_4163" data-name="Group 4163" transform="translate(-7613.754 -7479.09)">
        <circle id="Ellipse_9575" data-name="Ellipse 9575" cx="1.3" cy="1.3" r="1.3" transform="translate(0 0)" fill="#fff"/>
      </g>
      <g id="Group_4164" data-name="Group 4164" transform="translate(-7624.653 -7472.787)">
        <circle id="Ellipse_9576" data-name="Ellipse 9576" cx="1.3" cy="1.3" r="1.3" transform="translate(0)" fill="#fff"/>
      </g>
      <g id="Group_4165" data-name="Group 4165" transform="translate(-7635.704 -7466.331)">
        <circle id="Ellipse_9577" data-name="Ellipse 9577" cx="1.3" cy="1.3" r="1.3" transform="translate(0 0)" fill="#fff"/>
      </g>
      <g id="Group_4166" data-name="Group 4166" transform="translate(-7646.678 -7472.749)">
        <circle id="Ellipse_9578" data-name="Ellipse 9578" cx="1.3" cy="1.3" r="1.3" transform="translate(0 0)" fill="#fff"/>
      </g>
      <g id="Group_4167" data-name="Group 4167" transform="translate(-7646.754 -7485.508)">
        <circle id="Ellipse_9579" data-name="Ellipse 9579" cx="1.3" cy="1.3" r="1.3" transform="translate(0 0)" fill="#fff"/>
      </g>
      <g id="Group_4168" data-name="Group 4168" transform="translate(-7635.665 -7491.888)">
        <circle id="Ellipse_9580" data-name="Ellipse 9580" cx="1.3" cy="1.3" r="1.3" transform="translate(0 0)" fill="#fff"/>
      </g>
      <g id="Group_4169" data-name="Group 4169" transform="translate(-7624.577 -7498.192)">
        <circle id="Ellipse_9581" data-name="Ellipse 9581" cx="1.3" cy="1.3" r="1.3" transform="translate(0 0)" fill="#fff"/>
      </g>
      <g id="Group_4170" data-name="Group 4170" transform="translate(-7613.636 -7491.927)">
        <circle id="Ellipse_9582" data-name="Ellipse 9582" cx="1.3" cy="1.3" r="1.3" transform="translate(0 0)" fill="#fff"/>
      </g>
      <g id="Group_4171" data-name="Group 4171" transform="translate(-7624.742 -7485.539)">
        <circle id="Ellipse_9583" data-name="Ellipse 9583" cx="1.3" cy="1.3" r="1.3" transform="translate(0 0)" fill="#fff"/>
      </g>
      <g id="Group_4172" data-name="Group 4172" transform="translate(-7635.738 -7479.101)">
        <circle id="Ellipse_9584" data-name="Ellipse 9584" cx="1.3" cy="1.3" r="1.3" transform="translate(0 0)" fill="#fff"/>
      </g>
      <g id="Group_4173" data-name="Group 4173" transform="translate(-7591.805 -7491.85)">
        <circle id="Ellipse_9585" data-name="Ellipse 9585" cx="1.3" cy="1.3" r="1.3" transform="translate(0 0)" fill="#fff"/>
      </g>
      <g id="Group_4174" data-name="Group 4174" transform="translate(-7591.691 -7504.609)">
        <circle id="Ellipse_9586" data-name="Ellipse 9586" cx="1.3" cy="1.3" r="1.3" transform="translate(0 0)" fill="#fff"/>
      </g>
      <g id="Group_4175" data-name="Group 4175" transform="translate(-7657.805 -7517.369)">
        <circle id="Ellipse_9587" data-name="Ellipse 9587" cx="1.3" cy="1.3" r="1.3" transform="translate(0)" fill="#fff"/>
      </g>
      <g id="Group_4176" data-name="Group 4176" transform="translate(-7635.704 -7530.09)">
        <circle id="Ellipse_9588" data-name="Ellipse 9588" cx="1.3" cy="1.3" r="1.3" transform="translate(0 0)" fill="#fff"/>
      </g>
      <g id="Group_4177" data-name="Group 4177" transform="translate(-7591.745 -7517.333)">
        <circle id="Ellipse_9589" data-name="Ellipse 9589" cx="1.3" cy="1.3" r="1.3" transform="translate(0 0)" fill="#fff"/>
      </g>
      <g id="Group_4178" data-name="Group 4178" transform="translate(-7602.666 -7523.672)">
        <circle id="Ellipse_9590" data-name="Ellipse 9590" cx="1.3" cy="1.3" r="1.3" transform="translate(0 0)" fill="#fff"/>
      </g>
      <g id="Group_4179" data-name="Group 4179" transform="translate(-7616.29 -7507.22)">
        <circle id="Ellipse_9591" data-name="Ellipse 9591" cx="3.797" cy="3.797" r="3.797" transform="translate(0 0)" fill="#fff"/>
      </g>
      <g id="Group_4180" data-name="Group 4180" transform="translate(-7605.429 -7513.752)">
        <circle id="Ellipse_9592" data-name="Ellipse 9592" cx="3.797" cy="3.797" r="3.797" transform="translate(0 0)" fill="#fff"/>
      </g>
      <g id="Group_4181" data-name="Group 4181" transform="translate(-7605.167 -7500.752)">
        <circle id="Ellipse_9593" data-name="Ellipse 9593" cx="3.797" cy="3.797" r="3.797" transform="translate(0 0)" fill="#fff"/>
      </g>
      <g id="Group_4182" data-name="Group 4182" transform="translate(-7649.142 -7500.828)">
        <circle id="Ellipse_9594" data-name="Ellipse 9594" cx="3.797" cy="3.797" r="3.797" transform="translate(0 0)" fill="#fff"/>
      </g>
      <g id="Group_4189" data-name="Group 4189" transform="translate(-7582.339 -7521.586)">
        <g id="Group_4183" data-name="Group 4183" transform="translate(0 0)">
          <circle id="Ellipse_9595" data-name="Ellipse 9595" cx="0.79" cy="0.79" r="0.79" fill="#fff"/>
        </g>
        <g id="Group_4184" data-name="Group 4184" transform="translate(0 9.631)">
          <circle id="Ellipse_9596" data-name="Ellipse 9596" cx="0.79" cy="0.79" r="0.79" fill="#fff"/>
        </g>
        <g id="Group_4185" data-name="Group 4185" transform="translate(0 19.262)">
          <circle id="Ellipse_9597" data-name="Ellipse 9597" cx="0.79" cy="0.79" r="0.79" fill="#fff"/>
        </g>
        <g id="Group_4186" data-name="Group 4186" transform="translate(0 28.893)">
          <circle id="Ellipse_9598" data-name="Ellipse 9598" cx="0.79" cy="0.79" r="0.79" fill="#fff"/>
        </g>
        <g id="Group_4187" data-name="Group 4187" transform="translate(0 38.525)">
          <circle id="Ellipse_9599" data-name="Ellipse 9599" cx="0.79" cy="0.79" r="0.79" fill="#fff"/>
        </g>
        <g id="Group_4188" data-name="Group 4188" transform="translate(0 48.156)">
          <circle id="Ellipse_9600" data-name="Ellipse 9600" cx="0.79" cy="0.79" r="0.79" fill="#fff"/>
        </g>
      </g>
      <g id="Group_4195" data-name="Group 4195" transform="translate(-7666.1 -7521.586)">
        <g id="Group_4190" data-name="Group 4190" transform="translate(0 0)">
          <circle id="Ellipse_9601" data-name="Ellipse 9601" cx="0.79" cy="0.79" r="0.79" fill="#fff"/>
        </g>
        <g id="Group_4191" data-name="Group 4191" transform="translate(0 9.631)">
          <circle id="Ellipse_9602" data-name="Ellipse 9602" cx="0.79" cy="0.79" r="0.79" fill="#fff"/>
        </g>
        <g id="Group_4192" data-name="Group 4192" transform="translate(0 19.262)">
          <circle id="Ellipse_9603" data-name="Ellipse 9603" cx="0.79" cy="0.79" r="0.79" fill="#fff"/>
        </g>
        <g id="Group_4193" data-name="Group 4193" transform="translate(0 28.893)">
          <circle id="Ellipse_9604" data-name="Ellipse 9604" cx="0.79" cy="0.79" r="0.79" fill="#fff"/>
        </g>
        <g id="Group_4194" data-name="Group 4194" transform="translate(0 38.525)">
          <circle id="Ellipse_9605" data-name="Ellipse 9605" cx="0.79" cy="0.79" r="0.79" fill="#fff"/>
        </g>
      </g>
      <g id="Group_4208" data-name="Group 4208" transform="translate(-7666.1 -7473.387)">
        <g id="Group_4202" data-name="Group 4202" transform="translate(0 0)">
          <g id="Group_4196" data-name="Group 4196">
            <circle id="Ellipse_9606" data-name="Ellipse 9606" cx="0.79" cy="0.79" r="0.79" fill="#fff"/>
          </g>
          <g id="Group_4197" data-name="Group 4197" transform="translate(8.341 4.816)">
            <circle id="Ellipse_9607" data-name="Ellipse 9607" cx="0.79" cy="0.79" r="0.79" fill="#fff"/>
          </g>
          <g id="Group_4198" data-name="Group 4198" transform="translate(16.682 9.631)">
            <circle id="Ellipse_9608" data-name="Ellipse 9608" cx="0.79" cy="0.79" r="0.79" fill="#fff"/>
          </g>
          <g id="Group_4199" data-name="Group 4199" transform="translate(25.022 14.447)">
            <circle id="Ellipse_9609" data-name="Ellipse 9609" cx="0.79" cy="0.79" r="0.79" fill="#fff"/>
          </g>
          <g id="Group_4200" data-name="Group 4200" transform="translate(33.363 19.262)">
            <circle id="Ellipse_9610" data-name="Ellipse 9610" cx="0.79" cy="0.79" r="0.79" fill="#fff"/>
          </g>
          <g id="Group_4201" data-name="Group 4201" transform="translate(41.704 24.078)">
            <circle id="Ellipse_9611" data-name="Ellipse 9611" cx="0.79" cy="0.79" r="0.79" fill="#fff"/>
          </g>
        </g>
        <g id="Group_4207" data-name="Group 4207" transform="translate(50.427 4.816)">
          <g id="Group_4203" data-name="Group 4203" transform="translate(25.022)">
            <circle id="Ellipse_9612" data-name="Ellipse 9612" cx="0.79" cy="0.79" r="0.79" fill="#fff"/>
          </g>
          <g id="Group_4204" data-name="Group 4204" transform="translate(16.682 4.816)">
            <circle id="Ellipse_9613" data-name="Ellipse 9613" cx="0.79" cy="0.79" r="0.79" fill="#fff"/>
          </g>
          <g id="Group_4205" data-name="Group 4205" transform="translate(8.341 9.631)">
            <circle id="Ellipse_9614" data-name="Ellipse 9614" cx="0.79" cy="0.79" r="0.79" fill="#fff"/>
          </g>
          <g id="Group_4206" data-name="Group 4206" transform="translate(0 14.447)">
            <circle id="Ellipse_9615" data-name="Ellipse 9615" cx="0.79" cy="0.79" r="0.79" fill="#fff"/>
          </g>
        </g>
      </g>
      <g id="Group_4220" data-name="Group 4220" transform="translate(-7657.759 -7546.137)">
        <g id="Group_4214" data-name="Group 4214" transform="translate(0)">
          <g id="Group_4209" data-name="Group 4209" transform="translate(0 19.262)">
            <circle id="Ellipse_9616" data-name="Ellipse 9616" cx="0.79" cy="0.79" r="0.79" fill="#fff"/>
          </g>
          <g id="Group_4210" data-name="Group 4210" transform="translate(8.341 14.447)">
            <circle id="Ellipse_9617" data-name="Ellipse 9617" cx="0.79" cy="0.79" r="0.79" fill="#fff"/>
          </g>
          <g id="Group_4211" data-name="Group 4211" transform="translate(16.682 9.631)">
            <circle id="Ellipse_9618" data-name="Ellipse 9618" cx="0.79" cy="0.79" r="0.79" fill="#fff"/>
          </g>
          <g id="Group_4212" data-name="Group 4212" transform="translate(25.022 4.816)">
            <circle id="Ellipse_9619" data-name="Ellipse 9619" cx="0.79" cy="0.79" r="0.79" fill="#fff"/>
          </g>
          <g id="Group_4213" data-name="Group 4213" transform="translate(33.363)">
            <circle id="Ellipse_9620" data-name="Ellipse 9620" cx="0.79" cy="0.79" r="0.79" fill="#fff"/>
          </g>
        </g>
        <g id="Group_4219" data-name="Group 4219" transform="translate(42.086 4.816)">
          <g id="Group_4215" data-name="Group 4215" transform="translate(25.022 14.447)">
            <circle id="Ellipse_9621" data-name="Ellipse 9621" cx="0.79" cy="0.79" r="0.79" fill="#fff"/>
          </g>
          <g id="Group_4216" data-name="Group 4216" transform="translate(16.682 9.631)">
            <circle id="Ellipse_9622" data-name="Ellipse 9622" cx="0.79" cy="0.79" r="0.79" fill="#fff"/>
          </g>
          <g id="Group_4217" data-name="Group 4217" transform="translate(8.341 4.816)">
            <circle id="Ellipse_9623" data-name="Ellipse 9623" cx="0.79" cy="0.79" r="0.79" fill="#fff"/>
          </g>
          <g id="Group_4218" data-name="Group 4218">
            <circle id="Ellipse_9624" data-name="Ellipse 9624" cx="0.79" cy="0.79" r="0.79" fill="#fff"/>
          </g>
        </g>
      </g>
    </g>
  </g>
</svg>
