<svg xmlns="http://www.w3.org/2000/svg" width="180.2" height="179.205" viewBox="0 0 180.2 179.205">
  <g id="Group_4515" data-name="Group 4515" transform="translate(-1352 -4963)">
    <g id="Group_4504" data-name="Group 4504" transform="translate(1352 4963.004)">
      <g id="Group_4501_1_" transform="translate(-390 -3100.765)">
        <g id="Group_3688_1_" transform="translate(-1503.771 3641.323)">
          <g id="Group_3674_1_" transform="translate(1893.771 -540.558)">
            <path id="Path_3651_1_" d="M90.1,23.2C60-21.9,0,4.5,0,53.5,0,94.1,82.6,171.7,90.1,179.2c7.5-7.5,90.1-85.1,90.1-126C180.1,4.5,120.1-21.9,90.1,23.2Z" fill="#e1251b" fill-rule="evenodd"/>
          </g>
        </g>
      </g>
    </g>
    <g id="Group_4514" data-name="Group 4514" transform="translate(1395.638 5001.745)">
      <path id="Path_4521" data-name="Path 4521" d="M82.082,17.529c0,10.189-6.726,17.887-15.741,17.887S50.6,27.717,50.6,17.529,57.326.5,66.341.5,82.082,7.34,82.082,17.529Z" transform="translate(-35.841)" fill="#fff"/>
      <path id="Path_4522" data-name="Path 4522" d="M218,70.68c0,8.071-5.323,14.138-12.45,14.138s-12.45-6.1-12.45-14.138,5.323-13.48,12.45-13.48S218,62.609,218,70.68Z" transform="translate(-137.558 -40.473)" fill="#fff"/>
      <path id="Path_4523" data-name="Path 4523" d="M86.451,176.268H5.744A5.341,5.341,0,0,1,.45,170.143C2.625,155.576,15.933,144.5,30.815,144.5a30.587,30.587,0,0,1,23.9,11.476A26.1,26.1,0,0,1,91.717,168.4,5.7,5.7,0,0,1,86.451,176.268Z" transform="translate(0 -102.788)" fill="#fff"/>
    </g>
  </g>
</svg>
