<svg xmlns="http://www.w3.org/2000/svg" width="183.132" height="184.791" viewBox="0 0 183.132 184.791">
  <g id="Group_4334" data-name="Group 4334" transform="translate(-870.715 -2614.126)">
    <g id="Group_3696" data-name="Group 3696" transform="translate(5528.833 2876.354)">
      <g id="Group_3691" data-name="Group 3691" transform="translate(-4658.117 -259.647)">
        <g id="Group_3690" data-name="Group 3690" transform="translate(0 0)">
          <path id="Path_3652" data-name="Path 3652" d="M-4566.551-214.663c-30.522-45.783-91.566-18.987-91.566,30.885,0,41.288,83.936,120.142,91.566,127.772,7.63-7.631,91.566-86.484,91.566-128.135C-4474.985-233.65-4536.029-260.446-4566.551-214.663Z" transform="translate(4658.118 238.216)" fill="#aa0404" fill-rule="evenodd"/>
        </g>
      </g>
      <g id="Group_3692" data-name="Group 3692" transform="translate(-4643.423 -262.211)">
        <path id="Path_3653" data-name="Path 3653" d="M-4444.512-235.956c-26.017-51.613-76.872-18.987-76.872,30.885,0,41.288,69.241,120.142,76.872,127.772Z" transform="translate(4521.384 262.074)" fill="#c10905" fill-rule="evenodd"/>
      </g>
      <g id="Group_3693" data-name="Group 3693" transform="translate(-4601.805 -256.993)">
        <path id="Path_3654" data-name="Path 3654" d="M-4098.933-192.623c-10.292-39.82-35.181-18.987-35.181,30.885,0,41.288,27.623,120.142,35.253,127.772Z" transform="translate(4134.114 213.523)" fill="#d41a12" fill-rule="evenodd"/>
      </g>
      <g id="Group_3694" data-name="Group 3694" transform="translate(-4566.623 -262.228)">
        <path id="Path_3655" data-name="Path 3655" d="M-3806.629-77.437c7.63-7.631,68.425-86.484,68.425-128.135,0-49.509-40.444-82.136-68.533-30.522Z" transform="translate(3806.737 262.228)" fill="#c10905" fill-rule="evenodd"/>
      </g>
      <g id="Group_3695" data-name="Group 3695" transform="translate(-4566.516 -258.025)">
        <path id="Path_3656" data-name="Path 3656" d="M-3805.739-42.533c8.684-28.656,14.255-54.06,19.593-95.556,6.674-51.89-5.977-120.933-19.593-63.1Z" transform="translate(3805.739 223.121)" fill="#e1251b" fill-rule="evenodd"/>
      </g>
    </g>
  </g>
</svg>
