<svg xmlns="http://www.w3.org/2000/svg" xmlns:xlink="http://www.w3.org/1999/xlink" width="584.527" height="491.283" viewBox="0 0 584.527 491.283">
  <defs>
    <clipPath id="clip-path">
      <ellipse id="Ellipse_10482" data-name="Ellipse 10482" cx="117.452" cy="105.773" rx="117.452" ry="105.773"/>
    </clipPath>
    <linearGradient id="linear-gradient" x1="236.97" y1="0.858" x2="236.806" y2="-0.125" gradientUnits="objectBoundingBox">
      <stop offset="0" stop-color="#ffba98"/>
      <stop offset="0.774" stop-color="#d97e55"/>
    </linearGradient>
    <linearGradient id="linear-gradient-2" x1="186.995" y1="0.501" x2="187.995" y2="0.501" gradientUnits="objectBoundingBox">
      <stop offset="0" stop-color="#ffba98"/>
      <stop offset="0.853" stop-color="#ea9975"/>
    </linearGradient>
    <linearGradient id="linear-gradient-3" x1="163.593" y1="0.5" x2="164.594" y2="0.5" xlink:href="#linear-gradient-2"/>
    <linearGradient id="linear-gradient-4" y1="0.5" x2="1" y2="0.5" gradientUnits="objectBoundingBox">
      <stop offset="0.006" stop-color="#7190ff"/>
      <stop offset="1" stop-color="#4d4ab4"/>
    </linearGradient>
    <clipPath id="clip-path-2">
      <path id="Path_4391" data-name="Path 4391" d="M648.694,1356c78.564,9.707,118,16.684,129.221,28.514s1.517,22.144-23.054,29.727-34.58,11.224-48.837,12.437-31.85,1.517-43.984,4.55-32.154,7.28-48.23,6.673-36.7-1.82-56.421-.3-37.31,1.213-44.591,0c6.673-7.887,12.74-20.02,12.74-20.02s-16.684,16.38-25.48,18.807-15.773,4.247-24.57,2.73-32.154-5.763-41.86-4.853-24.874,2.427-39.13-2.73-23.964-8.493-43.074-11.224-48.23-6.067-48.837-20.93,48.837-29.727,87.361-34.884S648.694,1356,648.694,1356Z" transform="translate(-302.582 -1356)"/>
    </clipPath>
    <linearGradient id="linear-gradient-5" y1="0.5" x2="1" y2="0.5" gradientUnits="objectBoundingBox">
      <stop offset="0" stop-color="#8e8eef"/>
      <stop offset="1" stop-color="#4d4ab4"/>
    </linearGradient>
    <clipPath id="clip-path-3">
      <path id="Path_4395" data-name="Path 4395" d="M1320.649,936.274a77.083,77.083,0,0,0-7.189-7.432c-4.338-4.125-8.008-7.765-9.191-14.105-1.82-9.707-5.763-27-33.67-26.39s-49.444,12.133-66.127,6.067-29.12-12.134-55.511,3.943-87.361,57.937-87.361,57.937l17.29,22.447q10.01,5.6,19.141,9.828c33.883,15.713,59.059,17.927,75.5,15.349,19.414-3.033,23.054-6.37,27.3-16.38s6.067-16.38,20.93-14.864,50.051,14.56,77.047,5.157S1327.626,944.768,1320.649,936.274Z" transform="translate(-1061.6 -888.063)"/>
    </clipPath>
    <linearGradient id="linear-gradient-6" x1="0.505" y1="-0.155" x2="0.499" y2="0.968" gradientUnits="objectBoundingBox">
      <stop offset="0" stop-color="#ffba98"/>
      <stop offset="1" stop-color="#ea9975"/>
    </linearGradient>
    <linearGradient id="linear-gradient-7" x1="-0.186" y1="2.256" x2="-1.208" y2="3.125" gradientUnits="objectBoundingBox">
      <stop offset="0" stop-color="#7190ff"/>
      <stop offset="1" stop-color="#4d4ab4"/>
    </linearGradient>
    <linearGradient id="linear-gradient-8" x1="-0.678" y1="4.861" x2="-2.03" y2="5.224" xlink:href="#linear-gradient-4"/>
    <clipPath id="clip-path-5">
      <path id="Path_4445" data-name="Path 4445" d="M337.248,1116.679c-20.081-.243-40.586-4.762-60.394-9.707-36.006-8.948-69.555-19.2-93.64-7.341-26.178-18.473-63-37.583-79.626-23.9a21.062,21.062,0,0,0-4.459,5.1c-10.283,16.2-1.668,47.381,19.171,63.913,23.3,18.5,35.581,18.048,42.376,17.745,6.795-.334,11.041.425,12.679,6.067,1.668,5.642,16.32,26.117,43.316,32.427s146.208,4.884,146.208,4.884Z" transform="translate(-94.787 -1071.083)"/>
    </clipPath>
    <linearGradient id="linear-gradient-9" x1="0.24" y1="0.029" x2="0.901" y2="1.701" xlink:href="#linear-gradient-6"/>
    <linearGradient id="linear-gradient-10" x1="0.888" y1="0.477" x2="-0.111" y2="0.552" xlink:href="#linear-gradient-6"/>
    <linearGradient id="linear-gradient-11" x1="0.964" y1="0.199" x2="-0.009" y2="0.728" gradientUnits="objectBoundingBox">
      <stop offset="0" stop-color="#431820"/>
      <stop offset="0.586" stop-color="#34101f"/>
    </linearGradient>
    <linearGradient id="linear-gradient-12" x1="1.27" y1="0.307" x2="0.279" y2="0.569" xlink:href="#linear-gradient-2"/>
    <linearGradient id="linear-gradient-13" x1="0.653" y1="0.5" x2="-0.353" y2="0.52" xlink:href="#linear-gradient-2"/>
    <linearGradient id="linear-gradient-14" x1="0.657" y1="0.493" x2="-0.342" y2="0.525" xlink:href="#linear-gradient-2"/>
    <clipPath id="clip-path-6">
      <path id="Path_4475" data-name="Path 4475" d="M1320.649,528.065a77.083,77.083,0,0,0-7.189-7.432c-4.338-4.125-8.008-7.765-9.191-14.105-1.82-9.707,15.925-127.553-11.982-126.946s-71.132-64-87.816-70.071-112.234-38.372-112.993,104.044c-.151,30.91-29.879,134.53-29.879,134.53l17.29,22.447q10.01,5.6,19.141,9.828c33.883,15.713,59.059,17.927,75.5,15.349,19.414-3.033,23.054-6.37,27.3-16.38s6.067-16.38,20.93-14.863,50.051,14.56,77.047,5.157S1327.626,536.558,1320.649,528.065Z" transform="translate(-1061.6 -302.114)"/>
    </clipPath>
    <linearGradient id="linear-gradient-15" x1="-0.001" y1="0.5" x2="0.999" y2="0.5" xlink:href="#linear-gradient-2"/>
    <linearGradient id="linear-gradient-16" x1="0" y1="0.501" x2="1" y2="0.501" xlink:href="#linear-gradient-2"/>
  </defs>
  <g id="Group_4488" data-name="Group 4488" transform="translate(-1.999 -154)">
    <g id="Group_4487" data-name="Group 4487" transform="translate(1.999 154)">
      <g id="Group_4442" data-name="Group 4442" transform="translate(182.075 6.543)">
        <path id="Path_4358" data-name="Path 4358" d="M768.925,195.691a97.259,97.259,0,0,0,6.764,35.915,126.811,126.811,0,0,1-57.937,13.741C652.9,245.347,600.3,198,600.3,139.573S652.868,33.8,717.752,33.8c53.66,0,98.888,32.4,112.932,76.653C795.588,117.7,768.925,153.1,768.925,195.691Z" transform="translate(-600.3 -33.8)" fill="#fff" fill-rule="evenodd"/>
        <path id="Path_4359" data-name="Path 4359" d="M1222.479,315.69c0,39.434-23.964,73.832-59.515,92.032a97.5,97.5,0,0,1-6.764-35.915c0-42.558,26.633-77.957,61.759-85.207A95.508,95.508,0,0,1,1222.479,315.69Z" transform="translate(-987.575 -209.917)" fill="#d6d9fc" fill-rule="evenodd"/>
        <path id="Path_4360" data-name="Path 4360" d="M1321.917,368.6c0,47.806-33.61,86.572-75.076,86.572-30.364,0-56.512-20.779-68.342-50.657,35.551-18.17,59.515-52.568,59.515-92.032a95.85,95.85,0,0,0-4.52-29.12A67.076,67.076,0,0,1,1246.842,282C1288.308,282,1321.917,320.766,1321.917,368.6Z" transform="translate(-1003.111 -206.712)" fill="#e6e7ff" fill-rule="evenodd"/>
        <g id="Group_4441" data-name="Group 4441">
          <g id="Group_4440" data-name="Group 4440" opacity="0.33" clip-path="url(#clip-path)">
            <path id="Path_4361" data-name="Path 4361" d="M1139.825,214.7c-40.192,3.246-118.119,20.081-126.825,161.587" transform="translate(-887.813 -159.826)" fill="none" stroke="#8e8eef" stroke-miterlimit="10" stroke-width="8.952" fill-rule="evenodd"/>
            <path id="Path_4362" data-name="Path 4362" d="M1105.017,348.826C1086,346.1,998.576,333.083,977.1,469.675" transform="translate(-862.803 -252.153)" fill="none" stroke="#8e8eef" stroke-miterlimit="10" stroke-width="8.952" fill-rule="evenodd"/>
            <path id="Path_4363" data-name="Path 4363" d="M948.455,2.5C925.1,37.262,849.871,84.8,963.652,223" transform="translate(-810.771 -11.994)" fill="none" stroke="#8e8eef" stroke-miterlimit="10" stroke-width="8.952" fill-rule="evenodd"/>
            <path id="Path_4364" data-name="Path 4364" d="M787.374,32.9c-13.59,35.308-55.662,88.817,118.119,202.052" transform="translate(-720.579 -33.173)" fill="none" stroke="#8e8eef" stroke-miterlimit="10" stroke-width="8.952" fill-rule="evenodd"/>
            <path id="Path_4365" data-name="Path 4365" d="M591.3,220c17.927,36.946,25.541,73.316,171.355,152.336" transform="translate(-594.03 -163.519)" fill="none" stroke="#8e8eef" stroke-miterlimit="10" stroke-width="8.952" fill-rule="evenodd"/>
          </g>
        </g>
      </g>
      <g id="Group_4443" data-name="Group 4443" transform="translate(165.452 0)">
        <path id="Path_4366" data-name="Path 4366" d="M567.613,17.924c-7.371-11.072-22.113-4.58-22.113,7.462,0,9.98,20.263,29.029,22.113,30.849,1.85-1.85,22.113-20.9,22.113-30.94C589.726,13.343,574.984,6.852,567.613,17.924Z" transform="translate(-545.5 -12.23)" fill="#fff" fill-rule="evenodd"/>
      </g>
      <g id="Group_4444" data-name="Group 4444" transform="translate(407.514 31.547)">
        <path id="Path_4367" data-name="Path 4367" d="M1365.613,121.924c-7.371-11.072-22.113-4.58-22.113,7.462,0,9.98,20.263,29.029,22.113,30.849,1.85-1.85,22.113-20.9,22.113-30.94C1387.726,117.343,1372.984,110.852,1365.613,121.924Z" transform="translate(-1343.5 -116.23)" fill="#fff" fill-rule="evenodd"/>
      </g>
      <g id="Group_4445" data-name="Group 4445" transform="translate(217.322 30.558)">
        <path id="Path_4368" data-name="Path 4368" d="M726.783,115.618c-3.428-5.157-10.283-2.123-10.283,3.458,0,4.641,9.434,13.5,10.283,14.348.849-.849,10.283-9.707,10.283-14.408C737.066,113.495,730.211,110.492,726.783,115.618Z" transform="translate(-716.5 -112.97)" fill="#e1251b" fill-rule="evenodd"/>
      </g>
      <path id="Path_4369" data-name="Path 4369" d="M666.069,1170.265c49.747-9.707,69.767-23.357,77.047-50.354s-4.853-62.791-44.287-71.891S580.528,1028,506.818,1028s-256.623,47.624-250.556,102.831,141.051,70.981,141.051,70.981Z" transform="translate(-178.444 -719.88)" fill="#8e8eef"/>
      <g id="Group_4447" data-name="Group 4447" transform="translate(27.902 68.363)">
        <path id="Path_4370" data-name="Path 4370" d="M578.175,788.913c4.55-.182,19.929-.789,32.245-1.031,14.621-.273,12.194-12.467,11.921-22.75s-6.491-29.515-18.413-55.48c-11.921-26-14.075-57.664-16.228-88.786-1.85-26.451-21.446-32.76-27.3-34.065,12.528,28.6,19.171,66.946,21.9,81.173,4.338,22.477,9.464,53.6,10.829,84.176C594.04,773.564,587.549,782.391,578.175,788.913Z" transform="translate(-418.33 -480.875)" fill="#fff"/>
        <path id="Path_4371" data-name="Path 4371" d="M540.6,600.148l22.477,188.129s.455-.03,1.3-.061c9.373-6.522,15.864-15.318,14.924-36.764-1.365-30.576-6.491-61.729-10.829-84.176-2.73-14.2-9.373-52.568-21.9-81.173a14.085,14.085,0,0,0-1.638-.3Z" transform="translate(-404.536 -480.178)" fill="#bcdfff"/>
        <path id="Path_4372" data-name="Path 4372" d="M409.4,1100.9c10.829,2.427,31.4,1.638,31.4,1.638l7.583-36.006.152,1.82,12.861-91.4s4.611-3.519,11.1-8.918c-1.092,6.491-2.154,19.5,1.092,30.849,3.246,11.375-.819,14.075-6.491,21.658s-3.519,12.467,1.092,19.747-6.218,19.232-8.918,29.242c-2,7.432,3.155,15.773,5.945,23.781l14.105-1.608c0-2.154,5.521-94.459-4.277-142.508-14.2-5.157-59.06-2.578-59.06-2.578s-4.611,11.921-2.154,33.822C416.164,1002.373,410.492,1081.938,409.4,1100.9Z" transform="translate(-313.134 -731.099)" fill="#43222f"/>
        <path id="Path_4373" data-name="Path 4373" d="M538.4,1118.913l2.032,26.6,14.59-1.638c-2.791-8.008-7.947-16.35-5.945-23.782,2.7-10.01,13.529-21.931,8.918-29.242s-6.764-12.194-1.092-19.747c5.672-7.583,9.737-10.283,6.491-21.658s-2.154-24.358-1.092-30.849c-6.491,5.4-11.1,8.918-11.1,8.918Z" transform="translate(-403.003 -781.694)" fill="#230e15"/>
        <path id="Path_4374" data-name="Path 4374" d="M453.056,710a230.042,230.042,0,0,0,24.631.819c10.01-.273,21.931,1.092,22.2-9.737s-2.7-32.214-2.7-41.132.819-25.723-4.065-36.825-10.162-20.687-16.046-24.146c5.035,7.7,6.855,14.135-.182,13.862s-16.228-10.01-18.959-15.44c-6.218,10.556-18.139,28.15-18.139,28.15Z" transform="translate(-334.312 -488.26)" fill="#74c4ff"/>
        <path id="Path_4375" data-name="Path 4375" d="M369.986,568.022c-5.945,3.792-8.675,5.945-4.065,23.266s10.283,69.828,3.792,92.305-23.266,35.187-34.641,47.9-26.785,33.549-27.6,41.405-.819,11.921-2.973,8.129-2.973-10.556,1.092-20.566S324,716.6,330.492,698.487c6.491-18.14,8.129-29.515,7.037-38.979-2.973,6.218-13.256,7.31-19.747,1.881-6.491-5.4-7.856-15.167-2.7-31.122s18.139-46.016,25.723-49.535,15.956-7.856,15.956-7.856,6.491-8.675,11.648-8.675A12.367,12.367,0,0,1,369.986,568.022Z" transform="translate(-238.806 -465.13)" fill="#fff"/>
        <path id="Path_4376" data-name="Path 4376" d="M499.44,547.82a3.37,3.37,0,0,0,1.031,2.4,39.24,39.24,0,0,0,5.4-22.417s14.226,6.825,17.351,10.526a130.8,130.8,0,0,0-2.791,16.35c2.882,4.55,4.277,15.409,1.729,16.168-2.7.819-19.99-10.677-23.66-18.473C498.894,550.52,499.44,547.82,499.44,547.82Z" transform="translate(-375.207 -439.772)" fill="url(#linear-gradient)"/>
        <g id="Group_4446" data-name="Group 4446">
          <path id="Path_4377" data-name="Path 4377" d="M216.6,333.576c31.82,4.156,56.663,26.208,74.014,41.527l38.19-76.077a42.393,42.393,0,1,0-75.773-38.038Z" transform="translate(-178.817 -237.6)" fill="#3131a3"/>
          <path id="Path_4378" data-name="Path 4378" d="M115.417,677.124a42.352,42.352,0,0,0,56.906-18.867l31.486-62.73c-17.351-15.319-42.194-37.371-74.014-41.527L96.549,620.218A42.417,42.417,0,0,0,115.417,677.124Z" transform="translate(-92.042 -458.024)" fill="#8585e6"/>
        </g>
        <path id="Path_4379" data-name="Path 4379" d="M349.8,646.862a22.191,22.191,0,0,1,5.1-5.521c3.822-3.185,10.4-6.582,9.555-4.459s-5.733,6.582-5.733,6.582a70.291,70.291,0,0,0,9.555-1.911c6.37-1.911,12.437-1.365,13.165.849,1.486,4.459-1.062,9.8-7.644,12.315-4.459,1.7-6.795,1.911-12.952,1.274-3.822,1.062-7.219,1.911-7.219,1.911Z" transform="translate(-271.613 -515.305)" fill="url(#linear-gradient-2)"/>
        <path id="Path_4380" data-name="Path 4380" d="M129.9,586.256c10.829,2.548,19.323,11.891,52.69,12.1a113.3,113.3,0,0,0,4.671,12.953s-40.162,8.706-65.217.849-10.5-37.674,17.745-45.561C135.758,574.911,131.936,582.343,129.9,586.256Z" transform="translate(-103.981 -466.802)" fill="#edf9f6"/>
        <path id="Path_4381" data-name="Path 4381" d="M511.985,457.68s-4.55-3.124-6.825-.849.849,8.524,5.7,11.375c1.7,5.4,7.128,11.375,13.65,11.1s15.652-9.1,15.925-31.881a64.851,64.851,0,0,0-24.206-8.827l-5.976,3.974Z" transform="translate(-379.319 -377.629)" fill="url(#linear-gradient-3)"/>
        <path id="Path_4382" data-name="Path 4382" d="M543.3,424.733c7.978-5.126-.576-16.229-8.524-18.5-7.978-2.275-24.752-4.277-28.453,6.249a27.908,27.908,0,0,0,.546,19.565,6.587,6.587,0,0,1,5.4,2.214.643.643,0,0,0,1.092-.243c1.092-3.428.637-13.256.637-13.256S535.321,429.859,543.3,424.733Z" transform="translate(-379.601 -353.813)" fill="#230e15"/>
      </g>
      <g id="Group_4456" data-name="Group 4456" transform="translate(91.766 391.377)">
        <path id="Path_4383" data-name="Path 4383" d="M648.694,1356c78.564,9.707,118,16.684,129.221,28.514s1.517,22.144-23.054,29.727-34.58,11.224-48.837,12.437-31.85,1.517-43.984,4.55-32.154,7.28-48.23,6.673-36.7-1.82-56.421-.3-37.31,1.213-44.591,0c6.673-7.887,12.74-20.02,12.74-20.02s-16.684,16.38-25.48,18.807-15.773,4.247-24.57,2.73-32.154-5.763-41.86-4.853-24.874,2.427-39.13-2.73-23.964-8.493-43.074-11.224-48.23-6.067-48.837-20.93,48.837-29.727,87.361-34.884S648.694,1356,648.694,1356Z" transform="translate(-302.582 -1339.763)" fill="url(#linear-gradient-4)"/>
        <ellipse id="Ellipse_10483" data-name="Ellipse 10483" cx="6.218" cy="22.144" rx="6.218" ry="22.144" transform="translate(385.342 53.253) rotate(-77.074)" fill="#8e8eef"/>
        <ellipse id="Ellipse_10484" data-name="Ellipse 10484" cx="2.73" cy="5.763" rx="2.73" ry="5.763" transform="translate(416.096 42.212) rotate(-73.495)" fill="#8e8eef"/>
        <ellipse id="Ellipse_10485" data-name="Ellipse 10485" cx="18.2" cy="8.797" rx="18.2" ry="8.797" transform="translate(54.816 35.746) rotate(-2.238)" fill="#8e8eef"/>
        <path id="Path_4384" data-name="Path 4384" d="M925.37,1345.705c-33.579,9.949-48.231,15.47-71.587,15.773s-36.7,3.64-64.914,1.82-43.68-1.213-57.937-4.247-59.151-13.043-43.68-39.434,212.639-16.683,228.109-7.887S961.164,1335.089,925.37,1345.705Z" transform="translate(-568.338 -1302.471)" fill="#8e8eef" opacity="0.44"/>
        <g id="Group_4455" data-name="Group 4455" transform="translate(0 16.237)">
          <g id="Group_4454" data-name="Group 4454" clip-path="url(#clip-path-2)">
            <g id="Group_4448" data-name="Group 4448" transform="translate(233.969 11.557)">
              <path id="Path_4385" data-name="Path 4385" d="M1083.394,1394.1l42.892,84.358-1.85,1.062L1073.9,1399.5Z" transform="translate(-1073.9 -1394.1)" fill="#8e8eef"/>
            </g>
            <g id="Group_4449" data-name="Group 4449" transform="translate(240.612 12.103)">
              <path id="Path_4386" data-name="Path 4386" d="M1102.322,1395.9l58.271,82.508-1.7,1.274-63.094-78.9Z" transform="translate(-1095.8 -1395.9)" fill="#8e8eef"/>
            </g>
            <g id="Group_4450" data-name="Group 4450" transform="translate(290.905 25.207)">
              <path id="Path_4387" data-name="Path 4387" d="M1265.21,1439.1l91.517,53.327-1,1.85-94.125-48.594Z" transform="translate(-1261.6 -1439.1)" fill="#8e8eef"/>
            </g>
            <g id="Group_4451" data-name="Group 4451" transform="translate(319.328 26.603)">
              <path id="Path_4388" data-name="Path 4388" d="M1357.908,1443.7q32.9,12.376,65.733,24.813l32.821,12.5,16.41,6.309,8.19,3.185,4.095,1.608,4.095,1.638-.758,1.972-4.125-1.456-4.156-1.426-8.312-2.851-16.623-5.612-33.306-11.132q-33.306-11.1-66.673-22.083Z" transform="translate(-1355.3 -1443.7)" fill="#8e8eef"/>
            </g>
            <g id="Group_4452" data-name="Group 4452" transform="translate(125.738 22.781)">
              <path id="Path_4389" data-name="Path 4389" d="M799.183,1437.743l-2.609,1.638c-.88.546-1.729,1.153-2.609,1.7-1.759,1.122-3.458,2.336-5.217,3.488-1.729,1.183-3.458,2.4-5.187,3.579l-5.157,3.64q-10.283,7.326-20.414,14.894c-6.734,5.036-13.438,10.162-20.051,15.41-6.582,5.248-13.134,10.556-19.383,16.168l-1.456-1.547c5.976-6.006,12.224-11.739,18.534-17.381q9.51-8.463,19.232-16.593c6.491-5.46,13.013-10.829,19.626-16.138l4.975-3.943c1.668-1.3,3.337-2.609,5.035-3.913s3.367-2.609,5.1-3.852c.849-.637,1.7-1.274,2.578-1.911l2.639-1.881Z" transform="translate(-717.1 -1431.1)" fill="#8e8eef"/>
            </g>
            <g id="Group_4453" data-name="Group 4453" transform="translate(32.038 24.115)">
              <path id="Path_4390" data-name="Path 4390" d="M537.361,1442.2q-32.26,10.783-64.429,21.87-16.062,5.551-32.093,11.254-8.008,2.867-15.986,5.824c-5.308,1.971-10.586,4-15.8,6.157l-.849-1.941c5.187-2.366,10.4-4.58,15.682-6.764,5.248-2.184,10.526-4.307,15.773-6.431q15.834-6.324,31.7-12.437,31.759-12.285,63.64-24.237Z" transform="translate(-408.2 -1435.5)" fill="#8e8eef"/>
            </g>
          </g>
        </g>
      </g>
      <g id="Group_4460" data-name="Group 4460" transform="translate(321.973 265.642)">
        <path id="Path_4392" data-name="Path 4392" d="M1297.86,953.1c-26.148,5.824-47.685-10.556-59.211-12.376s-26.087-5.46-47.32,6.673c-16.107,9.191-51.021,30.758-93.4,41.072-6.1-2.821-12.467-6.067-19.141-9.828l-17.29-22.447s60.971-41.86,87.361-57.937,38.827-10.01,55.51-3.943,38.22-5.46,66.127-6.067,31.85,16.683,33.67,26.39c1.183,6.37,4.853,9.98,9.191,14.105C1313.633,940.482,1309.932,950.4,1297.86,953.1Z" transform="translate(-1061.5 -887.963)" fill="#4d4ab4"/>
        <path id="Path_4393" data-name="Path 4393" d="M1382.478,1071.559c-27,9.4-62.184-3.64-77.048-5.157s-16.683,4.853-20.93,14.863-7.887,13.347-27.3,16.38c-16.441,2.578-41.618.333-75.5-15.349,42.376-10.283,77.32-31.881,93.4-41.072,21.233-12.133,35.793-8.493,47.32-6.673s33.064,18.2,59.211,12.376c12.073-2.7,15.773-12.649,15.531-24.328a85.042,85.042,0,0,1,7.189,7.432C1411.3,1038.495,1409.475,1062.155,1382.478,1071.559Z" transform="translate(-1145.239 -981.76)" fill="url(#linear-gradient-5)"/>
        <g id="Group_4459" data-name="Group 4459" transform="translate(0.03 0.03)">
          <g id="Group_4457" data-name="Group 4457" clip-path="url(#clip-path-3)">
            <path id="Path_4394" data-name="Path 4394" d="M1325.078,1033.31c-2.639-2-5.248-4.065-7.887-6.067s-5.308-3.974-8.008-5.854c-2.7-1.911-5.43-3.761-8.22-5.551s-5.581-3.519-8.433-5.187-5.733-3.246-8.676-4.762-5.885-2.973-8.888-4.338c-1.486-.7-3-1.335-4.52-2-.758-.334-1.517-.637-2.275-.971-.759-.3-1.517-.637-2.275-.94-3.064-1.213-6.158-2.366-9.252-3.428a195.786,195.786,0,0,0-18.958-5.43,191.115,191.115,0,0,0-19.414-3.428,193.45,193.45,0,0,0-19.626-1.456c-6.552-.152-13.135,0-19.687.455l-2.457.182c-.819.061-1.638.152-2.457.212l-2.457.243c-.394.03-.819.061-1.213.121l-1.213.152c-1.638.212-3.246.394-4.884.607l-4.853.728c-6.461,1.031-12.922,2.336-19.292,3.852-6.37,1.577-12.679,3.337-18.928,5.339-1.577.485-3.124,1.031-4.671,1.547l-2.336.789c-.789.273-1.547.546-2.305.819l-4.611,1.668-4.58,1.79a342.842,342.842,0,0,0-35.7,16.532c-11.618,6.128-22.9,12.862-33.913,20.02l-4.186-6.582c11.345-7.007,23.023-13.559,34.944-19.535a358.211,358.211,0,0,1,36.734-15.956l4.7-1.7,4.762-1.608c.789-.273,1.577-.546,2.366-.789l2.4-.728c1.608-.485,3.185-1,4.793-1.456,6.43-1.881,12.892-3.519,19.413-4.975q9.828-2.093,19.747-3.458l4.975-.607c1.668-.182,3.337-.334,4.975-.485l1.244-.121,1.244-.091,2.487-.182,2.487-.182,2.518-.121c6.673-.3,13.377-.3,20.051,0a191.028,191.028,0,0,1,19.929,1.972c6.613,1,13.165,2.305,19.6,3.943a198.442,198.442,0,0,1,19.08,5.945c3.124,1.122,6.218,2.4,9.282,3.67l2.275,1c.758.334,1.517.667,2.275,1.031,1.517.7,3.033,1.4,4.52,2.123,3,1.456,5.945,3,8.857,4.58,2.912,1.608,5.794,3.276,8.615,5.005,2.821,1.759,5.612,3.549,8.372,5.4s5.46,3.792,8.1,5.763c2.669,1.972,5.278,4,7.887,6.067s5.157,4.156,7.735,6.249Z" transform="translate(-1038.819 -952.217)" fill="#8e8eef"/>
          </g>
          <g id="Group_4458" data-name="Group 4458" clip-path="url(#clip-path-3)">
            <path id="Path_4396" data-name="Path 4396" d="M1844.476,1008c-25.177,0-39.676,6.946-39.676,6.946s16.32,3.064,21.476,86.481" transform="translate(-1579.36 -971.619)" fill="none" stroke="#8e8eef" stroke-miterlimit="10" stroke-width="7"/>
            <path id="Path_4397" data-name="Path 4397" d="M1719.491,934c-17.745,1.85-42.073,1.426-71.891,18.2,10.313,7.887,24.874,11.527,33.974,67.947" transform="translate(-1469.845 -920.066)" fill="none" stroke="#8e8eef" stroke-miterlimit="10" stroke-width="7"/>
            <path id="Path_4398" data-name="Path 4398" d="M1557.822,857c-37.614,21.84-45.622,39.434-45.622,39.434s30.758,4.247,30.758,64.307" transform="translate(-1375.517 -866.423)" fill="none" stroke="#8e8eef" stroke-miterlimit="10" stroke-width="7"/>
          </g>
        </g>
      </g>
      <path id="Path_4400" data-name="Path 4400" d="M1177.167,882.456c1.881-.394,42.133-16.926,92.457-18.352a1.639,1.639,0,0,0,1.577-1.729c-.182-2.791-.273-5.157-.3-6.522a.4.4,0,0,1,.728-.243l4.671,6.34a1.9,1.9,0,0,0,1.85.758c7.856-1.213,54.388-8.008,81.749-2.973-31.911-17.958-61.547-35.581-85.359-29.363s-51.385,19.626-94.4,43.741C1176.773,877.148,1177.167,882.456,1177.167,882.456Z" transform="translate(-820.098 -581.313)" fill="#ff4e5a"/>
      <path id="Path_4401" data-name="Path 4401" d="M1323.8,764.732c1,1.638,1.941,3.033,3,4.489,10.647-4.459,22.113-9.252,31.638-13.256-2.639-6.279-4.429-10.465-4.429-10.465S1338.482,755.389,1323.8,764.732Z" transform="translate(-922.262 -523.073)" fill="#dd8968"/>
      <path id="Path_4402" data-name="Path 4402" d="M1248.4,823.339c.121.243.243.485.364.758,6.279-2.639,15.531-6.522,25.48-10.708-1.062-1.456-2-2.851-3-4.489C1261.838,814.876,1252.8,820.609,1248.4,823.339Z" transform="translate(-869.733 -567.241)" fill="#e28b69"/>
      <path id="Path_4403" data-name="Path 4403" d="M1256.9,832.133c7.765,15.288,18.625,35.612,25.784,45.2l15.622,3.337c-12.74-16.077-12.133-26.39-9.707-33.67s-.3-13.347-4.853-18.807c-1.426-1.7-2.548-3.124-3.579-4.489C1270.247,827.856,1263.209,829.463,1256.9,832.133Z" transform="translate(-875.655 -577.552)" fill="#ea9975"/>
      <g id="Group_4468" data-name="Group 4468" transform="translate(269.47 12.305)">
        <path id="Path_4404" data-name="Path 4404" d="M975.12,359.6c-23.933,16.38-56,8.311-73.62.971,2.184-1,3.974-1.79,5.278-2.366a4.215,4.215,0,0,0,1.759-1.486c13.8-5.672,30.91-13.407,40.586-20.354C964.5,325.327,964.5,316.317,963.441,302l2.154.243,5.369,53.63a3.76,3.76,0,0,0,2.245,2.942C973.755,359.027,974.392,359.3,975.12,359.6Z" transform="translate(-897.53 -226.407)" fill="url(#linear-gradient-6)"/>
        <path id="Path_4405" data-name="Path 4405" d="M970.86,324.346c-9.677,6.946-24.358,14.681-38.16,20.354a4.231,4.231,0,0,0,.728-2.093l1.7-57.907,50.051,5.278C986.239,304.265,986.239,313.3,970.86,324.346Z" transform="translate(-919.266 -214.355)" fill="#ea9975"/>
        <path id="Path_4406" data-name="Path 4406" d="M1104.376,283.608c-.182-2.487-.394-5.157-.576-8.008" transform="translate(-1038.465 -208.015)" fill="none" stroke="#32ff00" stroke-miterlimit="10" stroke-width="1.294"/>
        <g id="Group_4461" data-name="Group 4461" transform="translate(56.902 79.847)">
          <path id="Path_4407" data-name="Path 4407" d="M1089.013,317.351l-12.619,50.05a.209.209,0,0,1-.243.152.24.24,0,0,1-.152-.243l10.92-50.445a1.071,1.071,0,1,1,2.093.455S1089.013,317.351,1089.013,317.351Z" transform="translate(-1076 -316.023)" fill="#ea9975"/>
        </g>
        <path id="Path_4408" data-name="Path 4408" d="M898.025,137.464l-1.577,14.53s-9.434-1.183-7.856,10.192,5.1,17.26,12.558,17.654c2.76,9.434,6.279,22.386,16.471,29.818,10.192,7.462,22.75,3.155,28.271-1.183,5.49-4.307,12.164-12.558,14.135-28.271,1.972.394,9.039-1.972,12.952-12.558s-2.76-18.049-7.462-22.386c-4.7-4.307-14.53-17.26-14.53-17.26Z" transform="translate(-888.414 -105.188)" fill="#ffba98"/>
        <path id="Path_4409" data-name="Path 4409" d="M1093.409,90.664c-.88,1.092-1.729,2.123-2.487,3.124.425-2.427.425-4.884-.637-6.279-2.76-3.519-6.673-1.577-10.586-.789-3.579.728-12.71,3.4-28-14.621,1.82.971,3.337,1.85,4.429,2.427,4.307,2.366,12.164,5.1,18.443,3.519s21.2-8.645,24.328-4.7S1098.5,84.385,1093.409,90.664Z" transform="translate(-1002.169 -66.244)" fill="#380d24"/>
        <path id="Path_4410" data-name="Path 4410" d="M986.631,80.34c-3.731,4.762-6.158,8.251-6.158,8.251l.273.182c-4.52,4.307-8.979,10.8-12.012,21.689-1.365-4.459-2.851-18.322-3.155-19.535-.394-1.577,0-5.885-4.7-3.155-4.7,2.76-11.375,6.279-14.924,6.279-3.519,0-19.626-5.1-22.386-6.673s-5.49-2.76-5.885.394a137.62,137.62,0,0,1-5.7,20.9.543.543,0,0,1-1.031-.061c-.728-3.155-1.031-7.371-5.035-9.039C905.519,96.811,902,86.619,902,78.762a13.746,13.746,0,0,1,2.518-7.917,38.842,38.842,0,0,1,10.435-1.092,10.647,10.647,0,0,1-.485-9.555c3.246-3.337,7.492-6.734,13.832-7.341,6.158-.576,13.8,2.973,19.11,5.794,15.288,17.988,24.419,15.318,28,14.621,3.913-.789,7.856-2.76,10.586.789C987.055,75.456,987.055,77.913,986.631,80.34Z" transform="translate(-897.879 -52.795)" fill="#461a29"/>
        <g id="Group_4462" data-name="Group 4462" transform="translate(74.13 54.921)">
          <path id="Path_4411" data-name="Path 4411" d="M1139.046,234.108c-.516.576-1.031,1.153-1.547,1.759s-1,1.213-1.456,1.82a8.566,8.566,0,0,0-.637.94.91.91,0,0,0-.121.243l-.182.273c-.121.182-.243.334-.334.485a.93.93,0,0,0-.152.394c0,.091.031.152.152.273a2.219,2.219,0,0,0,.394.273c.152.091.3.121.516.243a3.676,3.676,0,0,1,1.062.728,3.494,3.494,0,0,1,.425.516,2.741,2.741,0,0,1,.243.637,2.6,2.6,0,0,1,.061.7,1.287,1.287,0,0,1-.061.334,1.375,1.375,0,0,1-.091.334,3.579,3.579,0,0,1-.576,1.122l-.364.485-.425.455a5.6,5.6,0,0,1-.425.425l-.455.394c-.334.243-.637.485-.971.728l-1,.637a.2.2,0,1,1-.212-.334h0a13.785,13.785,0,0,0,3.337-3.155,2.512,2.512,0,0,0,.516-1.941,2.841,2.841,0,0,0-.182-.455,3.442,3.442,0,0,0-.3-.394,2.95,2.95,0,0,0-.88-.576c-.152-.061-.364-.152-.546-.243a2.172,2.172,0,0,1-.576-.394,1.351,1.351,0,0,1-.243-.334.563.563,0,0,1-.061-.212.667.667,0,0,0-.03-.243,1.468,1.468,0,0,1,.273-.7c.121-.182.243-.334.334-.485a.765.765,0,0,0,.121-.212,2.721,2.721,0,0,1,.152-.273,5.8,5.8,0,0,1,.728-.971,32.057,32.057,0,0,1,3.246-3.488.227.227,0,0,1,.273,0c.091,0,.091.121,0,.212Z" transform="translate(-1132.796 -233.85)" fill="#ea9975"/>
        </g>
        <g id="Group_4463" data-name="Group 4463" transform="translate(7.81 54.446)">
          <path id="Path_4412" data-name="Path 4412" d="M914.537,232.351a49.9,49.9,0,0,1,3.731,3.488,9.625,9.625,0,0,1,.789,1.062l.182.3.152.334c.03.121.091.243.121.334a1.566,1.566,0,0,1,.061.334,2.934,2.934,0,0,1,.03.728,2.376,2.376,0,0,1-.212.758,1.753,1.753,0,0,1-.546.607,2.035,2.035,0,0,1-.7.3,6.759,6.759,0,0,1-.7.121h-.334a.449.449,0,0,0-.212.03.652.652,0,0,0-.485.576,2.247,2.247,0,0,0,.212,1.031,5.1,5.1,0,0,0,.607,1.031,13.485,13.485,0,0,0,1.668,1.82c.607.576,1.244,1.122,1.881,1.638h0a.194.194,0,1,1-.243.3,17.71,17.71,0,0,1-3.883-3.367,7.116,7.116,0,0,1-.728-1.122,3.09,3.09,0,0,1-.334-1.426,1.589,1.589,0,0,1,.3-.789,1.251,1.251,0,0,1,.728-.455,1.775,1.775,0,0,1,.394-.061h.3a3.421,3.421,0,0,0,.546-.091,1.117,1.117,0,0,0,.728-.516,1.455,1.455,0,0,0,.091-.971,4.235,4.235,0,0,0-1.092-2c-.516-.637-1.092-1.244-1.668-1.85s-1.183-1.213-1.729-1.85a.192.192,0,0,1,.03-.273C914.355,232.26,914.446,232.26,914.537,232.351Z" transform="translate(-914.161 -232.286)" fill="#ea9975"/>
        </g>
        <g id="Group_4464" data-name="Group 4464" transform="translate(19.318 51.811)">
          <path id="Path_4413" data-name="Path 4413" d="M952.1,227.847a8.124,8.124,0,0,1,1.638-1.881,8.812,8.812,0,0,1,2.063-1.4,8.207,8.207,0,0,1,1.183-.516l.637-.182c.212-.061.455-.091.667-.152a4.86,4.86,0,0,1,.7-.091,5.843,5.843,0,0,1,.728-.03,7.045,7.045,0,0,1,1.426.182,14.294,14.294,0,0,1,4.52,2.032,22.631,22.631,0,0,1,1.911,1.456,13.135,13.135,0,0,1,1.668,1.759l-.212.334c-1.577-.334-3.033-.789-4.489-1.213-.7-.212-1.426-.425-2.093-.637-.7-.182-1.365-.364-1.972-.485-.3-.03-.607-.091-.88-.091a1.982,1.982,0,0,0-.425,0,2.3,2.3,0,0,0-.455.03,15.691,15.691,0,0,0-1.941.273c-.667.152-1.4.3-2.123.485s-1.486.364-2.305.516Z" transform="translate(-952.1 -223.6)" fill="#451828"/>
        </g>
        <g id="Group_4465" data-name="Group 4465" transform="translate(50.683 50.919)">
          <path id="Path_4414" data-name="Path 4414" d="M1072.4,225.312c-.819-.152-1.577-.334-2.305-.516s-1.456-.334-2.123-.485a11.482,11.482,0,0,0-1.941-.273,2.3,2.3,0,0,0-.455-.03h-.425c-.273,0-.576.061-.88.091-.637.121-1.3.3-1.972.485l-2.093.637a43.783,43.783,0,0,1-4.489,1.213l-.212-.334a10.22,10.22,0,0,1,1.668-1.759,14.469,14.469,0,0,1,1.911-1.456,14.293,14.293,0,0,1,4.52-2.032,7.044,7.044,0,0,1,1.426-.182,2.931,2.931,0,0,1,.728.03,4.856,4.856,0,0,1,.7.091c.212.061.455.091.667.152l.637.182a8.2,8.2,0,0,1,1.183.516,11.176,11.176,0,0,1,2.063,1.4,8.909,8.909,0,0,1,1.638,1.881Z" transform="translate(-1055.5 -220.659)" fill="#451828"/>
        </g>
        <path id="Path_4415" data-name="Path 4415" d="M969.413,253.947a12.863,12.863,0,0,1-7.856,2.76c-4.732,0-7.856-4.307-7.856-4.307a17.654,17.654,0,0,0,7.856,2.366A36.627,36.627,0,0,0,969.413,253.947Z" transform="translate(-933.896 -191.853)" fill="#451828"/>
        <path id="Path_4416" data-name="Path 4416" d="M1061.1,252.647a12.864,12.864,0,0,0,7.856,2.76c4.732,0,7.856-4.307,7.856-4.307a17.653,17.653,0,0,1-7.856,2.366A36.63,36.63,0,0,1,1061.1,252.647Z" transform="translate(-1008.718 -190.947)" fill="#451828"/>
        <path id="Path_4417" data-name="Path 4417" d="M1018,256.189l-5.1,13.741a4.1,4.1,0,0,0,3.852,5.521h4.489a4.083,4.083,0,0,0,3.792-5.642l-5.551-13.65A.8.8,0,0,0,1018,256.189Z" transform="translate(-974.957 -194.125)" fill="#ea9975"/>
        <path id="Path_4418" data-name="Path 4418" d="M1018.739,340.3s-18.837,1.183-23.539,1.183c5.885,1.577,7.826,2.76,11.375,2.76C1012.066,344.243,1014.4,341.483,1018.739,340.3Z" transform="translate(-962.808 -253.089)" fill="#ea9975"/>
        <path id="Path_4419" data-name="Path 4419" d="M920.735,86.755A38.953,38.953,0,0,0,910.3,87.847c2.154-3.124,5.187-5.46,7.28-7.765.819-.91,1.7-1.881,2.639-2.882A10.652,10.652,0,0,0,920.735,86.755Z" transform="translate(-903.661 -69.797)" fill="#380d24"/>
        <path id="Path_4420" data-name="Path 4420" d="M1136.824,177.891c-2.366,3.155-2.366,3.913-2.366,5.885-2.366-.789-7.856.789-11.375,10.192-.364.94-.758.455-1.183-.88,3.033-10.92,7.523-17.381,12.012-21.689C1135,172.158,1138.856,175.161,1136.824,177.891Z" transform="translate(-1051.075 -135.423)" fill="#673731"/>
        <g id="Group_4467" data-name="Group 4467" transform="translate(41.735 93.886)">
          <g id="Group_4466" data-name="Group 4466">
            <path id="Path_4421" data-name="Path 4421" d="M1026.576,364.64a7.464,7.464,0,0,0,2.457-.152.6.6,0,0,0,.425-.728c-.212-.576-.546-1.274-1.213-1.426a1.283,1.283,0,0,0-.94.152.957.957,0,0,0-.485.88.6.6,0,0,0,.364.546.62.62,0,0,0,.637-.121c.061-.03.03-.03-.03.03.03,0,.03-.03.061-.03s.03-.03.061-.03c.061-.03.03-.03,0,0h0c.03,0,.061,0,.061-.03h0a.62.62,0,0,0,.576-.425.592.592,0,0,0-.273-.667,1.444,1.444,0,0,0-1.153-.273,1,1,0,0,0-.576.425.82.82,0,0,0-.121.7.653.653,0,0,0,.273.364.589.589,0,0,0,.455.061c-.182.03.061,0,.091,0h.394c.121,0-.152-.03,0,0a.112.112,0,0,1,.091.03,1.966,1.966,0,0,1,.394.121h.03a.03.03,0,0,1,.03.03.76.76,0,0,1,.212.121.623.623,0,0,0,.819-.212.631.631,0,0,0-.212-.819,2.832,2.832,0,0,0-1-.364,3.867,3.867,0,0,0-1.183,0c.243.152.485.273.728.425a.193.193,0,0,1,0,.182c.03-.061,0-.03-.03.061.061-.091-.091.091,0,.03-.091.061-.091.061-.031.03s.031-.03-.061.03c.121-.03-.152,0,0,0h-.061c.03,0,.061,0,.061.03a.106.106,0,0,1,.061.03c-.061-.03-.091-.03-.061-.03a1.692,1.692,0,0,1,.243.152c.091-.364.212-.728.3-1.092a1.649,1.649,0,0,0-1.031.425c.334.152.667.273,1,.425v-.061c0-.091-.03.152,0,.061s-.061.121,0,.03c.03-.03-.121.121-.03.061l.03-.03s-.121.091-.061.061l.03-.03c.091-.061-.121.03-.061.03.03,0,.03,0,.061-.03h.061c.061-.03-.121,0-.091,0H1028s-.152-.03-.091,0c.03,0,.03,0,.061.03.061,0-.121-.061-.061-.03.03,0,.03.03.061.03s.091.061,0,0,0,0,.03.03l.091.091c-.03,0-.091-.121-.03-.03.03.03.03.061.061.061a1.793,1.793,0,0,1,.121.243c.03.061,0-.03-.03-.061,0,.03.03.03.03.061.03.061.03.091.061.152.152-.243.273-.485.425-.728a3.52,3.52,0,0,1-.546.121h-.03a.273.273,0,0,0-.152.03c-.091,0-.182.03-.273.03a6.94,6.94,0,0,1-1.122-.03.55.55,0,0,0-.425.182.681.681,0,0,0-.182.425.6.6,0,0,0,.182.425c.091-.061.243,0,.394,0Z" transform="translate(-1026 -362.306)" fill="#ea9975"/>
          </g>
        </g>
      </g>
      <path id="Path_4422" data-name="Path 4422" d="M667.641,764.732c-1,1.638-1.941,3.033-3,4.489-10.647-4.459-22.113-9.252-31.638-13.256,2.639-6.279,4.429-10.465,4.429-10.465S652.96,755.389,667.641,764.732Z" transform="translate(-441.006 -523.073)" fill="#dd8968"/>
      <path id="Path_4423" data-name="Path 4423" d="M763.244,823.339c-.121.243-.243.485-.364.758-6.279-2.639-15.531-6.522-25.48-10.708,1.062-1.456,2-2.851,3-4.489C749.776,814.876,758.846,820.609,763.244,823.339Z" transform="translate(-513.738 -567.241)" fill="#e28b69"/>
      <path id="Path_4424" data-name="Path 4424" d="M719.005,832.133c-7.765,15.288-18.625,35.612-25.784,45.2L677.6,880.667c12.74-16.077,12.133-26.39,9.707-33.67s.3-13.347,4.853-18.807c1.426-1.7,2.548-3.124,3.579-4.489C705.659,827.856,712.7,829.463,719.005,832.133Z" transform="translate(-472.077 -577.552)" fill="#ea9975"/>
      <path id="Path_4425" data-name="Path 4425" d="M881.739,538.46,852.892,557.51c-14.135-18.655-13.59-29.333-15.5-47.563-4.641,21.264-5.824,45.47-6.006,61.759l-.637.425L826.2,674.355H700.314l-5.521-100.677c-.121-16.289-1.183-41.618-6.006-63.731-1.911,18.322-1.365,29-15.682,47.806a297.51,297.51,0,0,1-28.6-19.292c5.4-13.1,14.5-35.339,25.632-52.326,2.366,1.7,4.793,3.428,7.007,4.975a1.663,1.663,0,0,0,2.548-1.82,61.65,61.65,0,0,1-2.063-13.134,50.328,50.328,0,0,1,7.159-5.308h0c12.68-4.55,20.991.03,30.394-4.853,7.948-4.125,13.468-12.315,17.381-19.474.03-.03.061-.03.121-.061,13.62,5.672,39.8,11.921,58.3-.758.94.394,2.063.88,3.337,1.426,3.883,7.007,9.312,14.833,17.017,18.837,9.889,5.157,18.564-.182,32.366,5.642a41.6,41.6,0,0,1,4.55,4.247,43.228,43.228,0,0,1-2.032,14.681,1.306,1.306,0,0,0,2.032,1.426c2.275-1.729,4.884-3.943,7.462-6.218.88,1.4,1.759,2.912,2.639,4.52C870.213,511.767,881.739,538.46,881.739,538.46Z" transform="translate(-449.018 -314.213)" fill="#ffab00"/>
      <path id="Path_4426" data-name="Path 4426" d="M1187.883,474.879c-13.8-5.824-22.477-.485-32.366-5.642-7.7-4-13.134-11.86-17.017-18.837,7.947,3.428,21.567,9.4,29.757,13.68C1175.173,467.72,1181.513,469.753,1187.883,474.879Z" transform="translate(-793.17 -317.487)" fill="#f29c03"/>
      <path id="Path_4427" data-name="Path 4427" d="M825.075,448.3c-3.913,7.159-9.434,15.349-17.381,19.474-9.4,4.914-17.715.3-30.394,4.853C790.526,464.195,814.064,453.244,825.075,448.3Z" transform="translate(-541.535 -316.024)" fill="#f29c03"/>
      <path id="Path_4428" data-name="Path 4428" d="M736.007,560.885c-2.214-1.547-4.671-3.276-7.007-4.975,2-3.064,4.1-5.976,6.218-8.645a16.68,16.68,0,0,1,1.274-1.365,61.057,61.057,0,0,0,2.063,13.134A1.668,1.668,0,0,1,736.007,560.885Z" transform="translate(-507.886 -384.018)" fill="#f49c00"/>
      <path id="Path_4429" data-name="Path 4429" d="M1318.959,554.889c-2.578,2.275-5.187,4.489-7.462,6.218a1.306,1.306,0,0,1-2.032-1.426A43.231,43.231,0,0,0,1311.5,545,63.4,63.4,0,0,1,1318.959,554.889Z" transform="translate(-912.233 -383.391)" fill="#f49c00"/>
      <path id="Path_4430" data-name="Path 4430" d="M760.589,721.231l-.243-4.58A215.853,215.853,0,0,1,738.9,705.306c14.318-18.807,13.772-29.484,15.683-47.806C759.406,679.613,760.467,704.942,760.589,721.231Z" transform="translate(-514.783 -461.766)" fill="#f49c00"/>
      <path id="Path_4431" data-name="Path 4431" d="M1282.176,705.063l-21.476,14.2c.182-16.32,1.365-40.5,6.006-61.759C1268.587,675.731,1268.041,686.408,1282.176,705.063Z" transform="translate(-878.302 -461.766)" fill="#f49c00"/>
      <g id="Group_4469" data-name="Group 4469" transform="translate(230.233 197.394)">
        <path id="Path_4432" data-name="Path 4432" d="M759.346,672.446c1.3,2.093,2.548,4.216,3.822,6.309l3.731,6.37c1.213,2.123,2.427,4.277,3.61,6.431.576,1.092,1.183,2.154,1.729,3.246a19.753,19.753,0,0,1,1.456,3.4l-.546.152a37.056,37.056,0,0,1-.758-4.4l-.485-4.429c-.364-2.942-.7-5.915-1.122-8.857s-.849-5.885-1.4-8.8c-.516-2.912-1.092-5.854-1.85-8.706h0c-.03-.091.03-.152.121-.182a.147.147,0,0,1,.182.091c.485,1.426.88,2.851,1.244,4.307s.728,2.912,1.031,4.368c.637,2.912,1.183,5.854,1.668,8.8s.91,5.915,1.274,8.857c.182,1.486.364,2.973.516,4.459a31.582,31.582,0,0,1,.121,4.489h0l.394,1.577-.91-1.456a33.089,33.089,0,0,1-1.759-3.215c-.546-1.092-1.122-2.184-1.7-3.276-1.153-2.154-2.336-4.338-3.519-6.491l-3.549-6.461-3.579-6.461a.2.2,0,0,1,.061-.212A.236.236,0,0,1,759.346,672.446Z" transform="translate(-759.061 -662.973)" fill="#ea9603"/>
      </g>
      <g id="Group_4470" data-name="Group 4470" transform="translate(382.744 197.342)">
        <path id="Path_4433" data-name="Path 4433" d="M1276.388,672.476c-1.062,2.214-2.184,4.4-3.306,6.582-.576,1.092-1.122,2.184-1.7,3.276s-1.122,2.184-1.729,3.246l-3.458,6.491c-.576,1.092-1.122,2.184-1.759,3.215-.334.516-.637,1.031-1.031,1.547a13.418,13.418,0,0,1-1.213,1.456h0l-.243.273-.03-.364a14.242,14.242,0,0,1-.061-2.275,17.627,17.627,0,0,1,.212-2.214l.637-4.429c.425-2.942.91-5.885,1.4-8.827.516-2.942,1.031-5.854,1.608-8.8.273-1.456.607-2.912.91-4.368s.637-2.912,1-4.368a.155.155,0,0,1,.3.061h0c-.516,2.942-.971,5.854-1.426,8.8s-.91,5.885-1.335,8.827c-.455,2.942-.849,5.885-1.274,8.827l-.607,4.429c-.091.728-.243,1.456-.394,2.184a13.578,13.578,0,0,1-.667,2.154l-.3-.091h0c.243-2.609,1.486-4.793,2.669-6.946.607-1.092,1.183-2.154,1.79-3.246l1.85-3.185c.607-1.062,1.274-2.123,1.911-3.155.637-1.062,1.3-2.093,1.941-3.124,1.3-2.093,2.669-4.156,4.065-6.158a.15.15,0,0,1,.212-.03A.187.187,0,0,1,1276.388,672.476Z" transform="translate(-1261.84 -662.8)" fill="#ea9603"/>
      </g>
      <g id="Group_4471" data-name="Group 4471" transform="translate(304.258 263.891)">
        <path id="Path_4434" data-name="Path 4434" d="M1063.737,882.376a57.2,57.2,0,0,1-4.793,7.8,61.788,61.788,0,0,1-5.915,7.007,66.991,66.991,0,0,1-14.56,11.314,68.59,68.59,0,0,1-17.078,6.977,70.6,70.6,0,0,1-9.039,1.638c-1.517.152-3.033.273-4.55.3-1.517.061-3.033,0-4.55-.091a.163.163,0,0,1-.152-.152.2.2,0,0,1,.121-.152h0c2.912-.88,5.763-1.668,8.584-2.609s5.551-1.941,8.281-3a113.973,113.973,0,0,0,15.531-7.735,137.947,137.947,0,0,0,14.226-9.98c2.275-1.82,4.55-3.7,6.795-5.612l3.367-2.912c1.122-.971,2.275-1.972,3.458-2.942a.15.15,0,0,1,.212.03C1063.737,882.254,1063.737,882.315,1063.737,882.376Z" transform="translate(-1003.1 -882.191)" fill="#ea9603"/>
      </g>
      <g id="Group_4472" data-name="Group 4472" transform="translate(268.462 294.804)">
        <path id="Path_4435" data-name="Path 4435" d="M972.97,984.95c-1.517,1.274-3.124,2.427-4.762,3.549-.819.576-1.638,1.092-2.457,1.638s-1.668,1.062-2.518,1.577a108.779,108.779,0,0,1-10.526,5.581,77.471,77.471,0,0,1-11.314,4.216,55.069,55.069,0,0,1-6.067,1.3c-1.031.152-2.093.273-3.185.334-.546,0-1.092.061-1.638.03s-1.092-.03-1.638-.061a40.928,40.928,0,0,1-6.218-.94c-2-.455-3.974-.971-5.885-1.608-.485-.152-.971-.3-1.426-.455-.485-.152-.94-.3-1.426-.485-.94-.334-1.881-.7-2.791-1.062-1.85-.728-3.67-1.517-5.49-2.336-3.61-1.668-7.128-3.458-10.526-5.43-1.7-1-3.4-2-5.066-3.064s-3.306-2.184-4.884-3.367a.15.15,0,0,1-.03-.212c.03-.061.121-.061.182-.061,7.492,2.487,14.8,5.157,22.144,7.492,3.67,1.213,7.341,2.305,10.981,3.246,1.82.455,3.67.88,5.46,1.213a42.014,42.014,0,0,0,5.369.7c.425.03.849.03,1.3.03.425,0,.849-.03,1.3-.03.88-.061,1.759-.121,2.639-.243a48.024,48.024,0,0,0,5.4-.971c3.64-.819,7.28-1.911,10.92-3.094,7.28-2.366,14.56-5.157,21.992-7.8a.157.157,0,0,1,.212.091C973.031,984.828,973.031,984.919,972.97,984.95Z" transform="translate(-885.091 -984.1)" fill="#ea9603"/>
      </g>
      <g id="Group_4473" data-name="Group 4473" transform="translate(310.083 192.939)">
        <path id="Path_4436" data-name="Path 4436" d="M1059.258,657.178c-10.01-15.015-28.726-9.343-33.458,4.732,6.188,8.433,14.318,15.318,22.659,17.957a35.764,35.764,0,0,0,13.2,1.274,40.772,40.772,0,0,0,5.308-4.914c9.919-11.041,19.565-8.342,26.724-5.7a12.8,12.8,0,0,0,.121-1.82C1093.838,650.019,1070.785,639.888,1059.258,657.178Z" transform="translate(-1024.738 -648.286)" fill="#ee3030" fill-rule="evenodd"/>
        <path id="Path_4437" data-name="Path 4437" d="M1059.246,712.462a56.218,56.218,0,0,1-25.389,10.829c-6.37-8.22-11.557-16.866-11.557-23.175a22.173,22.173,0,0,1,1.092-6.916c6.188,8.433,14.317,15.318,22.659,17.958A35.669,35.669,0,0,0,1059.246,712.462Z" transform="translate(-1022.3 -679.576)" fill="#dd1717" fill-rule="evenodd"/>
        <path id="Path_4438" data-name="Path 4438" d="M1176.1,716.27c-.516,3.852-2.609,8.372-5.521,13.043-4.58-7.068-14.985-3.155-26.481-2.427a40.782,40.782,0,0,0,5.308-4.914C1159.3,710.962,1168.943,713.661,1176.1,716.27Z" transform="translate(-1107.154 -694.031)" fill="#af0919" fill-rule="evenodd"/>
        <path id="Path_4439" data-name="Path 4439" d="M1112.271,755.065c-9.252,14.863-26.785,31.365-28.878,33.458-1.7-1.7-13.62-12.953-22.993-25.056a56.746,56.746,0,0,0,25.389-10.829C1097.286,751.941,1107.69,748,1112.271,755.065Z" transform="translate(-1048.843 -719.783)" fill="#920809" fill-rule="evenodd"/>
      </g>
      <g id="Group_4476" data-name="Group 4476" transform="translate(28.734 321.188)">
        <path id="Path_4440" data-name="Path 4440" d="M377.722,1194.786c-58.241,33.67-133.984,34.975-160.95,28.665s-41.648-26.755-43.316-32.427c-1.668-5.642-5.885-6.4-12.679-6.067s-19.08.758-42.376-17.745C97.56,1150.681,88.945,1119.5,99.229,1103.3c9.221,21.537,28.847,43.923,48.079,49.777,20.718,6.309,84.479,11.921,129.676-23.63,19.778,4.914,40.313,9.464,60.394,9.707C337.317,1139.124,383.819,1172.916,377.722,1194.786Z" transform="translate(-94.857 -1093.527)" fill="url(#linear-gradient-7)"/>
        <path id="Path_4441" data-name="Path 4441" d="M286.855,1107.035c-45.2,35.551-108.958,29.939-129.676,23.63-19.232-5.854-38.857-28.241-48.079-49.777a21.639,21.639,0,0,1,4.459-5.1c16.623-13.711,53.448,5.4,79.626,23.9C217.27,1087.8,250.849,1098.056,286.855,1107.035Z" transform="translate(-104.758 -1071.114)" fill="url(#linear-gradient-8)"/>
        <g id="Group_4475" data-name="Group 4475">
          <g id="Group_4474" data-name="Group 4474" clip-path="url(#clip-path-5)">
            <path id="Path_4442" data-name="Path 4442" d="M75.5,1028.6c22.356,24.267,84.237,105.227,275.1,102.406" transform="translate(-81.35 -1041.486)" fill="none" stroke="#8e8eef" stroke-miterlimit="10" stroke-width="9"/>
            <path id="Path_4443" data-name="Path 4443" d="M338.561,1077.6c11.163,25.359,16.38,54.813,34.489,70.829C350.937,1160.684,328,1175,311.2,1194.081" transform="translate(-245.554 -1075.623)" fill="none" stroke="#8e8eef" stroke-miterlimit="10" stroke-width="9"/>
            <path id="Path_4444" data-name="Path 4444" d="M240.737,1270.9s-40.313,8.22-69.737,31.759" transform="translate(-147.882 -1210.288)" fill="none" stroke="#8e8eef" stroke-miterlimit="10" stroke-width="9"/>
          </g>
        </g>
      </g>
      <path id="Path_4446" data-name="Path 4446" d="M864.6,1160.386c-.3,19.11-19.11,39.13-59.454,38.524-40.192-.607-84.024-11.466-115.541-17.533l35.308-7.583a1.7,1.7,0,0,0,1.3-2.032c-.88-4.034-3.124-14.985-4.793-28.362-1.365-11.042-1.729-22.72-1.79-27.058a1.71,1.71,0,0,0-1.79-1.668c-13.165.667-98.281,5.217-195.045,15.834,11.466-14.8,36.279-22.143,55.147-29.879,23.66-9.707,48.534-17.594,88.271-31.547l40.283-.182s88.938,28.392,124.429,43.256S864.9,1141.276,864.6,1160.386Z" transform="translate(-364.234 -748.374)" fill="#300c18"/>
      <path id="Path_4447" data-name="Path 4447" d="M842.039,1221.305l-48.139,3.64c21.749-4.4,31.79-9.858,39.161-15.046C837.125,1214.784,842.039,1221.305,842.039,1221.305Z" transform="translate(-553.099 -846.603)" fill="#ea9975"/>
      <path id="Path_4448" data-name="Path 4448" d="M786.872,1186.827c-7.4,5.187-17.412,10.647-39.161,15.045l-20.111,1.517c0-12.437,14.257-12.133,22.75-12.437s7.28-7.583,15.773-12.437,14.863,1.517,19.11,6.37C785.75,1185.462,786.3,1186.129,786.872,1186.827Z" transform="translate(-506.911 -823.53)" fill="url(#linear-gradient-9)"/>
      <path id="Path_4449" data-name="Path 4449" d="M1175.532,1285.24a207.939,207.939,0,0,0-32.032,1.79l2.73-30.637a63.242,63.242,0,0,0,6.977-4.793C1157.15,1261.034,1162.155,1272.348,1175.532,1285.24Z" transform="translate(-796.653 -875.654)" fill="#ea9975"/>
      <path id="Path_4450" data-name="Path 4450" d="M1260.3,1250.867c-1.426,9.07-15.167,5.46-26.39,4.247-5.885-.637-19.838-2.184-35.915-2.4-13.377-12.892-18.382-24.206-22.3-33.64,4.58-3.549,8.675-7.4,11.83-10.071,6.067-5.157,18.2-6.067,23.964.607s7.28,11.223,16.987,15.167S1261.817,1241.16,1260.3,1250.867Z" transform="translate(-819.086 -843.101)" fill="url(#linear-gradient-10)"/>
      <path id="Path_4451" data-name="Path 4451" d="M708.91,1278.813,673.6,1286.4c-.121-.03-.212-.03-.334-.061-29.12,5.46-109.2,26.694-142.871,13.65-26.572-10.283-33.67-27.6-29.424-51.567a29.073,29.073,0,0,1,5.824-12.892c96.764-10.617,181.88-15.167,195.045-15.834a1.691,1.691,0,0,1,1.79,1.668c.091,4.338.425,16.016,1.79,27.057,1.668,13.407,3.913,24.358,4.793,28.362A1.712,1.712,0,0,1,708.91,1278.813Z" transform="translate(-348.231 -853.423)" fill="url(#linear-gradient-11)"/>
      <path id="Path_4452" data-name="Path 4452" d="M1046.06,1076.453c-23.023,8.8-55.268,20.081-74.742,23.964-14.56,7.28-17.624,9.009-28.514,12.134-4.247,1.213-8.8,2.7-13.347,1.82-7.887-1.517-32.336-7.25-35.49-9.1-3.64-2.123-3.943-6.37,2.427-6.673,6.4-.3,20.02,1.335,22.932,1.79a5.2,5.2,0,0,0,3.428-.637l15.2-12.679s-7.28-2.427-20.627,0c-4.338.789-9.1,1.82-6.673-3.033s25.784-13.044,33.064-11.83,20.02,5.46,25.784,7.28c5.763-1.911,15.318-10.344,26.451-19.2,11.648-1.213,18.595-3.488,32.275-2.184C1039.933,1059.224,1047.091,1067.475,1046.06,1076.453Z" transform="translate(-621.013 -740.578)" fill="url(#linear-gradient-12)"/>
      <path id="Path_4454" data-name="Path 4454" d="M1313.239,871.759c-1.517,1.062-12.437,5.642-27.027,11.223,1.031-8.979-6.127-17.229-17.836-18.352-13.68-1.3-20.657.971-32.275,2.184,9.98-7.947,21.2-16.229,32.093-20.536l15.622,3.943c-12.74-16.077-12.133-26.39-9.707-33.67s-.3-13.347-4.854-18.807c-1.426-1.729-2.548-3.124-3.579-4.489,10.647-4.459,22.113-9.252,31.638-13.256a461.668,461.668,0,0,1,16.957,50.505c3.943,15.773,3.489,30.637,3.792,33.67S1317.182,869.029,1313.239,871.759Z" transform="translate(-861.164 -547.107)" fill="url(#linear-gradient-13)"/>
      <g id="Group_4477" data-name="Group 4477" transform="translate(405.096 294.752)">
        <path id="Path_4455" data-name="Path 4455" d="M1337.643,984.011c3,1.122,5.915,2.275,8.827,3.519,2.912,1.213,5.824,2.487,8.676,3.792,2.882,1.3,5.733,2.669,8.554,4.065s5.612,2.851,8.4,4.338a.174.174,0,0,1,.061.212.146.146,0,0,1-.182.061h0c-2.882-1.274-5.763-2.518-8.676-3.7s-5.854-2.305-8.8-3.4-5.915-2.123-8.888-3.124-5.976-1.941-8.949-2.821h-.03a1.546,1.546,0,1,1,.849-2.973A.227.227,0,0,1,1337.643,984.011Z" transform="translate(-1335.529 -983.929)" fill="#ea9975"/>
      </g>
      <path id="Path_4456" data-name="Path 4456" d="M748.472,911.8c-3.155,1.85-27.6,7.583-35.49,9.1-4.55.88-9.1-.607-13.347-1.82-10.89-3.124-13.953-4.853-28.514-12.133-31.85-6.37-97.826-32.457-101.769-35.187s-5.157-4.55-4.853-7.583-.152-17.9,3.792-33.67c2.73-10.95,10.95-36.127,16.957-50.505,9.525,3.974,20.991,8.8,31.638,13.256-1,1.365-2.123,2.791-3.579,4.489-4.55,5.46-7.28,11.527-4.853,18.807s3.033,17.594-9.707,33.67l15.622-3.943h0c23.054,9.1,47.624,36.1,58.544,39.737,5.763-1.82,18.5-6.067,25.784-7.28s30.637,6.977,33.064,11.83-2.336,3.822-6.673,3.033c-13.347-2.427-20.627,0-20.627,0l15.2,12.679a5.021,5.021,0,0,0,3.428.637c2.942-.485,16.562-2.093,22.932-1.79C752.415,905.43,752.112,909.676,748.472,911.8Z" transform="translate(-393.253 -547.107)" fill="url(#linear-gradient-14)"/>
      <g id="Group_4478" data-name="Group 4478" transform="translate(186.37 294.705)">
        <path id="Path_4457" data-name="Path 4457" d="M649.993,986.816c-2.973.849-5.976,1.82-8.948,2.821s-5.945,2.032-8.888,3.124-5.885,2.214-8.8,3.4-5.794,2.427-8.675,3.7h0c-.091.03-.152,0-.212-.091a.146.146,0,0,1,.061-.182c2.791-1.486,5.581-2.942,8.4-4.338s5.672-2.76,8.554-4.065,5.763-2.578,8.675-3.792,5.824-2.4,8.827-3.519a1.535,1.535,0,0,1,1.062,2.882c.03.03,0,.03-.061.061Z" transform="translate(-614.461 -983.776)" fill="#ea9975"/>
      </g>
      <g id="Group_4480" data-name="Group 4480" transform="translate(322.004 87.932)">
        <g id="Group_4479" data-name="Group 4479" clip-path="url(#clip-path-6)">
          <path id="Path_4458" data-name="Path 4458" d="M1610.015,1023.1H1595.7l-7.1-76.8,20.688,23.175Z" transform="translate(-1428.742 -750.895)" fill="#43222f"/>
          <path id="Path_4459" data-name="Path 4459" d="M1554.041,946.139l3.458,28.089h-7.341l-3.974-26.694a20.709,20.709,0,0,1,.516-8.524l17.594-63.064,11.223-1.547Z" transform="translate(-1399.036 -700.805)" fill="#230e15"/>
          <path id="Path_4460" data-name="Path 4460" d="M1521.722,950.987l3.974,26.694h-10.313s-4.853-34.671-4.52-46.441c.334-11.8,8.493-49.019,8.493-49.019l20.475-2.821-17.594,63.064A20.743,20.743,0,0,0,1521.722,950.987Z" transform="translate(-1374.573 -704.288)" fill="#43222f"/>
          <path id="Path_4461" data-name="Path 4461" d="M1662.958,1021.2v54.085h-5.43l-.728-53.63Z" transform="translate(-1476.254 -803.075)" fill="#230e15"/>
          <path id="Path_4462" data-name="Path 4462" d="M1511.6,569.7c-.03,11.193-12.5,16.046-8.675,29.545,2.912,10.344,4.853,13.529,7.614,19.747s9.009,20.445,1.729,44.378c5.187,3.458,20.445,7.28,42.649-2.093-3.458-10.4-17.321-45.409-17.321-45.409l-4.853-49.565Z" transform="translate(-1368.55 -486.163)" fill="#3d93ff"/>
          <path id="Path_4463" data-name="Path 4463" d="M1494.409,478.422c-9.98,7.159-15.288,8.979-20.869,2.457-3.033-3.519-4.823-7.037-6.249-12.588,0-.061-.03-.091-.03-.152a8.21,8.21,0,0,0-.212-.819c0-.03-.031-.061-.031-.121-.849-3.61-1.577-8.038-2.335-13.8-.061-.849-.091-1.79-.152-2.76a4.041,4.041,0,0,0-.031-.607,14.529,14.529,0,0,1,1.608-.273c3.4-.425,11.284-.485,15.045,7.553,4.853,10.4,4.853,18.018,13.165,20.445C1494.348,477.967,1494.379,478.179,1494.409,478.422Z" transform="translate(-1342.286 -404.867)" fill="#ffba98"/>
          <path id="Path_4464" data-name="Path 4464" d="M1526.3,520.038c1.4,4.52,3.822,10.738.334,17.685,0,0,15.591-2.427,19.414-12.467l-5.885-15.956Z" transform="translate(-1385.34 -446.453)" fill="#ffba98"/>
          <path id="Path_4465" data-name="Path 4465" d="M1536.207,474.62a10.965,10.965,0,0,1-2.063-2.336c-1.729-2.76-3.822-2.093-6.946-1.4s-5.551-.7-8.675-3.822-6.582-6.946-13.529-10.04c-6.947-3.124-6.249-12.831-6.249-19.08s-2.76-12.133-8.675-11.8c-5.885.334-9.373-1.729-12.133-6.582s-5.885-13.862-11.8-17.685c-4.368-2.821-10.313-1.062-15.045,1.456a14.53,14.53,0,0,0-1.608.273,4.074,4.074,0,0,0,.03.607,19.956,19.956,0,0,0,.152,2.76c1.062,6.522,1.335,9.707,2.336,13.8,0,.03.03.091.03.121a6.47,6.47,0,0,0,.212.819c0,.061.03.091.03.152.121.485.243.971.334,1.486-12.467-4.156-15.258-34.307,6.947-39.161,22.174-4.853,29.454,6.582,36.734,20.809s20.809,22.174,28.756,28.756c7.978,6.582,9.707,15.258,10.738,21.84C1536.571,460.091,1537.754,468.918,1536.207,474.62Z" transform="translate(-1327.33 -358.507)" fill="#461a29"/>
          <path id="Path_4466" data-name="Path 4466" d="M1491.786,702.553a.847.847,0,0,1-.03-.182l-7.765,9.4a13.5,13.5,0,0,1-16.926,3.215c-2.123-1.153-4.429-2.427-6.764-3.731,9.039.364,16.41-1.335,19.322-4.732,4.156-4.853,12.134-21.507,14.227-28.756,2.093-7.28,3.124-13.165,4.853-9.707C1500.31,671.279,1505.8,683.807,1491.786,702.553Z" transform="translate(-1339.36 -556.349)" fill="#fafafa"/>
          <path id="Path_4467" data-name="Path 4467" d="M1590.76,689.8s2.76,11.1-2.76,18.382" transform="translate(-1428.324 -572.201)" fill="none" stroke="#31fc00" stroke-miterlimit="10" stroke-width="1.143"/>
          <path id="Path_4468" data-name="Path 4468" d="M1430.029,666.5l-31.729.121s2.427,3.458,3.124,12.133c3.124,0,32.214-.152,32.214-.152A78.752,78.752,0,0,1,1430.029,666.5Z" transform="translate(-1296.167 -555.969)" fill="#fafafa"/>
          <path id="Path_4469" data-name="Path 4469" d="M1346.338,668.07s-3.215.667-4.944-.03-4.156-2.093-5.187-2.427-3.458.334-1.729,2.427h-10.041c-1.729,0-3.125,3.124,0,3.124s8.675.334,8.675.334-.7,4.52,1.729,7.614c2.427,3.124,9.373-2.76,9.373-2.76l4.277.394A17.364,17.364,0,0,0,1346.338,668.07Z" transform="translate(-1243.416 -555.294)" fill="url(#linear-gradient-15)"/>
          <path id="Path_4470" data-name="Path 4470" d="M1352.408,723.154l4.307-7.1s-3.822-2.427-5.551-3.822-6.249-5.187-7.614-6.249c-1.4-1.031-.7,1.4.334,2.76,1.031,1.4.7,2.76-1.4,1.4s-6.249-3.458-8.311-4.52c-2.093-1.031-4.52-.7-3.124,2.76a17.077,17.077,0,0,0,9.373,9.009,83.8,83.8,0,0,0,8.311,3.124Z" transform="translate(-1249.031 -582.865)" fill="url(#linear-gradient-16)"/>
          <path id="Path_4471" data-name="Path 4471" d="M1222.3,624.7c1.031.334,45.8,30.334,45.8,30.334" transform="translate(-1173.554 -526.848)" fill="none" stroke="#000" stroke-linecap="round" stroke-miterlimit="10" stroke-width="13.713"/>
          <path id="Path_4472" data-name="Path 4472" d="M1489.873,747.48a1.939,1.939,0,0,1-1.122.94,58.072,58.072,0,0,0-3.367-12.376c-2.76-7.614-10.4-13.862-15.258-20.111s-4.52-18.716-6.947-33.276c-2-12.073-10.465-35.581-16.046-49.778-.091-.485-.182-.819-.212-1,14.014-18.746,8.524-31.274,6.886-34.489-1.729-3.458-2.76,2.427-4.853,9.707s-10.04,23.9-14.227,28.756c-2.912,3.4-10.283,5.1-19.323,4.732-7.917-4.338-16.319-8.979-19.5-10.617,2.093-10.4,6.249-15.258,6.249-15.258s14.894,8.311,22.872,13.529c6.613-18.352,14.53-38.8,16.532-43.862a5.263,5.263,0,0,0,.334-2.457l-.7-6.764c9.919-2.487,13.589-9.555,13.589-9.555s11.83,30.425,15.986,47.047c4.156,16.653,9.009,49.565,12.134,71.739C1486.051,706.56,1491.936,744.022,1489.873,747.48Z" transform="translate(-1294.494 -485.675)" fill="#fff"/>
          <path id="Path_4473" data-name="Path 4473" d="M1606.487,902.941c-2.366.607-6.158-4.611-8.22-9.616-2.427-5.885-7.614-6.582-13.165-10.738s-4.156-9.373-8.312-33.61c-3.731-21.749-10.526-54.934-11.891-61.577,5.581,14.2,14.045,37.7,16.047,49.777,2.427,14.56,2.093,27.027,6.946,33.276s12.467,12.467,15.258,20.111A61.768,61.768,0,0,1,1606.487,902.941Z" transform="translate(-1412.231 -640.195)" fill="#fafafa"/>
          <path id="Path_4474" data-name="Path 4474" d="M1511.56,511.568c-3.367-5.1-.971-7.735-2.305-14.833a7.445,7.445,0,0,0-1.7-3.549,14.676,14.676,0,0,1-3.337-8.251,6.248,6.248,0,0,0-1.972-3.974A15.348,15.348,0,0,1,1498,472.1c-.03-.212-.061-.455-.091-.667-8.311-2.427-8.311-10.04-13.165-20.445-3.761-8.038-11.648-8.008-15.046-7.553,4.732-2.518,10.647-4.277,15.046-1.456,5.885,3.822,9.009,12.831,11.8,17.685,2.76,4.853,6.249,6.946,12.133,6.582,5.885-.334,8.675,5.551,8.675,11.8s-.7,15.956,6.249,19.08,10.4,6.946,13.529,10.04c3.124,3.124,5.551,4.52,8.675,3.822s5.187-1.4,6.947,1.4a11.876,11.876,0,0,0,2.063,2.336c-.728,2.791-2.123,4.823-4.489,5.278-7.28,1.4-12.467-2.427-18.018-4.156s-12.831,5.187-19.08-2.093a24.9,24.9,0,0,1-1.668-2.184" transform="translate(-1345.908 -398.549)" fill="#380d24"/>
        </g>
      </g>
      <g id="Group_4486" data-name="Group 4486" transform="translate(0 269.344)">
        <path id="Path_4476" data-name="Path 4476" d="M413.326,1548.3s-2.457,4.52-2.427,8.827a1.347,1.347,0,0,0,1.335,1.335c7.735.152,26.906.152,26.906.152a3.694,3.694,0,0,0-2.912-3.246c-3.155-.576-8.493-1.668-9.646-5.49C422.244,1548.725,413.326,1548.3,413.326,1548.3Z" transform="translate(-286.277 -1351.698)" fill="#230e15"/>
        <path id="Path_4477" data-name="Path 4477" d="M27.4,1531.122s-4.489-7.826-7.159-6.825c-3,2.669-18.989,16.319-19.96,17.321-1,1,1.486,2.154,4.671,1,3.155-1.153,13.65-5.49,16.137-4.823,1.941.516,3.67,1,3.67,1Z" transform="translate(-0.06 -1334.915)" fill="#230e15"/>
        <g id="Group_4481" data-name="Group 4481" transform="translate(20.17 84.671)">
          <path id="Path_4478" data-name="Path 4478" d="M348.586,1182.03l-11.527,13.863a95.159,95.159,0,0,0-4.459-8.676l14.863-7.917Z" transform="translate(-251.899 -1179.3)" fill="#ea9975"/>
          <path id="Path_4479" data-name="Path 4479" d="M298.334,1254a235.4,235.4,0,0,1-.485,24.449c-.971,11.982-6.673,36.643-26.026,44.5-19.778,8.038-53.842,10.556-82.022-10.313" transform="translate(-152.415 -1231.341)" fill="none" stroke="#3131a3" stroke-miterlimit="10" stroke-width="3.953"/>
          <path id="Path_4480" data-name="Path 4480" d="M243.692,1322.358a18.857,18.857,0,0,1-2.275.94c-5.49,1.82-14.2,1.608-23.751-.455-1.456-4.854-3.306-10.1-5.066-15.713,6.431-1,16.532-1.972,25.6-2.73l2.912,9.555Z" transform="translate(-168.299 -1266.453)" fill="#3f3280"/>
          <path id="Path_4481" data-name="Path 4481" d="M175.975,1430.85c-10.222-.182-40.708-.971-59.575-1.335,18.382-5.733,43.377-15.349,51.6-18.534a.9.9,0,0,0,.273-1.517c-11.739-10.526-14.135-25.541-15.046-34.034a65.69,65.69,0,0,0-2.548-11.345c9.585,2.032,18.261,2.245,23.751.455a18.879,18.879,0,0,0,2.275-.94l4.641,15.228c1.881,7.553,6.613,26.481,7.856,32.578C190.717,1419.08,190.02,1431.093,175.975,1430.85Z" transform="translate(-101.28 -1307.695)" fill="#4e4298"/>
          <path id="Path_4482" data-name="Path 4482" d="M315.816,1299.8c-1.577,4.793-3.67,9.919-6.855,13.923-3.276-.971-6.34-2-8.948-2.973L297.1,1301.2C305.411,1300.528,312.843,1299.982,315.816,1299.8Z" transform="translate(-227.167 -1263.248)" fill="#3b3080"/>
          <path id="Path_4483" data-name="Path 4483" d="M394.544,1326.394a182.748,182.748,0,0,1-6.7,26.967c-5.763,17.745-8.888,25.177-8.888,25.177s-1.3,2.275-6.218,2.245a28.844,28.844,0,0,1-2.548-14.833c.971-9.221,11.86-35.248,14.135-38.372s0-4.065-3.367-4.671-10.8-1.3-21.355-3.367c-6.37-1.244-15.561-3.489-23.6-5.885,3.155-4,5.278-9.161,6.855-13.923.121,0,.243-.03.364-.03,12.376,2.548,25.693,5.551,33.64,9.767C384.777,1313.593,389.691,1317.263,394.544,1326.394Z" transform="translate(-254.267 -1263.178)" fill="#4c3f9a"/>
          <path id="Path_4484" data-name="Path 4484" d="M412.6,1314a109.289,109.289,0,0,1-1.335,12.255c-4.853-9.13-9.767-12.8-17.624-16.926-7.947-4.216-21.264-7.219-33.64-9.767.667-.03,1.031-.061,1.031-.061s21.81.849,31.426,2.639S412.963,1305.84,412.6,1314Z" transform="translate(-270.987 -1263.039)" fill="#6a59b9"/>
          <path id="Path_4485" data-name="Path 4485" d="M133.241,1403.109c-8.19,3.155-33.185,12.8-51.6,18.534-7.037-.121-12.467-.182-14.651-.121-.849-3.489-.971-12.225,4.429-16.441,6.249-.243,52.75-3,52.75-3s-13.2-21.355-17.5-33.337c-2.336-6.522-3.913-11.8-4.125-16.441a93.978,93.978,0,0,0,13.347,3.883,66.96,66.96,0,0,1,2.548,11.345c.94,8.493,3.337,23.509,15.045,34.034A.9.9,0,0,1,133.241,1403.109Z" transform="translate(-66.554 -1299.823)" fill="#46378f"/>
          <path id="Path_4486" data-name="Path 4486" d="M355.656,1398a28.786,28.786,0,0,0,2.548,14.833c-3.064,0-7.523-.91-13.953-3.822,7.674-22.3,16.32-49.171,16.32-49.171l-41.618,3.367s.3,1.183.789,3.155L315.1,1351.13a19.012,19.012,0,0,0,6.4-5.43c8.008,2.4,17.2,4.641,23.6,5.885,10.556,2.032,17.988,2.76,21.355,3.367s5.642,1.547,3.367,4.671C367.517,1362.717,356.627,1388.743,355.656,1398Z" transform="translate(-239.707 -1295.225)" fill="#34267e"/>
          <path id="Path_4487" data-name="Path 4487" d="M198.589,1329.182a98.163,98.163,0,0,1-13.347-3.883,17.629,17.629,0,0,1,2.7-10.647,33.482,33.482,0,0,1,5.612-1.153C195.282,1319.051,197.133,1324.3,198.589,1329.182Z" transform="translate(-149.222 -1272.792)" fill="#3c3080"/>
          <path id="Path_4488" data-name="Path 4488" d="M315.748,1338.942a19.67,19.67,0,0,1-6.4,5.43L306.8,1336C309.378,1336.971,312.472,1337.972,315.748,1338.942Z" transform="translate(-233.925 -1288.467)" fill="#2f2470"/>
          <path id="Path_4489" data-name="Path 4489" d="M548.217,1190.784c-4.914,3.216-8.069,7.523-9.434,20.172h0a51.494,51.494,0,0,1-5.278-.455c-1.911-.364-3.124-1.911-2.4-4.914.7-3,1.3-8.16,8.736-13.438,2.4-1.7,6.946-1.941,8.16-1.456A.528.528,0,0,1,548.217,1190.784Z" transform="translate(-390.044 -1187.083)" fill="#fff"/>
          <path id="Path_4490" data-name="Path 4490" d="M566.407,1193.632a75.37,75.37,0,0,0-5.035,5.642s-1.668,9.1-1.79,10.192c-.121,1.031-2.7,2.184-2.882,2.275,1.426-12.649,4.58-16.926,9.494-20.141C567.226,1192.025,567.65,1192.631,566.407,1193.632Z" transform="translate(-408.021 -1187.869)" fill="#d6d8de"/>
          <path id="Path_4491" data-name="Path 4491" d="M413.458,1190.293a18.155,18.155,0,0,0-8.038,9.1c3.943.243,6.946.364,4.914,1.3-2.032.971-5.035,2.032-6.825,4.065s-4.429,4.671-7.8,3.488c-4.429.243-27.937,2.275-35.005,1.911s-10.92-2.154-12.952-7.068c-.152-.334-.3-.7-.455-1.031l11.527-13.862,2.366,5.763,34.429,5.642s4.793-5.521,7.068-6.825,6.7-2.518,8.766-3.125C413.458,1189.08,415.854,1188.746,413.458,1190.293Z" transform="translate(-262.14 -1185.5)" fill="#ffba98"/>
        </g>
        <g id="Group_4482" data-name="Group 4482" transform="translate(29.567 79.847)">
          <path id="Path_4492" data-name="Path 4492" d="M130.659,1177.08l-3.549,3.185a138.211,138.211,0,0,0-10.01-14.014c1.031-1.031,2.063-2,2.882-2.851Z" transform="translate(-111.165 -1163.4)" fill="#ea9975"/>
          <path id="Path_4493" data-name="Path 4493" d="M147.111,1359.9c-.971.728-1.911,1.3-1.911,5.278v22.356" transform="translate(-130.741 -1300.295)" fill="none" stroke="#3131a3" stroke-miterlimit="10" stroke-width="3.953"/>
          <ellipse id="Ellipse_10486" data-name="Ellipse 10486" cx="2.214" cy="0.485" rx="2.214" ry="0.485" transform="translate(20.951 69.798)" fill="#59555e"/>
          <path id="Path_4494" data-name="Path 4494" d="M188.146,1417.416v.789c-.819.364-1.608.7-2.366.971a22.371,22.371,0,0,0-4.58-11.375C186.963,1409.347,188.146,1412.835,188.146,1417.416Z" transform="translate(-155.821 -1333.665)" fill="#dbdbdf"/>
          <path id="Path_4495" data-name="Path 4495" d="M199.432,1478.4v33.549a.764.764,0,0,1-.273.607,4.958,4.958,0,0,1-1.668.88c-.061-9.98-.03-22.174-.091-31.122A34.428,34.428,0,0,0,199.432,1478.4Z" transform="translate(-167.107 -1382.849)" fill="#f0f1f3"/>
          <path id="Path_4496" data-name="Path 4496" d="M198.666,1442.1v10.981a33.578,33.578,0,0,1-2,3.883c-.03-5.126-.061-9.191-.152-11.132-.03-.971-.121-1.911-.212-2.76A21.7,21.7,0,0,0,198.666,1442.1Z" transform="translate(-166.34 -1357.56)" fill="#ebebf1"/>
          <path id="Path_4497" data-name="Path 4497" d="M159.028,1410.4c-7.068,2.427-12.437.516-16.228-.849.121-9.221,7.189-10.283,7.189-10.283V1395.2h4.429a33.778,33.778,0,0,0,0,3.822C157.33,1403.087,158.574,1406.181,159.028,1410.4Z" transform="translate(-129.069 -1324.887)" fill="#b7bbbf"/>
          <path id="Path_4498" data-name="Path 4498" d="M159.347,1457.272a34.858,34.858,0,0,1-6.127,7.432c-2.942,2.73-7.341,5.157-10.465,7.917-.03-10.829-.03-24.752.03-30.091v-.03c3.792,1.365,9.161,3.276,16.228.849.091.88.152,1.79.212,2.76C159.286,1448.081,159.316,1452.146,159.347,1457.272Z" transform="translate(-129.023 -1357.839)" fill="#cacfd6"/>
          <path id="Path_4499" data-name="Path 4499" d="M159.383,1522.253a21.1,21.1,0,0,1-7.31.758c-6.279-.182-8.493-1.577-9.13-2.154a.625.625,0,0,1-.212-.516c0-1.274-.03-6.946-.03-13.893,3.124-2.73,7.523-5.187,10.465-7.917a33.817,33.817,0,0,0,6.127-7.432C159.353,1500.079,159.323,1512.273,159.383,1522.253Z" transform="translate(-128.999 -1391.697)" fill="#dee2e5"/>
          <path id="Path_4500" data-name="Path 4500" d="M193.929,1540.6a8.985,8.985,0,0,1-4.429.364v10.071s3.064.516,4.4-.819C193.959,1548.244,193.929,1540.6,193.929,1540.6Z" transform="translate(-161.603 -1426.181)" fill="#fff"/>
          <path id="Path_4501" data-name="Path 4501" d="M123.4,1230.213a5.172,5.172,0,0,0-2.032,2.154,2.538,2.538,0,0,1-2.639,1.426c-.485.971-2.032.849-2.639.243a32.454,32.454,0,0,1-2.882-3.125c-1.911-.971-1.3-6.37-1.3-6.37S100.283,1191.2,97.978,1185.2c-1.759-4.611,2.032-9.009,5.521-12.5a138.25,138.25,0,0,1,10.01,14.014l-.03.03s5.035,28.665,5.885,33.215c3.124-.243,5.278.243,5.885,4.307C125.794,1228.423,124.216,1229.727,123.4,1230.213Z" transform="translate(-97.533 -1169.879)" fill="#ffba98"/>
          <path id="Path_4502" data-name="Path 4502" d="M177.6,1347.7c4.065.849,8.038,1.426,8.038,9.949s-.121,22.3-.121,22.3" transform="translate(-153.313 -1291.795)" fill="none" stroke="#3131a3" stroke-miterlimit="10" stroke-width="3.953"/>
        </g>
        <g id="Group_4483" data-name="Group 4483" transform="translate(41.742)">
          <path id="Path_4503" data-name="Path 4503" d="M188.579,906.64c-.849-2.154-1.547-6.7-10.192-6.461-8.4.243-23.418,2.973-22.083,16.987a2.218,2.218,0,0,1-.789,1.911c-4.4,3.67-5.521,4.793-5.308,9.191.243,4.671,1.3,9.343-1.092,11.5s-4.55,5.157-3.61,9.707.607,8.281-2.639,11.284-5.885,7.432-5.035,12.1,6.7,10.677,14.621,12.224,34.884-2.76,41.375-5.763c6.461-3,10.677-8.4,9.585-14.863s-7.189-10.435-8.888-11.739a4.16,4.16,0,0,1-.728-5.642,8.863,8.863,0,0,0,2.154-6.127c0-2.548-2.427-5.854-4.4-8.22a1.231,1.231,0,0,1,.121-1.7c1.85-1.638,4.975-4.368,4.884-7.7a7.077,7.077,0,0,0-2.669-5.339,1.314,1.314,0,0,1-.485-1.153c.152-1.365.364-4.307-.455-5.854C191.946,908.945,188.579,906.64,188.579,906.64Z" transform="translate(-137.67 -900.169)" fill="#43222f"/>
          <path id="Path_4504" data-name="Path 4504" d="M253.376,1053.427c-.789-.152-8.4,11.588-10.374,11.406-5.46-.576-13.8-6.886-13.8-6.886v-10.192s2.7-1.335,4.034-5.854c1.972,3.428,10.92,1.183,17.078,4A24.549,24.549,0,0,0,253.376,1053.427Z" transform="translate(-201.436 -998.908)" fill="#ffba98"/>
          <path id="Path_4505" data-name="Path 4505" d="M260.184,1041.531c-7.8,1.213-15.713-2.851-17.685-6.279a17.508,17.508,0,0,0,.576-2.851c2.032,2.518,10.738,2.275,15.773,1.577C258.728,1037.162,259.73,1039.316,260.184,1041.531Z" transform="translate(-210.701 -992.29)" fill="#ea9975"/>
          <path id="Path_4506" data-name="Path 4506" d="M227.788,951.6c-2.639.607-11.284.971-11.739,4.793s3.124,3.488,2.275,8.281-2.154,4.065-1.426,6.461,1.3,4.793-.243,6.006-3.61,2.639-2.4,7.31" transform="translate(-190.772 -935.999)" fill="none" stroke="#603b4a" stroke-linecap="round" stroke-miterlimit="10" stroke-width="2.372"/>
          <path id="Path_4507" data-name="Path 4507" d="M161.441,999c-1.213,2.639-1.547,3.367-3.367,4.429-1.79,1.092-2.76,1.79-2.154,4.429s1.213,4.914-.728,5.763-3.943,2.154-3.124,5.278" transform="translate(-147.569 -969.021)" fill="none" stroke="#43222f" stroke-linecap="round" stroke-miterlimit="10" stroke-width="2.372"/>
          <path id="Path_4508" data-name="Path 4508" d="M319.7,1048c1.213,1.3,3.943,1.911,3.246,3.488-.728,1.547-1.668,3.943-1.426,5.885" transform="translate(-264.484 -1003.158)" fill="none" stroke="#43222f" stroke-linecap="round" stroke-miterlimit="10" stroke-width="2.372"/>
          <path id="Path_4509" data-name="Path 4509" d="M322.1,1044.1c1.426,1.3,4.55,3,5.521,4.065s.485,1.79,0,3.488c-.485,1.668-.971,3.61.243,4.429,1.213.849,3.822,1.547,4.065,3.731s-1.547,5.4-1.3,7.068" transform="translate(-266.156 -1000.441)" fill="none" stroke="#43222f" stroke-linecap="round" stroke-miterlimit="10" stroke-width="2.372"/>
          <path id="Path_4510" data-name="Path 4510" d="M292.867,971.73c-1.122,6.188-3.61,9.039-5.976,10.131a35,35,0,0,1,.091-10.95,14.21,14.21,0,0,0,1.7-.728.764.764,0,0,0,.364-1.031c-1.365-3.064-2.184-8.008-2.518-11.709,5.339-.394,6.916-3.943,6.916-3.943C294.293,957.838,294.536,962.388,292.867,971.73Z" transform="translate(-241.352 -937.323)" fill="#ea9975"/>
          <path id="Path_4511" data-name="Path 4511" d="M246.777,979.968a35,35,0,0,0-.091,10.95,6.338,6.338,0,0,1-3.367.546v.091c-5.035-.667-7.765-2.578-9.8-5.066a6.387,6.387,0,0,0,.061-.758c.607-7.432-5.763-9.828-4.671-13.923,1.092-4.065,11.405-5.035,17.017-5.278a1.729,1.729,0,0,0,.394-.03c.334,3.792,1.183,8.888,2.609,11.921a.51.51,0,0,1-.243.7A14.228,14.228,0,0,1,246.777,979.968Z" transform="translate(-201.146 -946.38)" fill="#ffba98"/>
        </g>
        <path id="Path_4512" data-name="Path 4512" d="M220.759,1298c-15.076,9.464-37.4.667-46.259-3.519a80.885,80.885,0,0,0,2.4-11.284c6.431,1.972,12.194,4.156,16.046,7.341C197.068,1293.938,205.744,1300.429,220.759,1298Z" transform="translate(-121.586 -1167.013)" fill="#d75f9c"/>
        <path id="Path_4513" data-name="Path 4513" d="M235.341,1254.687a26.551,26.551,0,0,1-9.009,9.737c-15.015,2.457-23.66-4.065-27.786-7.462-3.852-3.185-9.646-5.339-16.046-7.341.758-4.914,1.274-10.131,1.638-14.621,6.582,1.456,10.708,2.912,16.684,8.281,6.552,5.885,16.2,9.737,32.669,6.431A29.462,29.462,0,0,0,235.341,1254.687Z" transform="translate(-127.159 -1133.434)" fill="#df65a5"/>
        <path id="Path_4514" data-name="Path 4514" d="M135.088,1086.8c-5.005,7.159-11.254,14.954-16.229,27.331L114.4,1109.1s15.349-17.624,20.142-21.81C134.724,1087.1,134.906,1086.952,135.088,1086.8Z" transform="translate(-79.717 -1030.188)" fill="#e77fb8"/>
        <path id="Path_4515" data-name="Path 4515" d="M141.719,1118.938l-1.729,1.426-10.89-12.255c4.975-12.346,11.254-20.142,16.229-27.331a34.942,34.942,0,0,1,3.64-2.578C143.539,1086.906,136.8,1098.827,141.719,1118.938Z" transform="translate(-89.957 -1024.197)" fill="#df67a6"/>
        <path id="Path_4516" data-name="Path 4516" d="M216.906,1088.237c.607,8.706.91,14.408,1.3,18.534v.03c.243,3.852,1.062,13.771,3.215,21.234-16.471,3.306-26.117-.546-32.669-6.431-5.976-5.369-10.1-6.825-16.684-8.281.546-6.7.758-11.77.758-11.77l-5.945,4.944c-4.914-20.111,1.82-32.032,7.28-40.738a95.018,95.018,0,0,1,10.162-5.46l14.044,15.47,9.1-14.5s5.763,1.092,10.192,2.032,7.917,7.432,9.343,12.467c.88,3.064,2.73,10.435,4.065,15.683C226.946,1093.121,222.336,1093.485,216.906,1088.237Z" transform="translate(-115.094 -1011.726)" fill="#e36faf"/>
        <path id="Path_4517" data-name="Path 4517" d="M339,1199.879s.03.576.091,1.608c-.121-1.486-.273-3.185-.394-5.187a33.273,33.273,0,0,0,2.578,2.336Z" transform="translate(-235.978 -1106.473)" fill="#c55280"/>
        <path id="Path_4518" data-name="Path 4518" d="M351.292,1161.43l-12.133,6.552c-.758-.637-1.668-1.426-2.578-2.336-.243-3.458-.485-7.8-.88-13.347,5.43,5.248,10.01,4.884,14.135,3.215C350.685,1158.913,351.292,1161.43,351.292,1161.43Z" transform="translate(-233.888 -1075.82)" fill="#de63a2"/>
        <path id="Path_4519" data-name="Path 4519" d="M306.9,1149.685l.121,4.216,7.432-.728V1149.2Z" transform="translate(-213.824 -1073.66)" fill="none" stroke="#fff" stroke-miterlimit="10" stroke-width="1.977"/>
        <g id="Group_4484" data-name="Group 4484" transform="translate(58.162 49.514)">
          <path id="Path_4520" data-name="Path 4520" d="M225.956,1063.521l-.152.516-.182.455c-.121.3-.273.576-.394.88l-.425.849-.455.849c-.607,1.092-1.244,2.184-1.881,3.276-1.3,2.154-2.639,4.277-4,6.4q-4.1,6.325-8.433,12.467c-2.882,4.1-5.824,8.19-8.857,12.194-3,4-6.1,7.978-9.282,11.86l-.091-.061c3.155-3.913,6.188-7.917,9.13-11.951,2.973-4.034,5.854-8.16,8.675-12.285q4.232-6.234,8.251-12.558c1.335-2.123,2.639-4.247,3.913-6.431q.956-1.638,1.82-3.276l.425-.819.394-.819c.121-.273.243-.546.364-.849l.152-.425.121-.394Z" transform="translate(-191.8 -1063.4)" fill="#fff"/>
        </g>
        <g id="Group_4485" data-name="Group 4485" transform="translate(48 76.511)">
          <line id="Line_5" data-name="Line 5" x2="4.216" y2="4.186" transform="translate(0.273 0.061)" fill="none" stroke="#fff" stroke-miterlimit="10" stroke-width="5.139"/>
          <line id="Line_6" data-name="Line 6" x1="4.186" y2="4.186" fill="none" stroke="#fff" stroke-miterlimit="10" stroke-width="5.139"/>
        </g>
      </g>
    </g>
  </g>
</svg>
