<svg xmlns="http://www.w3.org/2000/svg" width="36.702" height="29.829" viewBox="0 0 36.702 29.829">
  <path id="twitter" d="M86.533,128.229c13.849,0,21.424-11.474,21.424-21.424q0-.489-.022-.973a15.326,15.326,0,0,0,3.757-3.9,15.034,15.034,0,0,1-4.325,1.185,7.554,7.554,0,0,0,3.31-4.165,15.071,15.071,0,0,1-4.781,1.828,7.536,7.536,0,0,0-12.832,6.866,21.37,21.37,0,0,1-15.52-7.867,7.534,7.534,0,0,0,2.33,10.052,7.468,7.468,0,0,1-3.41-.942c0,.031,0,.063,0,.1a7.532,7.532,0,0,0,6.041,7.381,7.564,7.564,0,0,1-1.985.264,7.485,7.485,0,0,1-1.415-.137,7.535,7.535,0,0,0,7.035,5.229,15.107,15.107,0,0,1-9.351,3.224,15.46,15.46,0,0,1-1.8-.1,21.275,21.275,0,0,0,11.543,3.388" transform="translate(-74.99 -98.4)" fill="#fff"/>
</svg>
